<svg width="40" height="40" viewBox="0 0 40 40" fill="none" xmlns="http://www.w3.org/2000/svg">
<path d="M6.66602 32.4997V7.49967C6.66602 6.39461 7.105 5.3348 7.8864 4.5534C8.66781 3.77199 9.72761 3.33301 10.8327 3.33301H31.666C32.108 3.33301 32.532 3.5086 32.8445 3.82116C33.1571 4.13372 33.3327 4.55765 33.3327 4.99967V34.9997C33.3327 35.4417 33.1571 35.8656 32.8445 36.1782C32.532 36.4907 32.108 36.6663 31.666 36.6663H10.8327C9.72761 36.6663 8.66781 36.2274 7.8864 35.446C7.105 34.6646 6.66602 33.6047 6.66602 32.4997ZM6.66602 32.4997C6.66602 31.3946 7.105 30.3348 7.8864 29.5534C8.66781 28.772 9.72761 28.333 10.8327 28.333H33.3327" stroke="#0056D2" stroke-width="2" stroke-linecap="round" stroke-linejoin="round"/>
<path d="M15 15.8333L18.3333 19.1667L25 12.5" stroke="#0056D2" stroke-width="2" stroke-linecap="round" stroke-linejoin="round"/>
</svg>
