<svg width="18" height="18" viewBox="0 0 18 18" fill="none" xmlns="http://www.w3.org/2000/svg">
<path d="M2.25 2.25V14.25C2.25 14.6478 2.40804 15.0294 2.68934 15.3107C2.97064 15.592 3.35218 15.75 3.75 15.75H15.75" stroke="#0056D2" stroke-width="1.5" stroke-linecap="round" stroke-linejoin="round"/>
<path d="M5.25 8.40519C5.25002 8.30593 5.2894 8.21072 5.3595 8.14044L6.8595 6.64044C6.89433 6.60552 6.93572 6.57781 6.98128 6.55891C7.02683 6.54 7.07567 6.53027 7.125 6.53027C7.17433 6.53027 7.22317 6.54 7.26872 6.55891C7.31428 6.57781 7.35567 6.60552 7.3905 6.64044L9.8595 9.10944C9.89433 9.14437 9.93572 9.17207 9.98128 9.19098C10.0268 9.20988 10.0757 9.21961 10.125 9.21961C10.1743 9.21961 10.2232 9.20988 10.2687 9.19098C10.3143 9.17207 10.3557 9.14437 10.3905 9.10944L13.6095 5.89044C13.6619 5.83791 13.7287 5.8021 13.8015 5.78755C13.8742 5.773 13.9497 5.78037 14.0182 5.80871C14.0868 5.83706 14.1454 5.88511 14.1867 5.94679C14.228 6.00846 14.25 6.08099 14.25 6.15519V11.9999C14.25 12.1989 14.171 12.3896 14.0303 12.5303C13.8897 12.6709 13.6989 12.7499 13.5 12.7499H6C5.80109 12.7499 5.61032 12.6709 5.46967 12.5303C5.32902 12.3896 5.25 12.1989 5.25 11.9999V8.40519Z" stroke="#0056D2" stroke-width="1.5" stroke-linecap="round" stroke-linejoin="round"/>
</svg>
