<svg width="75" height="75" viewBox="0 0 75 75" fill="none" xmlns="http://www.w3.org/2000/svg">
<rect width="75" height="75" rx="10" fill="#0056D2"/>
<path d="M34.0346 17H20.2907C19.0256 17 18 18.0198 18 19.2778V55.7222C18 56.9802 19.0256 58 20.2907 58H34.0346C35.2997 58 36.3253 56.9802 36.3253 55.7222V19.2778C36.3253 18.0198 35.2997 17 34.0346 17Z" stroke="white" stroke-width="2" stroke-linecap="round" stroke-linejoin="round"/>
<path d="M27.1641 17V58" stroke="white" stroke-width="2" stroke-linecap="round" stroke-linejoin="round"/>
<path d="M57.8568 53.2165C58.3149 54.3554 57.6277 55.7221 56.4824 56.1777L52.1301 57.7721C50.9848 58.2277 49.6104 57.5443 49.1523 56.4054L36.5537 21.7832C36.0955 20.6443 36.7827 19.2777 37.9281 18.8221L42.2803 17.2277C43.4256 16.7721 44.8 17.4554 45.2582 18.5943L57.8568 53.2165Z" stroke="white" stroke-width="2" stroke-linecap="round" stroke-linejoin="round"/>
</svg>
