<svg width="18" height="18" viewBox="0 0 18 18" fill="none" xmlns="http://www.w3.org/2000/svg">
<path d="M11.6081 9.66797L12.7443 16.0625C12.757 16.1378 12.7465 16.2152 12.714 16.2843C12.6816 16.3534 12.6288 16.411 12.5628 16.4493C12.4967 16.4876 12.4205 16.5049 12.3444 16.4988C12.2683 16.4926 12.1959 16.4634 12.1368 16.415L9.4518 14.3997C9.32218 14.3029 9.16472 14.2506 9.00293 14.2506C8.84113 14.2506 8.68367 14.3029 8.55405 14.3997L5.86455 16.4142C5.80554 16.4625 5.7332 16.4917 5.65717 16.4979C5.58115 16.504 5.50506 16.4868 5.43905 16.4486C5.37304 16.4104 5.32026 16.353 5.28774 16.284C5.25522 16.215 5.24452 16.1377 5.25705 16.0625L6.39255 9.66797" stroke="#0056D2" stroke-width="1.5" stroke-linecap="round" stroke-linejoin="round"/>
<path d="M9 10.5C11.4853 10.5 13.5 8.48528 13.5 6C13.5 3.51472 11.4853 1.5 9 1.5C6.51472 1.5 4.5 3.51472 4.5 6C4.5 8.48528 6.51472 10.5 9 10.5Z" stroke="#0056D2" stroke-width="1.5" stroke-linecap="round" stroke-linejoin="round"/>
</svg>
