<svg width="57" height="57" viewBox="0 0 57 57" fill="none" xmlns="http://www.w3.org/2000/svg">
<rect width="57" height="57" rx="10" fill="#0056D2"/>
<path d="M27.9848 17.9865C28.0322 17.8905 28.1056 17.8098 28.1965 17.7534C28.2874 17.6969 28.3923 17.667 28.4993 17.667C28.6064 17.667 28.7113 17.6969 28.8022 17.7534C28.8931 17.8098 28.9665 17.8905 29.0139 17.9865L31.5164 23.0554C31.6813 23.389 31.9246 23.6777 32.2256 23.8965C32.5266 24.1154 32.8762 24.258 33.2443 24.312L38.8408 25.131C38.9469 25.1464 39.0465 25.1911 39.1285 25.2602C39.2104 25.3292 39.2714 25.4198 39.3045 25.5217C39.3377 25.6236 39.3416 25.7327 39.316 25.8368C39.2903 25.9408 39.2361 26.0356 39.1593 26.1104L35.112 30.0515C34.8451 30.3117 34.6454 30.6327 34.5301 30.9871C34.4148 31.3416 34.3873 31.7187 34.4501 32.086L35.4056 37.6544C35.4243 37.7604 35.4129 37.8695 35.3726 37.9693C35.3322 38.0691 35.2647 38.1555 35.1776 38.2188C35.0905 38.282 34.9874 38.3195 34.88 38.327C34.7727 38.3345 34.6654 38.3116 34.5703 38.261L29.5675 35.6307C29.2379 35.4576 28.8711 35.3672 28.4988 35.3672C28.1265 35.3672 27.7597 35.4576 27.4301 35.6307L22.4283 38.261C22.3334 38.3113 22.2262 38.3339 22.119 38.3263C22.0118 38.3187 21.9089 38.2812 21.822 38.2179C21.7351 38.1547 21.6677 38.0684 21.6274 37.9688C21.5871 37.8692 21.5756 37.7602 21.5942 37.6544L22.5486 32.0871C22.6116 31.7196 22.5843 31.3422 22.469 30.9876C22.3537 30.633 22.1538 30.3117 21.8867 30.0515L17.8393 26.1115C17.762 26.0367 17.7072 25.9418 17.6811 25.8375C17.6551 25.7331 17.6589 25.6235 17.6921 25.5213C17.7253 25.419 17.7866 25.328 17.8689 25.2589C17.9512 25.1897 18.0514 25.145 18.1578 25.13L23.7533 24.312C24.1219 24.2584 24.4719 24.116 24.7733 23.8971C25.0747 23.6782 25.3184 23.3893 25.4833 23.0554L27.9848 17.9865Z" stroke="white" stroke-width="1.48" stroke-linecap="round" stroke-linejoin="round"/>
</svg>
