<svg width="71" height="69" viewBox="0 0 71 69" fill="none" xmlns="http://www.w3.org/2000/svg">
<circle cx="34.5" cy="34.5" r="34.5" fill="#0056D2"/>
<circle cx="34.5" cy="34.5" r="29.5" stroke="url(#paint0_linear_5190_35933)" stroke-width="4"/>
<path d="M30.2819 33.4419V35H22.3614V33.661L26.2081 29.4654C26.63 28.9893 26.9628 28.5781 27.2062 28.2319C27.4497 27.8856 27.6201 27.5746 27.7175 27.2986C27.8203 27.0173 27.8717 26.7441 27.8717 26.479C27.8717 26.1057 27.8013 25.7784 27.6607 25.4971C27.5254 25.2103 27.3253 24.9858 27.0602 24.8235C26.7951 24.6558 26.4732 24.5719 26.0944 24.5719C25.6562 24.5719 25.2883 24.6666 24.9908 24.856C24.6932 25.0453 24.4687 25.3077 24.3172 25.6431C24.1657 25.9732 24.09 26.3519 24.09 26.7793H22.1342C22.1342 26.0922 22.2911 25.4646 22.6049 24.8965C22.9187 24.3231 23.3731 23.8686 23.9683 23.5332C24.5634 23.1923 25.2802 23.0219 26.1188 23.0219C26.9087 23.0219 27.5795 23.1545 28.1314 23.4196C28.6832 23.6847 29.1025 24.0607 29.3892 24.5476C29.6814 25.0345 29.8275 25.6107 29.8275 26.2761C29.8275 26.644 29.7679 27.0092 29.6489 27.3717C29.5299 27.7342 29.3595 28.0966 29.1377 28.4591C28.9213 28.8162 28.6643 29.176 28.3667 29.5384C28.0692 29.8955 27.7418 30.258 27.3848 30.6259L24.8285 33.4419H30.2819ZM33.8607 28.0939V35H31.905V26.2193H33.7471L33.8607 28.0939ZM33.5118 30.285L32.8788 30.2769C32.8842 29.6548 32.9708 29.084 33.1385 28.5646C33.3116 28.0452 33.5496 27.5989 33.8526 27.2256C34.161 26.8523 34.5289 26.5656 34.9563 26.3654C35.3837 26.1598 35.8598 26.057 36.3846 26.057C36.8066 26.057 37.188 26.1165 37.5288 26.2355C37.8751 26.3492 38.1699 26.5358 38.4134 26.7955C38.6622 27.0552 38.8516 27.3933 38.9814 27.8099C39.1113 28.2211 39.1762 28.7269 39.1762 29.3275V35H37.2123V29.3193C37.2123 28.8973 37.1501 28.5646 37.0257 28.3212C36.9066 28.0723 36.7308 27.8965 36.4982 27.7937C36.2709 27.6855 35.9869 27.6314 35.6461 27.6314C35.3106 27.6314 35.0104 27.7017 34.7453 27.8424C34.4802 27.983 34.2557 28.1751 34.0717 28.4185C33.8932 28.662 33.7552 28.9433 33.6578 29.2625C33.5605 29.5817 33.5118 29.9226 33.5118 30.285ZM46.5286 33.1822V22.535H48.4925V35H46.7153L46.5286 33.1822ZM40.8155 30.707V30.5366C40.8155 29.8712 40.8939 29.2652 41.0508 28.7188C41.2077 28.167 41.4349 27.6936 41.7325 27.2986C42.0301 26.8983 42.3925 26.5926 42.8199 26.3816C43.2473 26.1652 43.7288 26.057 44.2645 26.057C44.7947 26.057 45.2599 26.1598 45.6603 26.3654C46.0606 26.571 46.4015 26.8658 46.6828 27.25C46.9641 27.6287 47.1886 28.0831 47.3564 28.6133C47.5241 29.1381 47.6431 29.7224 47.7134 30.3662V30.9099C47.6431 31.5375 47.5241 32.111 47.3564 32.6304C47.1886 33.1497 46.9641 33.5988 46.6828 33.9775C46.4015 34.3562 46.0579 34.6483 45.6522 34.8539C45.2518 35.0595 44.7838 35.1623 44.2482 35.1623C43.718 35.1623 43.2392 35.0514 42.8118 34.8296C42.3898 34.6078 42.0301 34.2967 41.7325 33.8963C41.4349 33.496 41.2077 33.0253 41.0508 32.4843C40.8939 31.9379 40.8155 31.3454 40.8155 30.707ZM42.7713 30.5366V30.707C42.7713 31.1074 42.8064 31.4807 42.8768 31.8269C42.9525 32.1732 43.0688 32.4789 43.2257 32.744C43.3826 33.0037 43.5855 33.2092 43.8343 33.3607C44.0886 33.5068 44.3916 33.5798 44.7433 33.5798C45.1869 33.5798 45.5521 33.4825 45.8388 33.2877C46.1255 33.0929 46.3501 32.8305 46.5124 32.5005C46.6801 32.1651 46.7937 31.7918 46.8532 31.3806V29.9117C46.8208 29.5925 46.7531 29.295 46.6503 29.0191C46.553 28.7432 46.4204 28.5024 46.2527 28.2968C46.085 28.0858 45.8767 27.9235 45.6278 27.8099C45.3844 27.6909 45.0949 27.6314 44.7595 27.6314C44.4024 27.6314 44.0994 27.7071 43.8506 27.8586C43.6017 28.0101 43.3961 28.2184 43.2338 28.4835C43.0769 28.7486 42.9606 29.0569 42.8849 29.4086C42.8091 29.7603 42.7713 30.1363 42.7713 30.5366ZM18.3496 39.1561H19.2486L20.9384 43.6634L22.6241 39.1561H23.5232L21.2916 45H20.5772L18.3496 39.1561ZM17.9402 39.1561H18.7951L18.9436 43.0574V45H17.9402V39.1561ZM23.0777 39.1561H23.9366V45H22.9292V43.0574L23.0777 39.1561ZM26.0719 40.6572V45H25.1006V40.6572H26.0719ZM25.0364 39.5173C25.0364 39.3702 25.0845 39.2484 25.1808 39.1521C25.2799 39.0531 25.4163 39.0036 25.5902 39.0036C25.7615 39.0036 25.8966 39.0531 25.9956 39.1521C26.0946 39.2484 26.1441 39.3702 26.1441 39.5173C26.1441 39.6618 26.0946 39.7822 25.9956 39.8786C25.8966 39.9749 25.7615 40.023 25.5902 40.023C25.4163 40.023 25.2799 39.9749 25.1808 39.8786C25.0845 39.7822 25.0364 39.6618 25.0364 39.5173ZM28.167 38.835V45H27.1957V38.835H28.167ZM31.1412 45.0803C30.8201 45.0803 30.5297 45.0281 30.2702 44.9237C30.0133 44.8167 29.7939 44.6682 29.6119 44.4782C29.4327 44.2882 29.2949 44.0648 29.1985 43.8079C29.1022 43.5511 29.054 43.2741 29.054 42.9771V42.8166C29.054 42.4767 29.1035 42.169 29.2025 41.8934C29.3016 41.6178 29.4394 41.3823 29.616 41.187C29.7926 40.989 30.0013 40.8378 30.2421 40.7335C30.4829 40.6291 30.7438 40.5769 31.0248 40.5769C31.3351 40.5769 31.6067 40.6291 31.8395 40.7335C32.0723 40.8378 32.265 40.985 32.4175 41.175C32.5727 41.3623 32.6878 41.5857 32.7627 41.8453C32.8403 42.1048 32.8791 42.3911 32.8791 42.7042V43.1176H29.5236V42.4232H31.9238V42.347C31.9185 42.173 31.8837 42.0098 31.8195 41.8573C31.7579 41.7048 31.6629 41.5817 31.5345 41.488C31.4061 41.3944 31.2348 41.3476 31.0207 41.3476C30.8602 41.3476 30.717 41.3823 30.5913 41.4519C30.4682 41.5188 30.3652 41.6165 30.2822 41.7449C30.1993 41.8733 30.1351 42.0285 30.0896 42.2105C30.0468 42.3898 30.0254 42.5918 30.0254 42.8166V42.9771C30.0254 43.1671 30.0508 43.3437 30.1016 43.5069C30.1551 43.6675 30.2327 43.8079 30.3344 43.9283C30.4361 44.0488 30.5592 44.1437 30.7037 44.2133C30.8482 44.2802 31.0127 44.3137 31.1973 44.3137C31.4301 44.3137 31.6375 44.2668 31.8195 44.1732C32.0014 44.0795 32.1593 43.9471 32.2931 43.7758L32.8028 44.2695C32.7092 44.406 32.5874 44.5371 32.4376 44.6629C32.2877 44.7859 32.1044 44.8863 31.8877 44.9639C31.6736 45.0415 31.4248 45.0803 31.1412 45.0803ZM36.0699 43.824C36.0699 43.7277 36.0459 43.6407 35.9977 43.5631C35.9495 43.4828 35.8572 43.4106 35.7208 43.3464C35.587 43.2821 35.389 43.2233 35.1267 43.1698C34.8966 43.1189 34.6852 43.0587 34.4926 42.9892C34.3026 42.9169 34.1394 42.8299 34.0029 42.7283C33.8664 42.6266 33.7607 42.5062 33.6858 42.367C33.6109 42.2279 33.5734 42.0673 33.5734 41.8854C33.5734 41.7088 33.6122 41.5416 33.6898 41.3837C33.7674 41.2258 33.8785 41.0867 34.023 40.9663C34.1675 40.8458 34.3427 40.7509 34.5488 40.6813C34.7575 40.6117 34.9903 40.5769 35.2471 40.5769C35.611 40.5769 35.9228 40.6385 36.1823 40.7616C36.4445 40.882 36.6452 41.0465 36.7844 41.2552C36.9235 41.4613 36.9931 41.6941 36.9931 41.9536H36.0258C36.0258 41.8386 35.9964 41.7315 35.9375 41.6325C35.8813 41.5308 35.7957 41.4492 35.6806 41.3877C35.5656 41.3235 35.4211 41.2914 35.2471 41.2914C35.0812 41.2914 34.9434 41.3181 34.8337 41.3716C34.7267 41.4225 34.6464 41.4894 34.5929 41.5723C34.5421 41.6553 34.5166 41.7462 34.5166 41.8453C34.5166 41.9175 34.53 41.9831 34.5568 42.0419C34.5862 42.0981 34.6344 42.1503 34.7013 42.1985C34.7682 42.2439 34.8591 42.2868 34.9742 42.3269C35.0919 42.367 35.2391 42.4058 35.4157 42.4433C35.7475 42.5129 36.0325 42.6025 36.2706 42.7122C36.5114 42.8192 36.6961 42.9584 36.8245 43.1296C36.9529 43.2982 37.0172 43.5123 37.0172 43.7718C37.0172 43.9645 36.9757 44.1411 36.8927 44.3016C36.8125 44.4595 36.6947 44.5973 36.5395 44.715C36.3843 44.8301 36.1984 44.9197 35.9816 44.9839C35.7676 45.0482 35.5268 45.0803 35.2592 45.0803C34.8658 45.0803 34.5327 45.0107 34.2598 44.8716C33.9868 44.7297 33.7795 44.5491 33.6377 44.3297C33.4985 44.1076 33.4289 43.8775 33.4289 43.6394H34.3641C34.3748 43.8186 34.4243 43.9618 34.5126 44.0688C34.6036 44.1732 34.716 44.2494 34.8498 44.2976C34.9862 44.3431 35.1267 44.3658 35.2712 44.3658C35.4451 44.3658 35.591 44.3431 35.7087 44.2976C35.8264 44.2494 35.9161 44.1852 35.9776 44.105C36.0392 44.022 36.0699 43.9283 36.0699 43.824ZM39.8548 40.6572V41.3636H37.4065V40.6572H39.8548ZM38.1129 39.5936H39.0802V43.7999C39.0802 43.9337 39.0989 44.0367 39.1364 44.109C39.1765 44.1785 39.2314 44.2254 39.3009 44.2494C39.3705 44.2735 39.4521 44.2856 39.5458 44.2856C39.6127 44.2856 39.6769 44.2816 39.7384 44.2735C39.8 44.2655 39.8495 44.2575 39.8869 44.2494L39.891 44.988C39.8107 45.012 39.717 45.0334 39.61 45.0522C39.5056 45.0709 39.3852 45.0803 39.2488 45.0803C39.0267 45.0803 38.83 45.0415 38.6588 44.9639C38.4875 44.8836 38.3537 44.7538 38.2574 44.5746C38.1611 44.3953 38.1129 44.1571 38.1129 43.8601V39.5936ZM40.3204 42.8768V42.7845C40.3204 42.4714 40.3659 42.1811 40.4569 41.9135C40.5479 41.6432 40.679 41.4091 40.8502 41.2111C41.0241 41.0104 41.2355 40.8552 41.4844 40.7455C41.7359 40.6331 42.0195 40.5769 42.3353 40.5769C42.6537 40.5769 42.9373 40.6331 43.1862 40.7455C43.4377 40.8552 43.6504 41.0104 43.8244 41.2111C43.9983 41.4091 44.1307 41.6432 44.2217 41.9135C44.3127 42.1811 44.3582 42.4714 44.3582 42.7845V42.8768C44.3582 43.1898 44.3127 43.4802 44.2217 43.7477C44.1307 44.0153 43.9983 44.2494 43.8244 44.4501C43.6504 44.6481 43.439 44.8033 43.1902 44.9157C42.9413 45.0254 42.6591 45.0803 42.3433 45.0803C42.0249 45.0803 41.7399 45.0254 41.4884 44.9157C41.2396 44.8033 41.0282 44.6481 40.8542 44.4501C40.6803 44.2494 40.5479 44.0153 40.4569 43.7477C40.3659 43.4802 40.3204 43.1898 40.3204 42.8768ZM41.2877 42.7845V42.8768C41.2877 43.0721 41.3078 43.2567 41.3479 43.4307C41.3881 43.6046 41.4509 43.7571 41.5366 43.8882C41.6222 44.0193 41.7319 44.1223 41.8657 44.1973C41.9995 44.2722 42.1587 44.3096 42.3433 44.3096C42.5226 44.3096 42.6778 44.2722 42.8089 44.1973C42.9427 44.1223 43.0524 44.0193 43.138 43.8882C43.2236 43.7571 43.2865 43.6046 43.3267 43.4307C43.3695 43.2567 43.3909 43.0721 43.3909 42.8768V42.7845C43.3909 42.5918 43.3695 42.4098 43.3267 42.2386C43.2865 42.0647 43.2223 41.9108 43.134 41.777C43.0484 41.6432 42.9387 41.5389 42.8049 41.464C42.6738 41.3864 42.5172 41.3476 42.3353 41.3476C42.1533 41.3476 41.9955 41.3864 41.8617 41.464C41.7306 41.5389 41.6222 41.6432 41.5366 41.777C41.4509 41.9108 41.3881 42.0647 41.3479 42.2386C41.3078 42.4098 41.2877 42.5918 41.2877 42.7845ZM46.1282 41.5844V45H45.1609V40.6572H46.072L46.1282 41.5844ZM45.9556 42.6681L45.6425 42.664C45.6452 42.3563 45.688 42.074 45.771 41.8172C45.8566 41.5603 45.9743 41.3395 46.1242 41.1549C46.2767 40.9703 46.4587 40.8285 46.67 40.7295C46.8814 40.6278 47.1169 40.5769 47.3765 40.5769C47.5852 40.5769 47.7738 40.6064 47.9424 40.6652C48.1136 40.7214 48.2595 40.8137 48.3799 40.9422C48.503 41.0706 48.5966 41.2379 48.6608 41.4439C48.725 41.6472 48.7572 41.8974 48.7572 42.1944V45H47.7858V42.1904C47.7858 41.9817 47.7551 41.8172 47.6935 41.6967C47.6347 41.5737 47.5477 41.4867 47.4326 41.4359C47.3203 41.3823 47.1798 41.3556 47.0112 41.3556C46.8453 41.3556 46.6968 41.3904 46.5657 41.4599C46.4346 41.5295 46.3235 41.6245 46.2326 41.7449C46.1443 41.8653 46.076 42.0045 46.0279 42.1623C45.9797 42.3202 45.9556 42.4888 45.9556 42.6681ZM51.659 45.0803C51.3379 45.0803 51.0476 45.0281 50.7881 44.9237C50.5312 44.8167 50.3118 44.6682 50.1298 44.4782C49.9506 44.2882 49.8128 44.0648 49.7164 43.8079C49.6201 43.5511 49.5719 43.2741 49.5719 42.9771V42.8166C49.5719 42.4767 49.6214 42.169 49.7204 41.8934C49.8194 41.6178 49.9572 41.3823 50.1338 41.187C50.3104 40.989 50.5192 40.8378 50.76 40.7335C51.0008 40.6291 51.2617 40.5769 51.5426 40.5769C51.853 40.5769 52.1246 40.6291 52.3574 40.7335C52.5902 40.8378 52.7829 40.985 52.9354 41.175C53.0906 41.3623 53.2056 41.5857 53.2806 41.8453C53.3582 42.1048 53.397 42.3911 53.397 42.7042V43.1176H50.0415V42.4232H52.4417V42.347C52.4364 42.173 52.4016 42.0098 52.3374 41.8573C52.2758 41.7048 52.1808 41.5817 52.0524 41.488C51.9239 41.3944 51.7527 41.3476 51.5386 41.3476C51.3781 41.3476 51.2349 41.3823 51.1092 41.4519C50.9861 41.5188 50.8831 41.6165 50.8001 41.7449C50.7172 41.8733 50.6529 42.0285 50.6075 42.2105C50.5646 42.3898 50.5432 42.5918 50.5432 42.8166V42.9771C50.5432 43.1671 50.5687 43.3437 50.6195 43.5069C50.673 43.6675 50.7506 43.8079 50.8523 43.9283C50.954 44.0488 51.0771 44.1437 51.2216 44.2133C51.366 44.2802 51.5306 44.3137 51.7152 44.3137C51.948 44.3137 52.1554 44.2668 52.3374 44.1732C52.5193 44.0795 52.6772 43.9471 52.811 43.7758L53.3207 44.2695C53.2271 44.406 53.1053 44.5371 52.9555 44.6629C52.8056 44.7859 52.6223 44.8863 52.4056 44.9639C52.1915 45.0415 51.9427 45.0803 51.659 45.0803Z" fill="white"/>
<defs>
<linearGradient id="paint0_linear_5190_35933" x1="-51.5" y1="-1" x2="124.5" y2="44.5" gradientUnits="userSpaceOnUse">
<stop stop-color="#BF8901"/>
<stop offset="0.460213" stop-color="#FBC701"/>
<stop offset="0.785193" stop-color="#B07B01"/>
<stop offset="1" stop-color="#DAA501"/>
</linearGradient>
</defs>
</svg>
