<svg width="71" height="69" viewBox="0 0 71 69" fill="none" xmlns="http://www.w3.org/2000/svg">
<circle cx="34.5" cy="34.5" r="34.5" fill="#0056D2"/>
<circle cx="34.5" cy="34.5" r="29.5" stroke="url(#paint0_linear_5190_35954)" stroke-width="4"/>
<path d="M29.9654 23.1436V35H28.0096V25.4646L25.1125 26.4465V24.8316L29.7301 23.1436H29.9654ZM39.1113 32.6222C39.1113 32.4275 39.0626 32.2516 38.9652 32.0947C38.8678 31.9324 38.6812 31.7864 38.4053 31.6565C38.1347 31.5267 37.7344 31.4077 37.2042 31.2995C36.7389 31.1967 36.3115 31.0749 35.922 30.9343C35.5379 30.7882 35.2079 30.6124 34.9319 30.4068C34.656 30.2012 34.4423 29.9577 34.2908 29.6764C34.1393 29.3951 34.0636 29.0705 34.0636 28.7026C34.0636 28.3455 34.1421 28.0074 34.2989 27.6882C34.4558 27.369 34.6804 27.0876 34.9725 26.8442C35.2647 26.6007 35.619 26.4087 36.0356 26.268C36.4576 26.1273 36.9283 26.057 37.4477 26.057C38.1834 26.057 38.8137 26.1814 39.3385 26.4303C39.8687 26.6738 40.2745 27.0065 40.5558 27.4285C40.8371 27.8451 40.9778 28.3158 40.9778 28.8405H39.022C39.022 28.6079 38.9625 28.3915 38.8435 28.1913C38.7299 27.9857 38.5567 27.8207 38.3241 27.6963C38.0915 27.5664 37.7993 27.5015 37.4477 27.5015C37.1122 27.5015 36.8336 27.5556 36.6118 27.6638C36.3954 27.7666 36.2331 27.9019 36.1249 28.0696C36.0221 28.2373 35.9707 28.4212 35.9707 28.6214C35.9707 28.7675 35.9977 28.9 36.0518 29.0191C36.1113 29.1327 36.2087 29.2382 36.344 29.3356C36.4792 29.4275 36.6632 29.5141 36.8958 29.5953C37.1339 29.6764 37.4314 29.7549 37.7885 29.8306C38.4594 29.9713 39.0355 30.1525 39.517 30.3743C40.004 30.5907 40.3773 30.8721 40.6369 31.2183C40.8966 31.5591 41.0265 31.992 41.0265 32.5167C41.0265 32.9063 40.9426 33.2633 40.7749 33.5879C40.6126 33.9071 40.3746 34.1858 40.0608 34.4238C39.747 34.6565 39.371 34.8377 38.9327 34.9675C38.4999 35.0974 38.013 35.1623 37.472 35.1623C36.6767 35.1623 36.0031 35.0216 35.4513 34.7403C34.8995 34.4536 34.4802 34.0884 34.1934 33.6448C33.9121 33.1957 33.7715 32.7304 33.7715 32.2489H35.6623C35.6839 32.6114 35.784 32.9009 35.9626 33.1173C36.1465 33.3283 36.3737 33.4825 36.6442 33.5798C36.9202 33.6718 37.2042 33.7178 37.4963 33.7178C37.848 33.7178 38.1429 33.6718 38.3809 33.5798C38.619 33.4825 38.8002 33.3526 38.9246 33.1903C39.0491 33.0226 39.1113 32.8332 39.1113 32.6222ZM46.7639 26.2193V27.6476H41.8137V26.2193H46.7639ZM43.2419 24.0688H45.1977V32.5735C45.1977 32.8441 45.2356 33.0523 45.3113 33.1984C45.3925 33.3391 45.5034 33.4338 45.644 33.4825C45.7847 33.5311 45.9497 33.5555 46.1391 33.5555C46.2743 33.5555 46.4042 33.5474 46.5286 33.5311C46.653 33.5149 46.7531 33.4987 46.8289 33.4825L46.837 34.9757C46.6747 35.0243 46.4853 35.0676 46.2689 35.1055C46.0579 35.1434 45.8145 35.1623 45.5385 35.1623C45.0895 35.1623 44.6919 35.0839 44.3456 34.927C43.9994 34.7647 43.7288 34.5023 43.5341 34.1398C43.3393 33.7773 43.2419 33.2958 43.2419 32.6953V24.0688ZM18.3496 39.1561H19.2486L20.9384 43.6634L22.6241 39.1561H23.5232L21.2916 45H20.5772L18.3496 39.1561ZM17.9402 39.1561H18.7951L18.9436 43.0574V45H17.9402V39.1561ZM23.0777 39.1561H23.9366V45H22.9292V43.0574L23.0777 39.1561ZM26.0719 40.6572V45H25.1006V40.6572H26.0719ZM25.0364 39.5173C25.0364 39.3702 25.0845 39.2484 25.1808 39.1521C25.2799 39.0531 25.4163 39.0036 25.5902 39.0036C25.7615 39.0036 25.8966 39.0531 25.9956 39.1521C26.0946 39.2484 26.1441 39.3702 26.1441 39.5173C26.1441 39.6618 26.0946 39.7822 25.9956 39.8786C25.8966 39.9749 25.7615 40.023 25.5902 40.023C25.4163 40.023 25.2799 39.9749 25.1808 39.8786C25.0845 39.7822 25.0364 39.6618 25.0364 39.5173ZM28.167 38.835V45H27.1957V38.835H28.167ZM31.1412 45.0803C30.8201 45.0803 30.5297 45.0281 30.2702 44.9237C30.0133 44.8167 29.7939 44.6682 29.6119 44.4782C29.4327 44.2882 29.2949 44.0648 29.1985 43.8079C29.1022 43.5511 29.054 43.2741 29.054 42.9771V42.8166C29.054 42.4767 29.1035 42.169 29.2025 41.8934C29.3016 41.6178 29.4394 41.3823 29.616 41.187C29.7926 40.989 30.0013 40.8378 30.2421 40.7335C30.4829 40.6291 30.7438 40.5769 31.0248 40.5769C31.3351 40.5769 31.6067 40.6291 31.8395 40.7335C32.0723 40.8378 32.265 40.985 32.4175 41.175C32.5727 41.3623 32.6878 41.5857 32.7627 41.8453C32.8403 42.1048 32.8791 42.3911 32.8791 42.7042V43.1176H29.5236V42.4232H31.9238V42.347C31.9185 42.173 31.8837 42.0098 31.8195 41.8573C31.7579 41.7048 31.6629 41.5817 31.5345 41.488C31.4061 41.3944 31.2348 41.3476 31.0207 41.3476C30.8602 41.3476 30.717 41.3823 30.5913 41.4519C30.4682 41.5188 30.3652 41.6165 30.2822 41.7449C30.1993 41.8733 30.1351 42.0285 30.0896 42.2105C30.0468 42.3898 30.0254 42.5918 30.0254 42.8166V42.9771C30.0254 43.1671 30.0508 43.3437 30.1016 43.5069C30.1551 43.6675 30.2327 43.8079 30.3344 43.9283C30.4361 44.0488 30.5592 44.1437 30.7037 44.2133C30.8482 44.2802 31.0127 44.3137 31.1973 44.3137C31.4301 44.3137 31.6375 44.2668 31.8195 44.1732C32.0014 44.0795 32.1593 43.9471 32.2931 43.7758L32.8028 44.2695C32.7092 44.406 32.5874 44.5371 32.4376 44.6629C32.2877 44.7859 32.1044 44.8863 31.8877 44.9639C31.6736 45.0415 31.4248 45.0803 31.1412 45.0803ZM36.0699 43.824C36.0699 43.7277 36.0459 43.6407 35.9977 43.5631C35.9495 43.4828 35.8572 43.4106 35.7208 43.3464C35.587 43.2821 35.389 43.2233 35.1267 43.1698C34.8966 43.1189 34.6852 43.0587 34.4926 42.9892C34.3026 42.9169 34.1394 42.8299 34.0029 42.7283C33.8664 42.6266 33.7607 42.5062 33.6858 42.367C33.6109 42.2279 33.5734 42.0673 33.5734 41.8854C33.5734 41.7088 33.6122 41.5416 33.6898 41.3837C33.7674 41.2258 33.8785 41.0867 34.023 40.9663C34.1675 40.8458 34.3427 40.7509 34.5488 40.6813C34.7575 40.6117 34.9903 40.5769 35.2471 40.5769C35.611 40.5769 35.9228 40.6385 36.1823 40.7616C36.4445 40.882 36.6452 41.0465 36.7844 41.2552C36.9235 41.4613 36.9931 41.6941 36.9931 41.9536H36.0258C36.0258 41.8386 35.9964 41.7315 35.9375 41.6325C35.8813 41.5308 35.7957 41.4492 35.6806 41.3877C35.5656 41.3235 35.4211 41.2914 35.2471 41.2914C35.0812 41.2914 34.9434 41.3181 34.8337 41.3716C34.7267 41.4225 34.6464 41.4894 34.5929 41.5723C34.5421 41.6553 34.5166 41.7462 34.5166 41.8453C34.5166 41.9175 34.53 41.9831 34.5568 42.0419C34.5862 42.0981 34.6344 42.1503 34.7013 42.1985C34.7682 42.2439 34.8591 42.2868 34.9742 42.3269C35.0919 42.367 35.2391 42.4058 35.4157 42.4433C35.7475 42.5129 36.0325 42.6025 36.2706 42.7122C36.5114 42.8192 36.6961 42.9584 36.8245 43.1296C36.9529 43.2982 37.0172 43.5123 37.0172 43.7718C37.0172 43.9645 36.9757 44.1411 36.8927 44.3016C36.8125 44.4595 36.6947 44.5973 36.5395 44.715C36.3843 44.8301 36.1984 44.9197 35.9816 44.9839C35.7676 45.0482 35.5268 45.0803 35.2592 45.0803C34.8658 45.0803 34.5327 45.0107 34.2598 44.8716C33.9868 44.7297 33.7795 44.5491 33.6377 44.3297C33.4985 44.1076 33.4289 43.8775 33.4289 43.6394H34.3641C34.3748 43.8186 34.4243 43.9618 34.5126 44.0688C34.6036 44.1732 34.716 44.2494 34.8498 44.2976C34.9862 44.3431 35.1267 44.3658 35.2712 44.3658C35.4451 44.3658 35.591 44.3431 35.7087 44.2976C35.8264 44.2494 35.9161 44.1852 35.9776 44.105C36.0392 44.022 36.0699 43.9283 36.0699 43.824ZM39.8548 40.6572V41.3636H37.4065V40.6572H39.8548ZM38.1129 39.5936H39.0802V43.7999C39.0802 43.9337 39.0989 44.0367 39.1364 44.109C39.1765 44.1785 39.2314 44.2254 39.3009 44.2494C39.3705 44.2735 39.4521 44.2856 39.5458 44.2856C39.6127 44.2856 39.6769 44.2816 39.7384 44.2735C39.8 44.2655 39.8495 44.2575 39.8869 44.2494L39.891 44.988C39.8107 45.012 39.717 45.0334 39.61 45.0522C39.5056 45.0709 39.3852 45.0803 39.2488 45.0803C39.0267 45.0803 38.83 45.0415 38.6588 44.9639C38.4875 44.8836 38.3537 44.7538 38.2574 44.5746C38.1611 44.3953 38.1129 44.1571 38.1129 43.8601V39.5936ZM40.3204 42.8768V42.7845C40.3204 42.4714 40.3659 42.1811 40.4569 41.9135C40.5479 41.6432 40.679 41.4091 40.8502 41.2111C41.0241 41.0104 41.2355 40.8552 41.4844 40.7455C41.7359 40.6331 42.0195 40.5769 42.3353 40.5769C42.6537 40.5769 42.9373 40.6331 43.1862 40.7455C43.4377 40.8552 43.6504 41.0104 43.8244 41.2111C43.9983 41.4091 44.1307 41.6432 44.2217 41.9135C44.3127 42.1811 44.3582 42.4714 44.3582 42.7845V42.8768C44.3582 43.1898 44.3127 43.4802 44.2217 43.7477C44.1307 44.0153 43.9983 44.2494 43.8244 44.4501C43.6504 44.6481 43.439 44.8033 43.1902 44.9157C42.9413 45.0254 42.6591 45.0803 42.3433 45.0803C42.0249 45.0803 41.7399 45.0254 41.4884 44.9157C41.2396 44.8033 41.0282 44.6481 40.8542 44.4501C40.6803 44.2494 40.5479 44.0153 40.4569 43.7477C40.3659 43.4802 40.3204 43.1898 40.3204 42.8768ZM41.2877 42.7845V42.8768C41.2877 43.0721 41.3078 43.2567 41.3479 43.4307C41.3881 43.6046 41.4509 43.7571 41.5366 43.8882C41.6222 44.0193 41.7319 44.1223 41.8657 44.1973C41.9995 44.2722 42.1587 44.3096 42.3433 44.3096C42.5226 44.3096 42.6778 44.2722 42.8089 44.1973C42.9427 44.1223 43.0524 44.0193 43.138 43.8882C43.2236 43.7571 43.2865 43.6046 43.3267 43.4307C43.3695 43.2567 43.3909 43.0721 43.3909 42.8768V42.7845C43.3909 42.5918 43.3695 42.4098 43.3267 42.2386C43.2865 42.0647 43.2223 41.9108 43.134 41.777C43.0484 41.6432 42.9387 41.5389 42.8049 41.464C42.6738 41.3864 42.5172 41.3476 42.3353 41.3476C42.1533 41.3476 41.9955 41.3864 41.8617 41.464C41.7306 41.5389 41.6222 41.6432 41.5366 41.777C41.4509 41.9108 41.3881 42.0647 41.3479 42.2386C41.3078 42.4098 41.2877 42.5918 41.2877 42.7845ZM46.1282 41.5844V45H45.1609V40.6572H46.072L46.1282 41.5844ZM45.9556 42.6681L45.6425 42.664C45.6452 42.3563 45.688 42.074 45.771 41.8172C45.8566 41.5603 45.9743 41.3395 46.1242 41.1549C46.2767 40.9703 46.4587 40.8285 46.67 40.7295C46.8814 40.6278 47.1169 40.5769 47.3765 40.5769C47.5852 40.5769 47.7738 40.6064 47.9424 40.6652C48.1136 40.7214 48.2595 40.8137 48.3799 40.9422C48.503 41.0706 48.5966 41.2379 48.6608 41.4439C48.725 41.6472 48.7572 41.8974 48.7572 42.1944V45H47.7858V42.1904C47.7858 41.9817 47.7551 41.8172 47.6935 41.6967C47.6347 41.5737 47.5477 41.4867 47.4326 41.4359C47.3203 41.3823 47.1798 41.3556 47.0112 41.3556C46.8453 41.3556 46.6968 41.3904 46.5657 41.4599C46.4346 41.5295 46.3235 41.6245 46.2326 41.7449C46.1443 41.8653 46.076 42.0045 46.0279 42.1623C45.9797 42.3202 45.9556 42.4888 45.9556 42.6681ZM51.659 45.0803C51.3379 45.0803 51.0476 45.0281 50.7881 44.9237C50.5312 44.8167 50.3118 44.6682 50.1298 44.4782C49.9506 44.2882 49.8128 44.0648 49.7164 43.8079C49.6201 43.5511 49.5719 43.2741 49.5719 42.9771V42.8166C49.5719 42.4767 49.6214 42.169 49.7204 41.8934C49.8194 41.6178 49.9572 41.3823 50.1338 41.187C50.3104 40.989 50.5192 40.8378 50.76 40.7335C51.0008 40.6291 51.2617 40.5769 51.5426 40.5769C51.853 40.5769 52.1246 40.6291 52.3574 40.7335C52.5902 40.8378 52.7829 40.985 52.9354 41.175C53.0906 41.3623 53.2056 41.5857 53.2806 41.8453C53.3582 42.1048 53.397 42.3911 53.397 42.7042V43.1176H50.0415V42.4232H52.4417V42.347C52.4364 42.173 52.4016 42.0098 52.3374 41.8573C52.2758 41.7048 52.1808 41.5817 52.0524 41.488C51.9239 41.3944 51.7527 41.3476 51.5386 41.3476C51.3781 41.3476 51.2349 41.3823 51.1092 41.4519C50.9861 41.5188 50.8831 41.6165 50.8001 41.7449C50.7172 41.8733 50.6529 42.0285 50.6075 42.2105C50.5646 42.3898 50.5432 42.5918 50.5432 42.8166V42.9771C50.5432 43.1671 50.5687 43.3437 50.6195 43.5069C50.673 43.6675 50.7506 43.8079 50.8523 43.9283C50.954 44.0488 51.0771 44.1437 51.2216 44.2133C51.366 44.2802 51.5306 44.3137 51.7152 44.3137C51.948 44.3137 52.1554 44.2668 52.3374 44.1732C52.5193 44.0795 52.6772 43.9471 52.811 43.7758L53.3207 44.2695C53.2271 44.406 53.1053 44.5371 52.9555 44.6629C52.8056 44.7859 52.6223 44.8863 52.4056 44.9639C52.1915 45.0415 51.9427 45.0803 51.659 45.0803Z" fill="white"/>
<defs>
<linearGradient id="paint0_linear_5190_35954" x1="-51.5" y1="-1" x2="124.5" y2="44.5" gradientUnits="userSpaceOnUse">
<stop stop-color="#BF8901"/>
<stop offset="0.460213" stop-color="#FBC701"/>
<stop offset="0.785193" stop-color="#B07B01"/>
<stop offset="1" stop-color="#DAA501"/>
</linearGradient>
</defs>
</svg>
