<svg xmlns="http://www.w3.org/2000/svg" xmlns:xlink="http://www.w3.org/1999/xlink" version="1.1" id="Layer_1" x="0px" y="0px" style="enable-background:new 0 0 1080 1080;" xml:space="preserve" viewBox="57.1 200.25 965.78 679.5">
<style type="text/css">
	.st0{opacity:0.76;}
	.st1{fill-rule:evenodd;clip-rule:evenodd;fill:url(#SVGID_1_);}
	.st2{fill-rule:evenodd;clip-rule:evenodd;fill:url(#SVGID_2_);}
	.st3{fill-rule:evenodd;clip-rule:evenodd;fill:url(#SVGID_3_);}
	.st4{fill-rule:evenodd;clip-rule:evenodd;fill:url(#SVGID_4_);}
	.st5{fill-rule:evenodd;clip-rule:evenodd;fill:url(#SVGID_5_);}
	.st6{fill-rule:evenodd;clip-rule:evenodd;fill:url(#SVGID_6_);}
	.st7{fill-rule:evenodd;clip-rule:evenodd;fill:url(#SVGID_7_);}
	.st8{fill-rule:evenodd;clip-rule:evenodd;fill:url(#SVGID_8_);}
	.st9{fill-rule:evenodd;clip-rule:evenodd;fill:url(#SVGID_9_);}
	.st10{fill-rule:evenodd;clip-rule:evenodd;fill:url(#SVGID_10_);}
	.st11{fill-rule:evenodd;clip-rule:evenodd;fill:url(#SVGID_11_);}
	.st12{fill-rule:evenodd;clip-rule:evenodd;fill:url(#SVGID_12_);}
	.st13{fill-rule:evenodd;clip-rule:evenodd;fill:url(#SVGID_13_);}
	.st14{fill-rule:evenodd;clip-rule:evenodd;fill:url(#SVGID_14_);}
	.st15{fill-rule:evenodd;clip-rule:evenodd;fill:url(#SVGID_15_);}
	.st16{fill-rule:evenodd;clip-rule:evenodd;fill:url(#SVGID_16_);}
	.st17{fill-rule:evenodd;clip-rule:evenodd;fill:url(#SVGID_17_);}
	.st18{fill-rule:evenodd;clip-rule:evenodd;fill:url(#SVGID_18_);}
	.st19{fill-rule:evenodd;clip-rule:evenodd;fill:url(#SVGID_19_);}
	.st20{fill-rule:evenodd;clip-rule:evenodd;fill:url(#SVGID_20_);}
	.st21{fill-rule:evenodd;clip-rule:evenodd;fill:url(#SVGID_21_);}
	.st22{fill-rule:evenodd;clip-rule:evenodd;fill:url(#SVGID_22_);}
	.st23{fill-rule:evenodd;clip-rule:evenodd;fill:url(#SVGID_23_);}
	.st24{fill-rule:evenodd;clip-rule:evenodd;fill:url(#SVGID_24_);}
	.st25{fill-rule:evenodd;clip-rule:evenodd;fill:url(#SVGID_25_);}
	.st26{fill-rule:evenodd;clip-rule:evenodd;fill:url(#SVGID_26_);}
	.st27{fill-rule:evenodd;clip-rule:evenodd;fill:url(#SVGID_27_);}
	.st28{fill-rule:evenodd;clip-rule:evenodd;fill:url(#SVGID_28_);}
	.st29{fill-rule:evenodd;clip-rule:evenodd;fill:url(#SVGID_29_);}
	.st30{fill-rule:evenodd;clip-rule:evenodd;fill:url(#SVGID_30_);}
	.st31{fill-rule:evenodd;clip-rule:evenodd;fill:url(#SVGID_31_);}
	.st32{fill-rule:evenodd;clip-rule:evenodd;fill:url(#SVGID_32_);}
	.st33{fill-rule:evenodd;clip-rule:evenodd;fill:url(#SVGID_33_);}
	.st34{fill-rule:evenodd;clip-rule:evenodd;fill:url(#SVGID_34_);}
	.st35{fill-rule:evenodd;clip-rule:evenodd;fill:url(#SVGID_35_);}
	.st36{fill-rule:evenodd;clip-rule:evenodd;fill:url(#SVGID_36_);}
	.st37{fill-rule:evenodd;clip-rule:evenodd;fill:url(#SVGID_37_);}
	.st38{fill-rule:evenodd;clip-rule:evenodd;fill:url(#SVGID_38_);}
	.st39{fill-rule:evenodd;clip-rule:evenodd;fill:url(#SVGID_39_);}
	.st40{fill-rule:evenodd;clip-rule:evenodd;fill:url(#SVGID_40_);}
	.st41{fill-rule:evenodd;clip-rule:evenodd;fill:url(#SVGID_41_);}
	.st42{fill-rule:evenodd;clip-rule:evenodd;fill:url(#SVGID_42_);}
	.st43{fill-rule:evenodd;clip-rule:evenodd;fill:url(#SVGID_43_);}
	.st44{fill-rule:evenodd;clip-rule:evenodd;fill:url(#SVGID_44_);}
	.st45{fill-rule:evenodd;clip-rule:evenodd;fill:url(#SVGID_45_);}
	.st46{fill-rule:evenodd;clip-rule:evenodd;fill:url(#SVGID_46_);}
	.st47{fill-rule:evenodd;clip-rule:evenodd;fill:url(#SVGID_47_);}
	.st48{fill-rule:evenodd;clip-rule:evenodd;fill:url(#SVGID_48_);}
	.st49{fill-rule:evenodd;clip-rule:evenodd;fill:url(#SVGID_49_);}
	.st50{fill-rule:evenodd;clip-rule:evenodd;fill:url(#SVGID_50_);}
	.st51{fill-rule:evenodd;clip-rule:evenodd;fill:url(#SVGID_51_);}
	.st52{fill-rule:evenodd;clip-rule:evenodd;fill:url(#SVGID_52_);}
	.st53{fill-rule:evenodd;clip-rule:evenodd;fill:url(#SVGID_53_);}
	.st54{fill-rule:evenodd;clip-rule:evenodd;fill:url(#SVGID_54_);}
	.st55{fill-rule:evenodd;clip-rule:evenodd;fill:url(#SVGID_55_);}
	.st56{fill-rule:evenodd;clip-rule:evenodd;fill:url(#SVGID_56_);}
	.st57{fill-rule:evenodd;clip-rule:evenodd;fill:url(#SVGID_57_);}
	.st58{fill-rule:evenodd;clip-rule:evenodd;fill:url(#SVGID_58_);}
	.st59{fill-rule:evenodd;clip-rule:evenodd;fill:url(#SVGID_59_);}
	.st60{fill-rule:evenodd;clip-rule:evenodd;fill:url(#SVGID_60_);}
	.st61{fill:url(#SVGID_61_);}
	.st62{fill:url(#SVGID_62_);}
	.st63{fill:url(#SVGID_63_);}
	.st64{fill:url(#SVGID_64_);}
	.st65{fill:url(#SVGID_65_);}
	.st66{fill:url(#SVGID_66_);}
	.st67{fill:url(#SVGID_67_);}
	.st68{fill:url(#SVGID_68_);}
	.st69{fill:url(#SVGID_69_);}
	.st70{fill:url(#SVGID_70_);}
	.st71{fill:url(#SVGID_71_);}
	.st72{fill:url(#SVGID_72_);}
	.st73{fill:url(#SVGID_73_);}
	.st74{fill:url(#SVGID_74_);}
	.st75{fill:url(#SVGID_75_);}
	.st76{fill:url(#SVGID_76_);}
	.st77{fill:url(#SVGID_77_);}
	.st78{fill:url(#SVGID_78_);}
	.st79{fill:url(#SVGID_79_);}
	.st80{fill:url(#SVGID_80_);}
	.st81{fill:url(#SVGID_81_);}
	.st82{fill:url(#SVGID_82_);}
	.st83{fill:url(#SVGID_83_);}
	.st84{fill:url(#SVGID_84_);}
	.st85{fill:url(#SVGID_85_);}
	.st86{fill:url(#SVGID_86_);}
	.st87{fill:url(#SVGID_87_);}
	.st88{fill:url(#SVGID_88_);}
	.st89{fill:url(#SVGID_89_);}
	.st90{fill:url(#SVGID_90_);}
	.st91{fill:url(#SVGID_91_);}
	.st92{fill:url(#SVGID_92_);}
	.st93{fill:url(#SVGID_93_);}
	.st94{fill:url(#SVGID_94_);}
	.st95{fill:url(#SVGID_95_);}
	.st96{fill:url(#SVGID_96_);}
	.st97{fill:url(#SVGID_97_);}
	.st98{fill:url(#SVGID_98_);}
</style>
<g>
	<g class="st0">
		<linearGradient id="SVGID_1_" gradientUnits="userSpaceOnUse" x1="575.4744" y1="603.0623" x2="595.1971" y2="603.0623">
			<stop offset="0" style="stop-color:#C7A255"/>
			<stop offset="0.4274" style="stop-color:#FBF5BE"/>
			<stop offset="0.986" style="stop-color:#BC9641"/>
		</linearGradient>
		<path class="st1" d="M584.94,587.94c-2.75,0-5.02,0.92-6.8,2.75c-1.78,1.83-2.67,4.24-2.67,7.24c0,2.87,0.84,5.21,2.52,7    c1.69,1.8,3.69,2.69,6.01,2.69c2.14,0,3.91-0.83,5.34-2.47c-0.23,3.39-0.74,5.63-1.56,6.71c-0.81,1.08-1.79,1.62-2.96,1.62    c-0.92,0-1.66-0.27-2.22-0.81c-0.56-0.54-0.91-1.37-1.04-2.49l-5.49,0.61c0.4,2.46,1.31,4.31,2.73,5.54    c1.42,1.24,3.28,1.86,5.58,1.86c3.21,0,5.8-1.2,7.8-3.6c1.99-2.39,2.99-6.3,2.99-11.7c0-5.32-0.96-9.14-2.88-11.46    C590.4,589.1,587.93,587.94,584.94,587.94z M587.73,602.17c-0.74,0.86-1.66,1.29-2.74,1.29c-1.13,0-2.06-0.45-2.81-1.33    c-0.75-0.89-1.13-2.29-1.13-4.2c0-1.87,0.34-3.22,1.04-4.04c0.69-0.82,1.55-1.24,2.6-1.24c1.1,0,2.07,0.5,2.9,1.51    c0.84,1,1.26,2.42,1.26,4.24C588.84,600.05,588.47,601.31,587.73,602.17z"/>
		<linearGradient id="SVGID_2_" gradientUnits="userSpaceOnUse" x1="621.374" y1="603.0623" x2="641.0969" y2="603.0623">
			<stop offset="0" style="stop-color:#C7A255"/>
			<stop offset="0.4274" style="stop-color:#FBF5BE"/>
			<stop offset="0.986" style="stop-color:#BC9641"/>
		</linearGradient>
		<path class="st2" d="M630.84,587.94c-2.75,0-5.02,0.92-6.8,2.75c-1.78,1.83-2.67,4.24-2.67,7.24c0,2.87,0.84,5.21,2.52,7    c1.69,1.8,3.69,2.69,6.01,2.69c2.14,0,3.91-0.83,5.34-2.47c-0.23,3.39-0.74,5.63-1.56,6.71c-0.81,1.08-1.79,1.62-2.96,1.62    c-0.92,0-1.66-0.27-2.22-0.81c-0.56-0.54-0.91-1.37-1.04-2.49l-5.49,0.61c0.4,2.46,1.31,4.31,2.73,5.54    c1.42,1.24,3.28,1.86,5.58,1.86c3.21,0,5.8-1.2,7.8-3.6c2-2.39,2.99-6.3,2.99-11.7c0-5.32-0.96-9.14-2.88-11.46    C636.3,589.1,633.83,587.94,630.84,587.94z M633.63,602.17c-0.74,0.86-1.66,1.29-2.74,1.29c-1.13,0-2.06-0.45-2.81-1.33    c-0.75-0.89-1.13-2.29-1.13-4.2c0-1.87,0.34-3.22,1.04-4.04c0.69-0.82,1.55-1.24,2.6-1.24c1.1,0,2.07,0.5,2.9,1.51    c0.84,1,1.26,2.42,1.26,4.24C634.74,600.05,634.37,601.31,633.63,602.17z"/>
		<linearGradient id="SVGID_3_" gradientUnits="userSpaceOnUse" x1="597.8875" y1="602.8146" x2="619.0977" y2="602.8146">
			<stop offset="0" style="stop-color:#C7A255"/>
			<stop offset="0.4274" style="stop-color:#FBF5BE"/>
			<stop offset="0.986" style="stop-color:#BC9641"/>
		</linearGradient>
		<path class="st3" d="M615.42,587.98h-4.76l-12.78,18.79v4.93h12.05v5.94h5.49v-5.94h3.67v-4.95h-3.67V587.98z M609.94,606.76    h-6.75l6.75-10.09V606.76z"/>
		<linearGradient id="SVGID_4_" gradientUnits="userSpaceOnUse" x1="504.7621" y1="603.1448" x2="525.6822" y2="603.1448">
			<stop offset="0" style="stop-color:#C7A255"/>
			<stop offset="0.4274" style="stop-color:#FBF5BE"/>
			<stop offset="0.986" style="stop-color:#BC9641"/>
		</linearGradient>
		<path class="st4" d="M520.03,598.76c-1.75-1.99-3.82-2.98-6.22-2.98c-2.61,0-4.77,0.94-6.48,2.83c-1.71,1.89-2.56,4.66-2.56,8.29    c0,3.56,0.88,6.32,2.63,8.31c1.76,1.99,3.87,2.98,6.34,2.98c1.21,0,2.41-0.31,3.6-0.92c1.19-0.62,2.23-1.53,3.1-2.76v3.14h5.24    V588.1h-5.65V598.76z M518.66,612.06c-0.91,1.11-2.01,1.67-3.31,1.67c-1.64,0-2.91-0.74-3.82-2.23c-0.63-1.02-0.94-2.68-0.94-4.97    c0-2.13,0.46-3.73,1.36-4.81c0.91-1.07,2.03-1.61,3.37-1.61c1.38,0,2.51,0.54,3.4,1.63c0.89,1.09,1.33,2.86,1.33,5.33    C520.03,609.29,519.58,610.94,518.66,612.06z"/>
		<linearGradient id="SVGID_5_" gradientUnits="userSpaceOnUse" x1="489.947" y1="603.4133" x2="502.5323" y2="603.4133">
			<stop offset="0" style="stop-color:#C7A255"/>
			<stop offset="0.4274" style="stop-color:#FBF5BE"/>
			<stop offset="0.986" style="stop-color:#BC9641"/>
		</linearGradient>
		<path class="st5" d="M499.77,613.48c-0.38,0-0.7-0.1-0.96-0.28c-0.27-0.19-0.43-0.43-0.51-0.72c-0.07-0.29-0.11-1.31-0.11-3.07    v-8.67h3.88v-4.5h-3.88v-7.59l-5.65,3.34v4.25h-2.6v4.5h2.6v9.37c0,2.01,0.06,3.35,0.18,4.01c0.15,0.93,0.41,1.67,0.8,2.22    c0.38,0.54,0.98,0.99,1.8,1.33c0.82,0.34,1.73,0.52,2.75,0.52c1.66,0,3.15-0.28,4.46-0.85l-0.47-4.4    C501.06,613.3,500.3,613.48,499.77,613.48z"/>
		<linearGradient id="SVGID_6_" gradientUnits="userSpaceOnUse" x1="531.2047" y1="614.8223" x2="536.8582" y2="614.8223">
			<stop offset="0" style="stop-color:#C7A255"/>
			<stop offset="0.4274" style="stop-color:#FBF5BE"/>
			<stop offset="0.986" style="stop-color:#BC9641"/>
		</linearGradient>
		<rect x="531.2" y="612" class="st6" width="5.65" height="5.65"/>
		<linearGradient id="SVGID_7_" gradientUnits="userSpaceOnUse" x1="554.4641" y1="602.7938" x2="567.4194" y2="602.7938">
			<stop offset="0" style="stop-color:#C7A255"/>
			<stop offset="0.4274" style="stop-color:#FBF5BE"/>
			<stop offset="0.986" style="stop-color:#BC9641"/>
		</linearGradient>
		<path class="st7" d="M559.27,592.66c-1.73,1.36-3.33,2.27-4.81,2.75v5.16c2.8-0.93,5.24-2.37,7.3-4.3v21.39h5.65v-29.71h-4.59    C562.19,589.73,561,591.31,559.27,592.66z"/>
		<linearGradient id="SVGID_8_" gradientUnits="userSpaceOnUse" x1="441.868" y1="602.8763" x2="464.3156" y2="602.8763">
			<stop offset="0" style="stop-color:#C7A255"/>
			<stop offset="0.4274" style="stop-color:#FBF5BE"/>
			<stop offset="0.986" style="stop-color:#BC9641"/>
		</linearGradient>
		<polygon class="st8" points="447.85,604.65 462.62,604.65 462.62,599.66 447.85,599.66 447.85,593.1 463.74,593.1 463.74,588.1     441.87,588.1 441.87,617.65 464.32,617.65 464.32,612.66 447.85,612.66   "/>
		<linearGradient id="SVGID_9_" gradientUnits="userSpaceOnUse" x1="467.3276" y1="606.9828" x2="487.3404" y2="606.9828">
			<stop offset="0" style="stop-color:#C7A255"/>
			<stop offset="0.4274" style="stop-color:#FBF5BE"/>
			<stop offset="0.986" style="stop-color:#BC9641"/>
		</linearGradient>
		<path class="st9" d="M479.22,604.27c-3.03-0.69-4.79-1.22-5.31-1.6c-0.38-0.28-0.56-0.63-0.56-1.03c0-0.47,0.21-0.85,0.65-1.15    c0.65-0.42,1.73-0.63,3.23-0.63c1.19,0,2.1,0.22,2.74,0.67c0.64,0.45,1.08,1.09,1.31,1.93l5.32-0.99    c-0.54-1.88-1.52-3.29-2.94-4.26c-1.42-0.96-3.6-1.44-6.53-1.44c-3.07,0-5.34,0.63-6.81,1.9c-1.46,1.26-2.2,2.83-2.2,4.69    c0,2.06,0.85,3.67,2.54,4.83c1.22,0.83,4.12,1.75,8.69,2.77c0.97,0.23,1.61,0.48,1.89,0.75c0.27,0.28,0.4,0.64,0.4,1.07    c0,0.63-0.25,1.14-0.74,1.52c-0.74,0.54-1.84,0.8-3.31,0.8c-1.33,0-2.37-0.28-3.1-0.85c-0.74-0.56-1.23-1.4-1.47-2.49l-5.69,0.87    c0.52,2.02,1.64,3.62,3.33,4.79c1.71,1.17,4.02,1.77,6.93,1.77c3.22,0,5.65-0.71,7.28-2.12c1.64-1.41,2.46-3.1,2.46-5.06    c0-1.8-0.59-3.21-1.78-4.22C484.36,605.79,482.25,604.95,479.22,604.27z"/>
		<linearGradient id="SVGID_10_" gradientUnits="userSpaceOnUse" x1="668.4177" y1="566.7639" x2="691.9111" y2="566.7639">
			<stop offset="0" style="stop-color:#C7A255"/>
			<stop offset="0.4274" style="stop-color:#FBF5BE"/>
			<stop offset="0.986" style="stop-color:#BC9641"/>
		</linearGradient>
		<path class="st10" d="M673.55,559.42l-5.13,0.9l5.06,6.27c1.57-0.86,4.58-2.74,5.95-1.6l11.03,9.16l1.45-1.29    c-1.82-1.61-5.77-5.23-9.66-8.46C678.93,561.64,675.68,559.05,673.55,559.42z"/>
		<linearGradient id="SVGID_11_" gradientUnits="userSpaceOnUse" x1="432.5811" y1="541.9731" x2="432.5866" y2="541.9731">
			<stop offset="0" style="stop-color:#C7A255"/>
			<stop offset="0.4274" style="stop-color:#FBF5BE"/>
			<stop offset="0.986" style="stop-color:#BC9641"/>
		</linearGradient>
		<path class="st11" d="M432.58,542.06c0-0.02,0.01-0.03,0.01-0.05c0-0.04-0.01-0.09-0.01-0.13V542.06z"/>
		<linearGradient id="SVGID_12_" gradientUnits="userSpaceOnUse" x1="432.5866" y1="547.5038" x2="446.5297" y2="547.5038">
			<stop offset="0" style="stop-color:#C7A255"/>
			<stop offset="0.4274" style="stop-color:#FBF5BE"/>
			<stop offset="0.986" style="stop-color:#BC9641"/>
		</linearGradient>
		<path class="st12" d="M438,547.04c0-2.58,1.99-4.42,4.34-4.42h4.19v-6.45h-7.26c-3.77,0-6.65,2.56-6.68,5.85    c0.06,4.95,3.48,10.8,9.21,16.83l1.08-0.92C439.81,553.13,438,549.44,438,547.04z"/>
		<linearGradient id="SVGID_13_" gradientUnits="userSpaceOnUse" x1="542.9973" y1="516.0697" x2="550.5729" y2="516.0697">
			<stop offset="0" style="stop-color:#C7A255"/>
			<stop offset="0.4274" style="stop-color:#FBF5BE"/>
			<stop offset="0.986" style="stop-color:#BC9641"/>
		</linearGradient>
		<path class="st13" d="M543,516.07c0,2.14,1.7,3.87,3.79,3.87c2.09,0,3.79-1.74,3.79-3.87c0-2.13-1.7-3.87-3.79-3.87    C544.7,512.2,543,513.94,543,516.07z"/>
		<linearGradient id="SVGID_14_" gradientUnits="userSpaceOnUse" x1="561.8568" y1="546.3184" x2="682.9352" y2="546.3184">
			<stop offset="0" style="stop-color:#C7A255"/>
			<stop offset="0.4274" style="stop-color:#FBF5BE"/>
			<stop offset="0.986" style="stop-color:#BC9641"/>
		</linearGradient>
		<path class="st14" d="M672.37,555.52l6.23,3.87v-26.95h4.29l0.05-5l-121.08,0l0,5.03h7.62c1.27,2.6,0.67,7.95-0.81,10.22    c-1.4-3.79-5.96-4.9-5.74-0.24c1.12,8.89,14.81,18.78,16.01,17.88c0.76-0.43,0.79-1.6,0.32-1.81c-3.14-1.4-6.27-2.86-8.76-8.38    c2.53-1.11,3.85-3.72,4.39-6.67c1.87,2.52,4.51,3.15,7.78,2.74v9.32l6.22,3.87v-26.96h5.34c10.02,0,20.05,0,30.07,0v2.44    c0,0.74-0.72,1.29-1.45,1.29h-3.07c-3.8,0-7.05,3.13-7.05,7.19c0,6.64,6.51,13.09,12.47,13.09c0.72,0,0.85-0.02,1.57-0.21    c1.66,2.05,3.12,4.13,4.76,6.23c1.08,1.29,2.07,2.67,2.61,2.67c0.48,0.25,1.98-0.38,1.48-1.57l-6.98-8.05    c1.99-1.11,3.07-2.95,3.07-4.61c0-3.5-2.53-5.13-5.78-5.13c-1.99,0-3.41,1.04-3.61,2.58c0,0.49,0.05,1,0.54,1.45    c-0.79,0.62-1.8,0.73-2.34,0.73c-2.53,0-4.7-1.84-4.7-4.05c0-2.58,2.53-4.42,5.6-4.42h6.32c1.6,0.08,3.34-0.19,2.97-3.32    l-0.01-6.3h3.88h9.84c0.54,1.11,0.72,2.24,0.72,3.35c0,1.66-0.77,3.94-1.49,5.05c-1.26-2.32-6.01-3.05-5.78,1.61    c1.12,8.89,14.62,18.15,15.86,17.93c0.83-0.15,1.19-1.31,0.48-1.86c-3.14-1.4-6.27-2.86-8.76-8.38c6.96-3.05,4.73-12.26,2.73-17.7    h6.51v0h5.05v9.62h-2.53c-1.08,0-2.17,0.74-2.17,1.85c0,3.5,6.33,9.96,9.76,9.96c1.08,0,1.16-1.29,1.16-2.95v-3.14h6.42V555.52z     M582.67,540.21c-0.62,1.72-3.71,3.11-7.61,2.13c0-2.95-0.75-6.92-1.83-9.87h9.44V540.21z M665.95,542.06v-9.62h6.42v9.62H665.95z    "/>
		<linearGradient id="SVGID_15_" gradientUnits="userSpaceOnUse" x1="462.5837" y1="516.0025" x2="470.1552" y2="516.0025">
			<stop offset="0" style="stop-color:#C7A255"/>
			<stop offset="0.4274" style="stop-color:#FBF5BE"/>
			<stop offset="0.986" style="stop-color:#BC9641"/>
		</linearGradient>
		<path class="st15" d="M462.58,516c0,2.13,1.7,3.87,3.78,3.87c2.09,0,3.79-1.74,3.79-3.87c0-2.13-1.7-3.87-3.79-3.87    C464.28,512.13,462.58,513.87,462.58,516z"/>
		<linearGradient id="SVGID_16_" gradientUnits="userSpaceOnUse" x1="399.8071" y1="543.9076" x2="474.6859" y2="543.9076">
			<stop offset="0" style="stop-color:#C7A255"/>
			<stop offset="0.4274" style="stop-color:#FBF5BE"/>
			<stop offset="0.986" style="stop-color:#BC9641"/>
		</linearGradient>
		<path class="st16" d="M452.64,534.32c0,1.84-2.53,3.87-5.78,4.42v0.18c2.53,7,7.77,11.8,13.19,11.8c1.08,0,2.47-0.23,3.25-0.68    v5.48l6.25,3.87v-26.95h5.14v-4.99l-44.19,0l-30.69,0v4.99h6.57c2.82,5.9,0.82,8.11-0.56,10.22c-1.74-3.76-6.21-4.87-5.99-0.22    c1.12,8.89,14.68,18.51,16.01,17.89c0.53-0.09,1.13-1.12,0.32-1.81c-3.13-1.4-6.27-2.86-8.77-8.38c2.53-1.11,3.86-3.72,4.4-6.67    c2.58,2.41,5.12,2.79,7.77,2.77v9.29l6.24,3.87v-26.95c8.7,0,17.41,0,26.11,0C452.46,533.18,452.64,533.77,452.64,534.32z     M455.22,532.44h8.08v10.73c-1.83,3.61-6.44,3.83-8.33,2.76c-0.47-0.27-2.91-1.65-3.79-3.27c0.22-0.03,4.16-0.68,5.13-3.92    C456.84,536.97,456.48,533.92,455.22,532.44z M419.57,540.11c-0.45,1.73-3.75,3.25-7.65,2.26c0-2.95-0.72-6.98-1.8-9.93h9.46    V540.11z"/>
		<linearGradient id="SVGID_17_" gradientUnits="userSpaceOnUse" x1="480.4657" y1="536.9529" x2="555.0966" y2="536.9529">
			<stop offset="0" style="stop-color:#C7A255"/>
			<stop offset="0.4274" style="stop-color:#FBF5BE"/>
			<stop offset="0.986" style="stop-color:#BC9641"/>
		</linearGradient>
		<path class="st17" d="M555.1,527.38l-25.22,0.05v0l-35.67,0.01c-1.54,0.01-2.82-2.33-2.89-4.63c-0.08-2.54,2.53-5.64,5.6-5.64    c3.98,0,9.03,3.41,14.28,9.86l1.81-0.92c-7.23-9.03-14.82-14.18-20.24-14.1c-4.48,0.06-8,3.89-8.6,6.97    c-0.38,2.83-0.44,5.71,1.84,8.44h-5.52v5.01h3.98v23.08l6.22,3.87v-26.95h4.62v0h7.76c0,1.04,0,2.13,0,3.17    c-1.83,0.15-3.3,0.43-4.94,1.76l3.27,4.09c2.29-1.7,7.83-3.23,9.36,0.02c1.51,5.16-4.56,7.92-7.45,7.33    c-0.84-1.96-1.24-2.74-2.16-3.23c-1.29-0.66-4.29-0.7-3.68,3.71c1.23,4.6,8.87,12.29,12.89,12.57c2.54,0.24,2.84-1.32,2.19-1.93    c-1.58-1.22-5.16,0.64-9.38-5.94c2.41,0.7,8.82,0.92,10.55-6.35c1.15-3.73-2.08-9.38-4.79-10.85l0-4.36h9.13v23.08l6.22,3.87    v-26.92h6.12h13.14v6.45c-0.96-1.33-2.16-2.37-3.62-3.13c-1.08-0.37-1.99-0.55-2.71-0.55c-3.43,0-6.32,2.39-6.32,5.53    c0,6.46,6.26,12.14,12.65,10.07v4.68l6.22,3.87v-26.92h5.34V527.38z M535.93,548.21c-0.93-0.16-2.56-1.45-2.64-3.07    c-0.03-2.84,2.08-6.12,7.85-5.22c1.13,0.18,1.1,0.23,2.37,0.79C543.64,546.22,540.54,548.98,535.93,548.21z"/>
		<linearGradient id="SVGID_18_" gradientUnits="userSpaceOnUse" x1="566.1202" y1="567.2403" x2="594.3082" y2="567.2403">
			<stop offset="0" style="stop-color:#C7A255"/>
			<stop offset="0.4274" style="stop-color:#FBF5BE"/>
			<stop offset="0.986" style="stop-color:#BC9641"/>
		</linearGradient>
		<path class="st18" d="M594.31,567.52c0-4.61-4.16-8.3-9.39-8.3c-1.99,0-4.52,1.11-6.87,3.13l4.8,2.89c2.31-2.6,5.1-3.38,6.19-3.38    c5.12,0,1.61,9.77-7.55,9.24c-5.23-0.31-10.3-3.4-14.1-7.83l-1.26,1.11c5.6,6.82,12.47,10.87,18.79,10.87    C590.15,575.26,594.31,571.76,594.31,567.52z"/>
		<linearGradient id="SVGID_19_" gradientUnits="userSpaceOnUse" x1="595.5742" y1="544.9232" x2="612.1972" y2="544.9232">
			<stop offset="0" style="stop-color:#C7A255"/>
			<stop offset="0.4274" style="stop-color:#FBF5BE"/>
			<stop offset="0.986" style="stop-color:#BC9641"/>
		</linearGradient>
		<path class="st19" d="M603.89,551.65c1.44,0,2.53-1.84,2.53-3.87v-3.87h5.78v-5.71h-13.19c-1.81,0-3.43,1.47-3.43,3.32    C595.57,545.75,600.45,551.65,603.89,551.65z"/>
		<linearGradient id="SVGID_20_" gradientUnits="userSpaceOnUse" x1="614.7881" y1="231.7498" x2="634.4362" y2="231.7498">
			<stop offset="0" style="stop-color:#C7A255"/>
			<stop offset="0.4274" style="stop-color:#FBF5BE"/>
			<stop offset="0.986" style="stop-color:#BC9641"/>
		</linearGradient>
		<polygon class="st20" points="618.04,244.92 634.44,226.02 630.78,224.2 619.1,238.47 623.19,220.43 619.48,218.58 614.79,243.31       "/>
		<linearGradient id="SVGID_21_" gradientUnits="userSpaceOnUse" x1="702.7903" y1="379.4825" x2="726.9374" y2="379.4825">
			<stop offset="0" style="stop-color:#C7A255"/>
			<stop offset="0.4274" style="stop-color:#FBF5BE"/>
			<stop offset="0.986" style="stop-color:#BC9641"/>
		</linearGradient>
		<path class="st21" d="M703.11,381.15c0.05,1.47,0.4,2.72,1.05,3.74c0.65,1.02,1.49,1.79,2.52,2.28c1.03,0.49,2.12,0.72,3.27,0.68    c1.13-0.04,2.18-0.29,3.15-0.76c0.98-0.46,1.81-1.12,2.49-1.97c0.58,0.58,1.29,1.02,2.13,1.3c0.84,0.29,1.71,0.42,2.62,0.39    c1.18-0.04,2.29-0.32,3.31-0.84c1.02-0.52,1.84-1.27,2.44-2.24c0.6-0.98,0.88-2.12,0.84-3.44l-0.31-9.2l-23.83,0.85L703.11,381.15    z M722.46,375.21l0.17,4.98c0.03,0.77-0.21,1.39-0.71,1.84c-0.5,0.45-1.13,0.69-1.88,0.72c-0.75,0.03-1.41-0.17-1.96-0.58    c-0.55-0.41-0.83-1.01-0.86-1.78l-0.17-4.98L722.46,375.21z M712.91,375.55l0.19,5.51c0.03,0.82-0.23,1.47-0.77,1.94    c-0.54,0.47-1.21,0.72-2,0.75c-0.82,0.03-1.53-0.17-2.13-0.61c-0.61-0.44-0.92-1.06-0.95-1.87l-0.19-5.51L712.91,375.55z"/>
		<linearGradient id="SVGID_22_" gradientUnits="userSpaceOnUse" x1="568.2952" y1="216.4396" x2="587.0647" y2="216.4396">
			<stop offset="0" style="stop-color:#C7A255"/>
			<stop offset="0.4274" style="stop-color:#FBF5BE"/>
			<stop offset="0.986" style="stop-color:#BC9641"/>
		</linearGradient>
		<path class="st22" d="M569.51,226.03c0.57,0.93,1.27,1.69,2.1,2.27c0.83,0.58,1.72,0.97,2.68,1.18c1.32,0.29,2.64,0.21,3.96-0.23    c1.31-0.44,2.47-1.28,3.48-2.51c1-1.23,1.71-2.81,2.11-4.74l3.22-15.46l-4.24-0.92l-3.36,16.12c-0.26,1.26-0.82,2.17-1.66,2.72    c-0.84,0.55-1.74,0.72-2.7,0.51c-0.95-0.21-1.7-0.74-2.25-1.59c-0.54-0.85-0.68-1.91-0.42-3.17l3.36-16.12l-3.98-0.86l-3.22,15.47    c-0.31,1.46-0.37,2.82-0.19,4.06C568.57,224.01,568.95,225.09,569.51,226.03z"/>
		<linearGradient id="SVGID_23_" gradientUnits="userSpaceOnUse" x1="585.225" y1="222.0304" x2="607.9531" y2="222.0304">
			<stop offset="0" style="stop-color:#C7A255"/>
			<stop offset="0.4274" style="stop-color:#FBF5BE"/>
			<stop offset="0.986" style="stop-color:#BC9641"/>
		</linearGradient>
		<polygon class="st23" points="589.16,232.36 594.23,216.43 596.71,234.86 600.59,236.14 607.95,213.01 604.08,211.73     599.09,227.4 596.53,209.22 592.59,207.92 585.23,231.05   "/>
		<linearGradient id="SVGID_24_" gradientUnits="userSpaceOnUse" x1="603.1581" y1="227.4542" x2="616.2823" y2="227.4542">
			<stop offset="0" style="stop-color:#C7A255"/>
			<stop offset="0.4274" style="stop-color:#FBF5BE"/>
			<stop offset="0.986" style="stop-color:#BC9641"/>
		</linearGradient>
		<polygon class="st24" points="606.97,239.47 616.28,217.08 612.47,215.44 603.16,237.82   "/>
		<linearGradient id="SVGID_25_" gradientUnits="userSpaceOnUse" x1="698.1821" y1="350.4782" x2="724.6653" y2="350.4782">
			<stop offset="0" style="stop-color:#C7A255"/>
			<stop offset="0.4274" style="stop-color:#FBF5BE"/>
			<stop offset="0.986" style="stop-color:#BC9641"/>
		</linearGradient>
		<polygon class="st25" points="699.18,352.4 708.88,349.93 710.98,358.54 715.22,357.46 713.11,348.85 717.9,347.64 720.25,357.24     724.67,356.12 721.32,342.42 698.18,348.3   "/>
		<linearGradient id="SVGID_26_" gradientUnits="userSpaceOnUse" x1="693.6146" y1="332.2435" x2="718.265" y2="332.2435">
			<stop offset="0" style="stop-color:#C7A255"/>
			<stop offset="0.4274" style="stop-color:#FBF5BE"/>
			<stop offset="0.986" style="stop-color:#BC9641"/>
		</linearGradient>
		<path class="st26" d="M702.88,322.77c-2.08,0.77-3.79,1.7-5.14,2.79c-1.36,1.09-2.37,2.26-3.03,3.51    c-0.67,1.26-1.03,2.53-1.08,3.83c-0.06,1.3,0.12,2.55,0.55,3.75c0.57,1.6,1.37,2.86,2.4,3.79c1.03,0.93,2.21,1.56,3.56,1.89    c1.34,0.33,2.75,0.4,4.24,0.24c1.49-0.17,3.02-0.55,4.61-1.14c2.65-1.08,4.73-2.38,6.22-3.91c1.5-1.54,2.44-3.15,2.82-4.82    c0.38-1.67,0.29-3.28-0.26-4.81c-0.8-2.25-2.06-3.84-3.78-4.75c-1.72-0.92-3.55-1.35-5.49-1.28    C706.56,321.9,704.69,322.22,702.88,322.77z M713.27,328.95c0.32,0.9,0.38,1.79,0.19,2.68c-0.19,0.89-0.59,1.71-1.19,2.47    c-0.6,0.76-1.33,1.44-2.19,2.03c-0.86,0.59-1.81,1.08-2.85,1.46c-0.93,0.34-1.86,0.57-2.79,0.69c-0.94,0.11-1.81,0.08-2.63-0.08    c-0.81-0.17-1.53-0.51-2.15-1.02c-0.62-0.5-1.08-1.19-1.39-2.06c-0.42-1.18-0.44-2.31-0.04-3.36c0.39-1.06,1.07-1.99,2.05-2.81    c0.97-0.81,2.1-1.47,3.38-1.98c1.32-0.46,2.66-0.71,4-0.76c1.35-0.05,2.52,0.16,3.53,0.62    C712.2,327.28,712.89,327.99,713.27,328.95z"/>
		<linearGradient id="SVGID_27_" gradientUnits="userSpaceOnUse" x1="674.2068" y1="287.6807" x2="699.4193" y2="287.6807">
			<stop offset="0" style="stop-color:#C7A255"/>
			<stop offset="0.4274" style="stop-color:#FBF5BE"/>
			<stop offset="0.986" style="stop-color:#BC9641"/>
		</linearGradient>
		<polygon class="st27" points="690.41,284.1 674.21,295.25 676.48,298.7 692.69,287.55 695.85,292.34 699.42,289.89 690.68,276.67     687.11,279.12   "/>
		<linearGradient id="SVGID_28_" gradientUnits="userSpaceOnUse" x1="640.407" y1="255.3" x2="665.8904" y2="255.3">
			<stop offset="0" style="stop-color:#C7A255"/>
			<stop offset="0.4274" style="stop-color:#FBF5BE"/>
			<stop offset="0.986" style="stop-color:#BC9641"/>
		</linearGradient>
		<path class="st28" d="M643.58,262.03l6.09-7.41l3.12,2.67c0.66,0.56,1.09,1.04,1.3,1.43c0.21,0.39,0.25,0.76,0.12,1.11    c-0.13,0.35-0.41,0.79-0.86,1.33c-0.54,0.66-0.98,1.16-1.32,1.5c-1.18,1.55-2.03,3.02-2.57,4.4l3.32,2.84l0.82-0.99    c-0.12-0.1-0.13-0.35-0.03-0.76c0.1-0.41,0.31-0.81,0.63-1.2l3.25-4.33c0.35-0.43,0.58-0.89,0.69-1.37    c0.11-0.49,0.13-0.95,0.07-1.37c-0.07-0.42-0.18-0.75-0.34-1.02c1.27,0.1,2.45-0.1,3.54-0.59c1.09-0.49,2.01-1.19,2.75-2.1    c0.53-0.65,0.95-1.34,1.25-2.09c0.3-0.75,0.45-1.5,0.48-2.24c0.02-0.75-0.11-1.46-0.39-2.14c-0.28-0.68-0.7-1.27-1.28-1.76    l-8.49-7.27l-15.33,18.63L643.58,262.03z M656.28,246.58l4,3.42c0.66,0.57,1,1.23,1,1.98c0.01,0.75-0.23,1.43-0.73,2.03    c-0.51,0.62-1.15,1.02-1.91,1.2c-0.77,0.17-1.47-0.01-2.1-0.56l-4.05-3.46L656.28,246.58z"/>
		<linearGradient id="SVGID_29_" gradientUnits="userSpaceOnUse" x1="666.8785" y1="279.6005" x2="688.0104" y2="279.6005">
			<stop offset="0" style="stop-color:#C7A255"/>
			<stop offset="0.4274" style="stop-color:#FBF5BE"/>
			<stop offset="0.986" style="stop-color:#BC9641"/>
		</linearGradient>
		<polygon class="st29" points="669.48,288.89 688.01,273.59 685.41,270.31 666.88,285.62   "/>
		<linearGradient id="SVGID_30_" gradientUnits="userSpaceOnUse" x1="657.0061" y1="269.0323" x2="679.8063" y2="269.0323">
			<stop offset="0" style="stop-color:#C7A255"/>
			<stop offset="0.4274" style="stop-color:#FBF5BE"/>
			<stop offset="0.986" style="stop-color:#BC9641"/>
		</linearGradient>
		<path class="st30" d="M664.7,264.81c0.11,1.08,0.46,2.18,1.06,3.32c0.15,0.27,0.49,0.9,1.07,1.91c0.56,1.01,0.97,1.81,1.21,2.42    c0.24,0.61,0.35,1.21,0.32,1.79c-0.02,0.59-0.26,1.11-0.71,1.57c-0.75,0.67-1.53,0.96-2.33,0.87c-0.8-0.09-1.7-0.66-2.72-1.69    c-0.79-0.81-1.24-1.73-1.34-2.78c-0.1-1.04,0.31-2.03,1.23-2.97l-2.93-2.99c-0.98,1-1.67,2.07-2.08,3.18    c-0.4,1.11-0.55,2.21-0.45,3.28c0.1,1.07,0.36,2.06,0.8,2.94c0.43,0.89,0.95,1.65,1.57,2.28c1.25,1.27,2.53,2.11,3.83,2.53    c1.31,0.41,2.56,0.45,3.77,0.1c1.21-0.35,2.32-0.99,3.32-1.92c1.04-1.06,1.7-2.17,1.99-3.34c0.29-1.17,0.25-2.44-0.13-3.82    c-0.38-1.38-1.08-2.99-2.08-4.82c-0.65-1.17-0.97-2.17-0.98-2.96c-0.01-0.8,0.26-1.47,0.79-2.02c1.19-1.05,2.56-0.78,4.1,0.8    c0.79,0.81,1.26,1.69,1.4,2.66c0.14,0.97-0.24,1.92-1.13,2.83l2.7,2.75c1.6-1.64,2.53-3.33,2.78-5.09    c0.26-1.76-0.56-3.64-2.44-5.65c-0.93-0.94-1.87-1.64-2.84-2.08c-0.97-0.44-1.92-0.66-2.87-0.65c-0.94,0-1.85,0.2-2.71,0.59    c-0.86,0.39-1.66,0.92-2.38,1.61c-0.66,0.68-1.16,1.47-1.49,2.38C664.7,262.74,664.59,263.73,664.7,264.81z"/>
		<linearGradient id="SVGID_31_" gradientUnits="userSpaceOnUse" x1="683.3888" y1="303.6347" x2="709.2411" y2="303.6347">
			<stop offset="0" style="stop-color:#C7A255"/>
			<stop offset="0.4274" style="stop-color:#FBF5BE"/>
			<stop offset="0.986" style="stop-color:#BC9641"/>
		</linearGradient>
		<polygon class="st31" points="683.39,310.48 685.33,314.21 693.04,310.03 709.24,308.28 707.1,304.17 696.36,305.78 703.6,297.45     701.31,293.06 690.87,306.43   "/>
		<linearGradient id="SVGID_32_" gradientUnits="userSpaceOnUse" x1="626.3105" y1="243.5115" x2="651.5524" y2="243.5115">
			<stop offset="0" style="stop-color:#C7A255"/>
			<stop offset="0.4274" style="stop-color:#FBF5BE"/>
			<stop offset="0.986" style="stop-color:#BC9641"/>
		</linearGradient>
		<polygon class="st32" points="638.65,257.84 641.11,254.12 632.39,248.12 635.65,243.19 643.29,248.45 645.75,244.73     638.11,239.47 640.86,235.31 649.15,241.01 651.55,237.38 639.64,229.18 626.31,249.35   "/>
		<linearGradient id="SVGID_33_" gradientUnits="userSpaceOnUse" x1="353.0626" y1="374.1884" x2="378.1999" y2="374.1884">
			<stop offset="0" style="stop-color:#C7A255"/>
			<stop offset="0.4274" style="stop-color:#FBF5BE"/>
			<stop offset="0.986" style="stop-color:#BC9641"/>
		</linearGradient>
		<polygon class="st33" points="377.17,379.16 366.4,378.19 367.07,370.35 377.85,371.31 378.2,367.17 354.45,365.05 354.09,369.19     362.76,369.96 362.08,377.81 353.42,377.03 353.06,381.21 376.82,383.33   "/>
		<linearGradient id="SVGID_34_" gradientUnits="userSpaceOnUse" x1="353.1671" y1="394.8082" x2="377.2082" y2="394.8082">
			<stop offset="0" style="stop-color:#C7A255"/>
			<stop offset="0.4274" style="stop-color:#FBF5BE"/>
			<stop offset="0.986" style="stop-color:#BC9641"/>
		</linearGradient>
		<path class="st34" d="M377.13,399.78l-4.9-1.21l-0.12-7.07l4.85-1.65l-0.08-4.49l-23.72,7.51l0.09,4.98l23.96,6.42L377.13,399.78z     M359.36,395.14l8.69-2.55l0.08,4.74L359.36,395.14z"/>
		<linearGradient id="SVGID_35_" gradientUnits="userSpaceOnUse" x1="354.2098" y1="418.2918" x2="380.9936" y2="418.2918">
			<stop offset="0" style="stop-color:#C7A255"/>
			<stop offset="0.4274" style="stop-color:#FBF5BE"/>
			<stop offset="0.986" style="stop-color:#BC9641"/>
		</linearGradient>
		<polygon class="st35" points="380.28,421.58 362.12,424.85 379.7,418.28 378.98,414.11 360.25,414.05 378.41,410.78     377.69,406.62 354.21,410.85 355.24,416.8 373.27,417.23 356.48,424 357.51,429.96 380.99,425.74   "/>
		<linearGradient id="SVGID_36_" gradientUnits="userSpaceOnUse" x1="361.4501" y1="446.6694" x2="388.6708" y2="446.6694">
			<stop offset="0" style="stop-color:#C7A255"/>
			<stop offset="0.4274" style="stop-color:#FBF5BE"/>
			<stop offset="0.986" style="stop-color:#BC9641"/>
		</linearGradient>
		<polygon class="st36" points="383.82,435.53 379.67,436.99 383.09,447.14 377.58,449.08 374.58,440.18 370.42,441.64     373.42,450.54 368.77,452.17 365.52,442.52 361.45,443.95 366.13,457.81 388.67,449.89   "/>
		<linearGradient id="SVGID_37_" gradientUnits="userSpaceOnUse" x1="359.8573" y1="333.3962" x2="387.7899" y2="333.3962">
			<stop offset="0" style="stop-color:#C7A255"/>
			<stop offset="0.4274" style="stop-color:#FBF5BE"/>
			<stop offset="0.986" style="stop-color:#BC9641"/>
		</linearGradient>
		<path class="st37" d="M383.68,340.52l-8.91-3.31l1.39-3.9c0.29-0.82,0.59-1.4,0.87-1.73c0.29-0.33,0.62-0.5,0.98-0.5    c0.37,0.01,0.87,0.12,1.52,0.37c0.79,0.29,1.41,0.55,1.84,0.75c1.83,0.6,3.47,0.92,4.93,0.95l1.48-4.16l-1.19-0.44    c-0.05,0.15-0.28,0.24-0.69,0.29c-0.41,0.05-0.85-0.02-1.32-0.2l-5.1-1.64c-0.51-0.19-1.01-0.25-1.5-0.19    c-0.49,0.07-0.92,0.2-1.28,0.4c-0.36,0.21-0.63,0.43-0.83,0.68c-0.34-1.25-0.93-2.31-1.75-3.19c-0.82-0.88-1.78-1.52-2.87-1.92    c-0.78-0.29-1.56-0.45-2.35-0.48c-0.79-0.03-1.54,0.08-2.23,0.31c-0.7,0.24-1.31,0.6-1.84,1.1c-0.53,0.5-0.93,1.11-1.18,1.83    l-3.79,10.62l22.4,8.32L383.68,340.52z M372.44,330.62l-1.81,5.06l-5.54-2.06l1.78-5c0.3-0.83,0.79-1.37,1.48-1.64    c0.69-0.27,1.4-0.27,2.12,0c0.74,0.28,1.33,0.75,1.76,1.42C372.66,329.09,372.73,329.82,372.44,330.62z"/>
		<linearGradient id="SVGID_38_" gradientUnits="userSpaceOnUse" x1="356.3455" y1="355.7848" x2="382.0079" y2="355.7848">
			<stop offset="0" style="stop-color:#C7A255"/>
			<stop offset="0.4274" style="stop-color:#FBF5BE"/>
			<stop offset="0.986" style="stop-color:#BC9641"/>
		</linearGradient>
		<path class="st38" d="M379.31,360.66l-4.55-2.23l1.32-6.94l5.08-0.59l0.84-4.4l-24.73,2.31l-0.93,4.89l22.13,11.36L379.31,360.66z     M371.01,356.37l-8.13-4.01l9.02-0.65L371.01,356.37z"/>
		<linearGradient id="SVGID_39_" gradientUnits="userSpaceOnUse" x1="693.6428" y1="442.8334" x2="718.5365" y2="442.8334">
			<stop offset="0" style="stop-color:#C7A255"/>
			<stop offset="0.4274" style="stop-color:#FBF5BE"/>
			<stop offset="0.986" style="stop-color:#BC9641"/>
		</linearGradient>
		<path class="st39" d="M714.48,436.56c-1.55-1.2-3.19-2.16-4.93-2.89c-2.09-0.73-3.99-1.11-5.72-1.14    c-1.72-0.03-3.23,0.24-4.52,0.79c-1.3,0.55-2.36,1.31-3.2,2.28c-0.85,0.97-1.48,2.06-1.88,3.27c-0.54,1.61-0.7,3.1-0.48,4.49    c0.23,1.39,0.76,2.63,1.6,3.75c0.84,1.11,1.89,2.08,3.15,2.91c1.26,0.82,2.69,1.52,4.28,2.08c2.72,0.86,5.14,1.19,7.25,0.95    c2.11-0.23,3.84-0.88,5.17-1.94c1.33-1.06,2.25-2.36,2.77-3.91c0.77-2.27,0.76-4.31-0.01-6.12    C717.19,439.27,716.03,437.77,714.48,436.56z M713.8,445.15c-0.3,0.9-0.8,1.64-1.51,2.2c-0.7,0.56-1.51,0.95-2.45,1.16    c-0.93,0.21-1.92,0.26-2.95,0.17c-1.04-0.09-2.07-0.32-3.12-0.69c-0.93-0.33-1.8-0.75-2.59-1.25c-0.8-0.51-1.46-1.1-1.99-1.75    c-0.52-0.66-0.88-1.38-1.04-2.17c-0.17-0.79-0.11-1.62,0.19-2.49c0.4-1.19,1.08-2.07,2.04-2.64c0.96-0.57,2.07-0.86,3.32-0.87    c1.26-0.01,2.54,0.2,3.85,0.63c1.31,0.49,2.51,1.15,3.58,1.97c1.08,0.83,1.86,1.74,2.36,2.75    C714,443.16,714.1,444.16,713.8,445.15z"/>
		<linearGradient id="SVGID_40_" gradientUnits="userSpaceOnUse" x1="369.7704" y1="316.4112" x2="396.3778" y2="316.4112">
			<stop offset="0" style="stop-color:#C7A255"/>
			<stop offset="0.4274" style="stop-color:#FBF5BE"/>
			<stop offset="0.986" style="stop-color:#BC9641"/>
		</linearGradient>
		<path class="st40" d="M390.4,322.85l-3.88-3.28l2.93-6.41l5.07,0.68l1.86-4.06l-24.54-3.86l-2.06,4.52l18.77,16.48L390.4,322.85z     M383.36,316.63l-6.94-5.9l8.91,1.6L383.36,316.63z"/>
		<linearGradient id="SVGID_41_" gradientUnits="userSpaceOnUse" x1="368.6756" y1="465.5786" x2="397.1361" y2="465.5786">
			<stop offset="0" style="stop-color:#C7A255"/>
			<stop offset="0.4274" style="stop-color:#FBF5BE"/>
			<stop offset="0.986" style="stop-color:#BC9641"/>
		</linearGradient>
		<polygon class="st41" points="395.27,463.55 385.64,468.56 382.13,461.54 391.77,456.53 389.92,452.83 368.68,463.88     370.52,467.58 378.27,463.55 381.78,470.57 374.03,474.59 375.89,478.32 397.14,467.28   "/>
		<linearGradient id="SVGID_42_" gradientUnits="userSpaceOnUse" x1="686.6862" y1="461.7279" x2="712.4192" y2="461.7279">
			<stop offset="0" style="stop-color:#C7A255"/>
			<stop offset="0.4274" style="stop-color:#FBF5BE"/>
			<stop offset="0.986" style="stop-color:#BC9641"/>
		</linearGradient>
		<path class="st42" d="M687.27,458.54c-0.52,1.2-0.7,2.42-0.51,3.65c0.18,1.23,0.64,2.39,1.39,3.48c0.75,1.1,1.7,2.1,2.87,3.01    c1.16,0.91,2.44,1.68,3.83,2.31c1.41,0.64,2.85,1.1,4.29,1.38c1.45,0.28,2.82,0.34,4.13,0.18c1.3-0.17,2.45-0.59,3.47-1.27    c1.02-0.68,1.79-1.63,2.32-2.85l3.37-7.72l-21.78-9.89L687.27,458.54z M691.51,459.84l1.48-3.4l14.04,6.38l-1.48,3.4    c-0.37,0.85-1.02,1.43-1.95,1.74c-0.93,0.31-1.99,0.38-3.21,0.2c-1.21-0.18-2.44-0.55-3.69-1.12c-1.21-0.55-2.27-1.22-3.2-2.01    c-0.92-0.8-1.58-1.65-1.97-2.55C691.16,461.56,691.14,460.68,691.51,459.84z"/>
		<linearGradient id="SVGID_43_" gradientUnits="userSpaceOnUse" x1="698.7639" y1="421.2378" x2="725.0513" y2="421.2378">
			<stop offset="0" style="stop-color:#C7A255"/>
			<stop offset="0.4274" style="stop-color:#FBF5BE"/>
			<stop offset="0.986" style="stop-color:#BC9641"/>
		</linearGradient>
		<path class="st43" d="M700.85,415.62l9.33,1.68l-0.71,4.09c-0.15,0.86-0.34,1.49-0.57,1.86c-0.22,0.38-0.52,0.6-0.88,0.66    c-0.36,0.06-0.88,0.03-1.56-0.09c-0.83-0.15-1.48-0.29-1.94-0.41c-1.9-0.27-3.58-0.29-5.02-0.07l-0.75,4.36l1.25,0.23    c0.03-0.15,0.24-0.29,0.63-0.41c0.4-0.12,0.84-0.13,1.34-0.04l5.3,0.71c0.54,0.1,1.04,0.07,1.51-0.08    c0.47-0.15,0.87-0.35,1.19-0.62c0.32-0.27,0.55-0.54,0.7-0.81c0.55,1.17,1.31,2.11,2.27,2.83c0.96,0.72,2.01,1.18,3.16,1.38    c0.82,0.15,1.61,0.17,2.4,0.06c0.79-0.11,1.5-0.35,2.14-0.7c0.65-0.36,1.18-0.82,1.62-1.41c0.44-0.58,0.72-1.25,0.85-2.01    l1.92-11.13l-23.48-4.22L700.85,415.62z M713.6,423.38l0.92-5.31l5.81,1.04l-0.91,5.24c-0.15,0.87-0.54,1.49-1.18,1.88    c-0.63,0.39-1.33,0.51-2.09,0.37c-0.78-0.14-1.44-0.51-1.97-1.09C713.65,424.93,713.46,424.22,713.6,423.38z"/>
		<linearGradient id="SVGID_44_" gradientUnits="userSpaceOnUse" x1="672.9089" y1="479.0364" x2="699.3473" y2="479.0364">
			<stop offset="0" style="stop-color:#C7A255"/>
			<stop offset="0.4274" style="stop-color:#FBF5BE"/>
			<stop offset="0.986" style="stop-color:#BC9641"/>
		</linearGradient>
		<path class="st44" d="M680.61,471.21l3.4,3.8l-3.77,5.93l-4.93-1.4l-2.39,3.76l23.78,7.31l2.66-4.18L683,467.45L680.61,471.21z     M686.73,478.37l6.07,6.83l-8.6-2.85L686.73,478.37z"/>
		<linearGradient id="SVGID_45_" gradientUnits="userSpaceOnUse" x1="378.7353" y1="485.2391" x2="404.0358" y2="485.2391">
			<stop offset="0" style="stop-color:#C7A255"/>
			<stop offset="0.4274" style="stop-color:#FBF5BE"/>
			<stop offset="0.986" style="stop-color:#BC9641"/>
		</linearGradient>
		<polygon class="st45" points="404.04,477.84 401.82,474.35 385.43,485.21 382.34,480.36 378.74,482.75 387.25,496.13     390.86,493.74 387.65,488.69   "/>
		<linearGradient id="SVGID_46_" gradientUnits="userSpaceOnUse" x1="702.0993" y1="400.2478" x2="726.7098" y2="400.2478">
			<stop offset="0" style="stop-color:#C7A255"/>
			<stop offset="0.4274" style="stop-color:#FBF5BE"/>
			<stop offset="0.986" style="stop-color:#BC9641"/>
		</linearGradient>
		<path class="st46" d="M703.09,395.29l4.78,1.65l-0.48,7.05l-4.98,1.22l-0.31,4.47l24.27-5.37l0.34-4.97l-23.32-8.53L703.09,395.29    z M711.84,398.52l8.55,2.97l-8.88,1.76L711.84,398.52z"/>
		<linearGradient id="SVGID_47_" gradientUnits="userSpaceOnUse" x1="475.0562" y1="223.1328" x2="488.1045" y2="223.1328">
			<stop offset="0" style="stop-color:#C7A255"/>
			<stop offset="0.4274" style="stop-color:#FBF5BE"/>
			<stop offset="0.986" style="stop-color:#BC9641"/>
		</linearGradient>
		<path class="st47" d="M482.72,231.67c-0.1-0.01-0.25,0.01-0.45,0.08c-1.15,0.22-2.14-0.81-2.97-3.08    c-0.15-0.78-0.28-1.32-0.37-1.62l-3.87,1.28c0.05,0.17,0.13,0.48,0.21,0.94c0.09,0.46,0.17,0.84,0.24,1.14    c0.42,1.21,0.96,2.31,1.63,3.3c0.67,0.99,1.56,1.72,2.68,2.19c1.12,0.47,2.47,0.45,4.03-0.07c1.45-0.48,2.51-1.18,3.18-2.11    c0.67-0.93,1.03-1.95,1.07-3.07c0.04-1.13-0.13-2.28-0.5-3.47l-5.46-17.16l-3.94,1.3l5.47,17.17c0.26,0.83,0.33,1.51,0.2,2.03    C483.73,231.04,483.35,231.43,482.72,231.67z"/>
		<linearGradient id="SVGID_48_" gradientUnits="userSpaceOnUse" x1="486.4815" y1="219.5296" x2="496.6489" y2="219.5296">
			<stop offset="0" style="stop-color:#C7A255"/>
			<stop offset="0.4274" style="stop-color:#FBF5BE"/>
			<stop offset="0.986" style="stop-color:#BC9641"/>
		</linearGradient>
		<polygon class="st48" points="496.65,230.73 490.48,207.24 486.48,208.33 492.65,231.82   "/>
		<linearGradient id="SVGID_49_" gradientUnits="userSpaceOnUse" x1="496.336" y1="216.3585" x2="516.0278" y2="216.3585">
			<stop offset="0" style="stop-color:#C7A255"/>
			<stop offset="0.4274" style="stop-color:#FBF5BE"/>
			<stop offset="0.986" style="stop-color:#BC9641"/>
		</linearGradient>
		<path class="st49" d="M504.15,228.63l-1.48-9.55l4.02-0.65c0.85-0.14,1.49-0.16,1.91-0.06c0.43,0.09,0.73,0.31,0.9,0.63    c0.17,0.33,0.32,0.84,0.42,1.53c0.13,0.85,0.21,1.52,0.25,2c0.37,1.93,0.9,3.54,1.57,4.86l4.28-0.69l-0.2-1.28    c-0.15,0.02-0.35-0.13-0.58-0.47c-0.24-0.34-0.39-0.77-0.47-1.27l-1.07-5.35c-0.08-0.55-0.27-1.03-0.56-1.43    c-0.29-0.41-0.61-0.73-0.97-0.95c-0.35-0.22-0.68-0.36-0.98-0.41c0.91-0.91,1.53-1.95,1.89-3.11c0.35-1.16,0.44-2.32,0.25-3.5    c-0.13-0.84-0.37-1.61-0.73-2.33c-0.36-0.72-0.81-1.33-1.35-1.84c-0.54-0.51-1.15-0.87-1.84-1.1c-0.68-0.23-1.4-0.29-2.14-0.17    l-10.94,1.77l3.73,24.02L504.15,228.63z M506.21,207.87c0.85-0.14,1.56,0.04,2.12,0.53c0.56,0.49,0.9,1.12,1.02,1.89    c0.12,0.8,0,1.55-0.37,2.26c-0.37,0.71-0.97,1.12-1.79,1.25l-5.22,0.84l-0.92-5.94L506.21,207.87z"/>
		<linearGradient id="SVGID_50_" gradientUnits="userSpaceOnUse" x1="537.4968" y1="213.0625" x2="556.7721" y2="213.0625">
			<stop offset="0" style="stop-color:#C7A255"/>
			<stop offset="0.4274" style="stop-color:#FBF5BE"/>
			<stop offset="0.986" style="stop-color:#BC9641"/>
		</linearGradient>
		<path class="st50" d="M540.34,222.65c0.92,1.08,1.95,1.88,3.11,2.4c1.16,0.53,2.38,0.8,3.63,0.82c1.67,0.03,3.11-0.28,4.33-0.93    c1.22-0.65,2.22-1.55,3.01-2.71c0.78-1.16,1.36-2.48,1.74-3.96c0.38-1.48,0.58-3.08,0.61-4.8c-0.04-2.91-0.48-5.35-1.35-7.33    c-0.87-1.98-2-3.45-3.4-4.41c-1.4-0.96-2.9-1.45-4.5-1.48c-2.35-0.04-4.25,0.59-5.71,1.9c-1.46,1.31-2.5,2.9-3.14,4.77    c-0.64,1.87-1.02,3.76-1.17,5.68c-0.04,2.25,0.2,4.22,0.71,5.9C538.72,220.19,539.43,221.57,540.34,222.65z M542.36,209.29    c0.44-1.3,1.05-2.35,1.83-3.14c0.78-0.8,1.68-1.21,2.7-1.22c0.93,0.02,1.78,0.28,2.52,0.78c0.74,0.5,1.35,1.17,1.84,2.02    c0.48,0.84,0.84,1.78,1.07,2.81c0.23,1.03,0.34,2.11,0.32,3.24c-0.02,1.01-0.14,1.97-0.37,2.9c-0.23,0.93-0.57,1.76-1.02,2.47    c-0.45,0.71-1.02,1.28-1.7,1.68c-0.68,0.41-1.48,0.61-2.38,0.59c-1.23-0.02-2.27-0.41-3.09-1.16c-0.83-0.75-1.44-1.74-1.84-2.96    c-0.4-1.21-0.6-2.52-0.6-3.93C541.68,211.95,541.92,210.59,542.36,209.29z"/>
		<linearGradient id="SVGID_51_" gradientUnits="userSpaceOnUse" x1="517.9948" y1="213.6502" x2="536.4883" y2="213.6502">
			<stop offset="0" style="stop-color:#C7A255"/>
			<stop offset="0.4274" style="stop-color:#FBF5BE"/>
			<stop offset="0.986" style="stop-color:#BC9641"/>
		</linearGradient>
		<path class="st51" d="M523.31,220.82l6.92-0.49l1.87,4.86l4.39-0.31l-8.59-23.77l-4.87,0.35l-5.03,24.74l4.39-0.31L523.31,220.82z     M525.99,207.54l2.95,8.72l-4.64,0.33L525.99,207.54z"/>
		<linearGradient id="SVGID_52_" gradientUnits="userSpaceOnUse" x1="434.8728" y1="237.1894" x2="456.6731" y2="237.1894">
			<stop offset="0" style="stop-color:#C7A255"/>
			<stop offset="0.4274" style="stop-color:#FBF5BE"/>
			<stop offset="0.986" style="stop-color:#BC9641"/>
		</linearGradient>
		<polygon class="st52" points="453.17,250.27 456.67,248.03 452.04,240.47 449.2,224.11 445.34,226.58 447.66,237.4 439.01,230.61     434.87,233.25 448.68,242.94   "/>
		<linearGradient id="SVGID_53_" gradientUnits="userSpaceOnUse" x1="407.8207" y1="261.7344" x2="430.6838" y2="261.7344">
			<stop offset="0" style="stop-color:#C7A255"/>
			<stop offset="0.4274" style="stop-color:#FBF5BE"/>
			<stop offset="0.986" style="stop-color:#BC9641"/>
		</linearGradient>
		<path class="st53" d="M409.8,263.34c0.64,0.7,1.4,1.24,2.28,1.61c0.88,0.36,1.85,0.51,2.9,0.43c1.06-0.07,2.15-0.4,3.29-0.97    c0.27-0.14,0.9-0.47,1.91-1.02c1-0.54,1.81-0.93,2.42-1.15c0.6-0.23,1.19-0.32,1.77-0.27c0.57,0.04,1.08,0.3,1.52,0.78    c0.63,0.79,0.88,1.59,0.77,2.4c-0.12,0.81-0.7,1.72-1.75,2.71c-0.82,0.78-1.74,1.2-2.77,1.27c-1.02,0.06-1.98-0.39-2.87-1.36    l-3.03,2.89c0.95,1.04,1.97,1.78,3.05,2.23c1.08,0.45,2.14,0.64,3.2,0.57c1.05-0.06,2.03-0.3,2.91-0.71    c0.88-0.41,1.65-0.91,2.29-1.53c1.29-1.23,2.16-2.5,2.61-3.82c0.45-1.32,0.53-2.59,0.23-3.84c-0.3-1.24-0.89-2.39-1.77-3.45    c-1-1.09-2.07-1.81-3.21-2.14c-1.13-0.34-2.38-0.34-3.74,0c-1.37,0.34-2.96,0.99-4.79,1.95c-1.17,0.62-2.16,0.91-2.94,0.89    c-0.78-0.02-1.43-0.31-1.95-0.88c-0.98-1.25-0.67-2.63,0.93-4.15c0.82-0.78,1.71-1.22,2.66-1.33c0.96-0.11,1.87,0.31,2.73,1.25    l2.79-2.65c-1.55-1.69-3.18-2.7-4.89-3.02c-1.71-0.32-3.59,0.44-5.62,2.29c-0.96,0.91-1.67,1.85-2.14,2.83    c-0.46,0.97-0.72,1.94-0.74,2.9c-0.03,0.96,0.13,1.89,0.48,2.78C408.65,261.75,409.15,262.58,409.8,263.34z"/>
		<linearGradient id="SVGID_54_" gradientUnits="userSpaceOnUse" x1="390.3159" y1="284.1875" x2="416.2893" y2="284.1875">
			<stop offset="0" style="stop-color:#C7A255"/>
			<stop offset="0.4274" style="stop-color:#FBF5BE"/>
			<stop offset="0.986" style="stop-color:#BC9641"/>
		</linearGradient>
		<path class="st54" d="M407.39,292.95l-2.99-4.15l4.36-5.49l4.76,1.91l2.77-3.49l-22.9-9.8l-3.08,3.87l14.31,20.63L407.39,292.95z     M396.7,277.75l8.26,3.75l-2.93,3.69L396.7,277.75z"/>
		<linearGradient id="SVGID_55_" gradientUnits="userSpaceOnUse" x1="381.5545" y1="296.544" x2="402.033" y2="296.544">
			<stop offset="0" style="stop-color:#C7A255"/>
			<stop offset="0.4274" style="stop-color:#FBF5BE"/>
			<stop offset="0.986" style="stop-color:#BC9641"/>
		</linearGradient>
		<path class="st55" d="M397.6,300.56c0.21,0.49,0.14,1.03-0.21,1.62c-0.09,0.05-0.19,0.16-0.31,0.35c-0.77,0.89-2.17,0.7-4.19-0.56    c-0.59-0.52-1.01-0.86-1.27-1.04l-2.28,3.44c0.14,0.1,0.39,0.3,0.73,0.61c0.35,0.31,0.64,0.55,0.88,0.75    c1.06,0.69,2.15,1.21,3.27,1.58c1.13,0.36,2.27,0.37,3.43,0.04c1.17-0.33,2.21-1.2,3.13-2.59c0.85-1.29,1.27-2.51,1.23-3.66    c-0.03-1.15-0.36-2.18-1.01-3.09c-0.65-0.91-1.48-1.72-2.49-2.41l-14.66-10.09l-2.31,3.5l14.67,10.09    C396.93,299.58,397.39,300.07,397.6,300.56z"/>
		<linearGradient id="SVGID_56_" gradientUnits="userSpaceOnUse" x1="456.175" y1="231.998" x2="477.258" y2="231.998">
			<stop offset="0" style="stop-color:#C7A255"/>
			<stop offset="0.4274" style="stop-color:#FBF5BE"/>
			<stop offset="0.986" style="stop-color:#BC9641"/>
		</linearGradient>
		<path class="st56" d="M464.55,243.55l-0.99-5.04l6.23-3.1l3.52,3.79l3.95-1.97l-16.69-18.76l-4.39,2.19l4.42,24.86L464.55,243.55z     M467.09,232.13l-4.18,2.08l-1.75-9.04L467.09,232.13z"/>
		<linearGradient id="SVGID_57_" gradientUnits="userSpaceOnUse" x1="425.1704" y1="250.7339" x2="448.9662" y2="250.7339">
			<stop offset="0" style="stop-color:#C7A255"/>
			<stop offset="0.4274" style="stop-color:#FBF5BE"/>
			<stop offset="0.986" style="stop-color:#BC9641"/>
		</linearGradient>
		<path class="st57" d="M437.67,261.31l-1.92-4.76l5.54-4.26l4.16,3.03l3.51-2.7l-19.89-15.16l-3.9,3l8.99,23.54L437.67,261.31z     M438.03,249.59l-3.72,2.86l-3.41-8.53L438.03,249.59z"/>
		<linearGradient id="SVGID_58_" gradientUnits="userSpaceOnUse" x1="426.4161" y1="457.5196" x2="655.2042" y2="457.5196">
			<stop offset="0" style="stop-color:#C7A255"/>
			<stop offset="0.4274" style="stop-color:#FBF5BE"/>
			<stop offset="0.986" style="stop-color:#BC9641"/>
		</linearGradient>
		<path class="st58" d="M655.2,453.47c-9.13,2.41-13.04,3.6-21.44,3.76c-13.42-1.05-21.29-6.14-30.71-6.13    c-10.99,0.05-17.49,6.28-30.54,6.12c-11.2-1.04-19.04-6.42-30.68-6.09c-10.54,0.37-19.6,5.88-30.59,6.1    c-13.96-0.61-18.73-6.22-30.53-5.98c-9.27-0.37-21.22,5.94-30.6,6.09c-7.44,0.48-17.75-2.1-23.7-4.56    c1.17,2.59,3.97,6.32,5.2,8.65c9.22,2.34,10.91,2.73,18.43,2.42c9.23-0.38,19.04-6.37,30.64-6.57    c10.23-0.09,18.37,6.07,30.62,6.51c11.94-0.75,20.21-6.3,30.52-6.58c12.54,0.13,19.34,5.12,30.61,6.01    c11.66-0.14,26.14-6.64,30.65-5.98c4.31-0.36,16.58,6.02,30.7,5.84c7.05-0.07,10.32-1.02,16.59-2.24    C651.53,458.88,654.08,455.69,655.2,453.47z"/>
		<linearGradient id="SVGID_59_" gradientUnits="userSpaceOnUse" x1="438.8675" y1="472.1845" x2="643.3242" y2="472.1845">
			<stop offset="0" style="stop-color:#C7A255"/>
			<stop offset="0.4274" style="stop-color:#FBF5BE"/>
			<stop offset="0.986" style="stop-color:#BC9641"/>
		</linearGradient>
		<path class="st59" d="M603.03,471.86c11.8,1.48,22.06,6.94,34.38,4.79c1.73-1.95,4.29-4.59,5.91-6.6    c-5.29,1.12-5.26,1.05-9.37,1.44c-14.49,0.12-19.81-4.27-30.91-5.73c-5.93-0.11-21.29,6.55-30.56,6.27    c-10.46-0.27-19.73-6.25-30.62-6.17c-9.48,0.01-20.69,5.1-30.61,6.17c-10.38-1.44-19.81-6.03-30.53-6.15    c-9.49,0.45-20.36,5.98-30.7,6.07c-5.53-0.15-6.48-0.31-11.15-1.5c0.74,1.05,5.48,6.13,6.46,7.03c1.72,0.23,3.22,0.32,4.83,0.43    c9.75-0.55,21.15-5.6,30.47-6.06c10.32,0.55,19.7,5.66,30.54,6.73c9.72-0.87,22.18-6.73,30.78-6.73    c10.81-0.01,19.73,6.21,30.45,6.64C581.84,478.75,593.76,471.98,603.03,471.86z"/>
		<linearGradient id="SVGID_60_" gradientUnits="userSpaceOnUse" x1="407.4209" y1="347.0119" x2="674.618" y2="347.0119">
			<stop offset="0" style="stop-color:#C7A255"/>
			<stop offset="0.4274" style="stop-color:#FBF5BE"/>
			<stop offset="0.986" style="stop-color:#BC9641"/>
		</linearGradient>
		<path class="st60" d="M542.61,276.05c-0.4,8.37-2.67,12.98-6.86,17.07c-3.34,3.27-7.02,6.96-8.45,11.18    c-0.9,2.66-1.01,5.04-0.76,7.3c-1.76-1.73-3.65-2.58-6.59-3.66c-2.54-0.8-4.83-1.5-7.95-6.67c-0.39,3.14-1.32,4.8-3.5,6.81    c-2.78,2.31-4.96,3.85-6.75,5.88c-3.21,4.22-3.55,7.95-3.07,9.47c-1.44-2.92-6.9-6.42-15.27-6.22c-3.91-0.24-7.47,1.3-12.06,2.45    c-10.11,1.77-13.67-0.24-13.54-0.04c2.97,3.94,5.14,10.74,6.22,15.11c0.86,2.81,1.38,4.45,2.54,6.59    c2.13,4.09,3.96,4.66,6.66,6.31c-4.74-1.71-11.51-2.05-18.84,0.47c-4.64,1.47-9.36,4.6-15.4,9.8c3.17,1.02,5.21,2.19,7.4,4.8    c2.29,2.58,4.29,5.66,6.85,7.75c2.05,2.31,6.82,5.65,10.42,6.69c-11.51,5.67-8.63,12.59-17.05,18.64    c3.98,0.7,7.01,1.92,10.15,3.55c3.88,1.86,6.25,3.29,9.79,4.98c3.07,1.42,8.01,4.33,18.09,4.45c7.98,0.33,12-1.53,17.22-3.56    c3.99-1.85,4.73-2.12,7.14-3.64c-0.81,3.63-0.49,2.09-0.15,5.79c0.85,3.54,2.4,5.65,8.35,9.41c3.51,1.31,6.18,2.06,9.99,3.31    c3.65,1.06,6.29,1.6,9.01,5.51c1.08,2.52,0.89,3.67,0.82,4.16c-0.45,2.83-1.23,3.31-2.21,6.62c-1.34,0.32-2.68,0.7-4,1.16    c-9.87,2.45-13.3,4.13-19.33,4.72c-10.87-1.32-18.23-6.6-30.65-6.23c-16.86-0.05-16.83,5.11-31.03,6.03    c-2.17,0.05-2.75,0.06-6.31-0.19c-10.82-16.61-16.25-40.64-16.25-54.72c0-64.49,47.89-111.62,104.83-115.89    c2.45-0.18,4.38-0.31,6.87-0.34c0.52-1.87,1.14-3.69,1.98-5.44c-3.01-0.03-5.45,0.08-8.4,0.27    c-60.17,3.92-111.31,54.86-110.58,121.4c0.91,22.41,6.61,38.03,14.71,54.52c-4.68-0.83-7.5-1.68-8.75-2.23    c-7.63-15.44-12.71-34.35-12.71-52.29c-2.3-69.67,55.68-129.22,125.76-128.57c1.67,0,3.33,0.04,4.99,0.11    c0.02-0.03-0.29,0.01-0.27-0.02c2.93-3.11,5.8-4.7,9.17-7.2c-5.23-0.64-8.49-0.78-13.89-0.78c-20.48,0.21-39.59,4.3-56.99,12.96    c-46.54,21.94-77.91,69.32-76.48,123.49c0,19.18,5.25,39.51,13.72,56.67c9.38,4.44,24.99,5.55,28.65,5.14    c15.78-0.57,15.89-6.12,30.82-6.78c11.74-0.2,20.06,7.04,30.57,6.44c12.26,0.16,19.49-6.11,30.63-6.54    c10.8-0.4,19.28,6.04,30.66,6.57c10.12,0.97,20.87-6.12,30.73-6.75c6.89-0.18,15.63,4.81,30.42,6.64    c8.24,0.33,26.78-5.51,27.87-6.5c8.03-17.39,12.58-35,13.06-54.89c0.66-29.49-9.13-58.48-24.77-79.94    c-18.68-26.03-44.07-43.62-74.1-51.72c-1.83-0.49-3.04-0.99-4.9-1.42c0.29,1.99-1.62,5.76-2.28,7.65    c55.57,12.1,98.82,62.33,98.16,125.42c-0.33,17.6-5.24,36.47-12.66,52.06c-2.96,1.16-6.34,1.79-9.13,2.29    c7.88-14.97,13.94-32.65,14.85-53.76c0.56-54.3-32.09-99.18-79.9-115.54c-4.07-1.45-7.54-2.5-11.79-3.49    c0.58,1.59,1.02,3.57,1.62,5.95c3.47,0.89,6.16,1.78,9.5,2.98c44.25,16.01,75.09,56.52,75.09,109.32    c-0.39,20.49-6.61,38.88-15.72,54.78c-2.62,0.32-2.53,0.59-4.89,0.5c-6.88-0.29-18.1-6.04-30.56-6.16    c-11.28-0.31-19.88,6.32-30.72,5.97c-8.86-1.03-5.87-3.15-23.44-6.18c-1.03-0.18-2.05-0.29-3.07-0.37    c0.43-3.52,0.76-5.25,1.45-7.24c1.91-5.5,6.8-7.06,17.53-11.46c5.95-3.76,7.51-5.87,8.35-9.41c0.34-3.7,0.66-2.16-0.15-5.79    c2.41,1.52,3.15,1.79,7.14,3.64c5.22,2.04,7.79,3.53,17.22,3.56c10.09-0.12,15.02-3.03,18.09-4.45c3.54-1.69,5.91-3.12,9.79-4.98    c3.14-1.63,6.16-2.85,10.15-3.55c-8.42-6.05-5.54-12.96-17.05-18.64c3.6-1.04,8.37-4.38,10.42-6.69c2.57-2.08,4.57-5.17,6.86-7.75    c2.18-2.6,4.23-3.77,7.4-4.8c-6.05-5.2-10.76-8.33-15.4-9.8c-7.33-2.52-14.11-2.18-18.85-0.47c2.69-1.65,4.52-2.22,6.65-6.31    c1.16-2.14,1.68-3.78,2.54-6.59c1.07-4.37,3.25-11.18,6.22-15.11c0.12-0.2-3.44,1.81-13.55,0.04c-4.59-1.16-8.16-2.69-12.06-2.45    c-8.37-0.2-13.83,3.3-15.27,6.22c0.48-1.53,0.14-5.25-3.07-9.47c-1.78-2.49-3.36-3.84-6.75-5.88c-2.18-2.01-3.11-3.67-3.5-6.81    c-3.43,4.84-5.2,5.44-7.63,6.45c-2.79,1.32-5.36,1.91-7.64,3.92c-2.56,2.23-3.32,4.01-4.54,6.52c-1.43-2.59-3.48-4.38-3.71-4.92    c-1.43-4.88,10.52-6.13,14.18-11.08c3.45-4.12,5.39-9.37,5.56-14.44c0.34-9.95-1.46-13.01-2.97-18.79c-1.3-5,0.32-8.63,1.98-13    c1.24-3.27,0.24-8.45-0.9-10.92c-0.55,3.53-2.35,6.15-4.58,8.26c-2.97,3.53-7.39,5.47-10.73,8.65    C545.4,265.45,542.85,271.01,542.61,276.05z M512.93,309.44c1.17,2.61,5.54,5.48,10.14,8.09c5.04,3.05,4.6,7.42,1.57,9.3    c-5.69,1.05-12.44,3.12-18.19,5C497.3,322.6,513.13,316.62,512.93,309.44z M523.71,334.71c1.74,6.72,10.64,9.48,11.14,10.18    c-0.84,0.91-2.61,2.89-5.27,4.86c-5.43-7.97-9.65-10.99-18.85-10.87c-0.37,7.28-2.77,10.28-4.08,13.57    c-1.86-3.91-4.59-7.17-10.47-9.1C501.02,339.94,523.12,332.44,523.71,334.71z M541.05,345.72c2.52,3.85,6.93,8.21,10.74,10.91    c7.67,5.82,9.32,14.31,9.62,17.3c0.35,4.65-0.23,7.18-1.76,10.18c-4.19,7.32-10.88,7.98-18.63,5.45    c-7.74,2.53-14.43,1.87-18.63-5.45c-1.53-3-2.1-5.53-1.76-10.18c0.31-2.99,1.95-11.48,9.62-17.3    C534.08,353.93,538.53,349.57,541.05,345.72z M467.45,325.44c13.75,0.16,20.19-5.55,30.92,3.84c0.51,1.48,1.85,2.36,2.01,4.77    c-6.33,2.75-10.2,4.47-15.02,7.32c-2.12,1.25-5.17,1.29-7.69,1.06C470.47,339.75,471.45,330.18,467.45,325.44z M448.63,357.94    c10.15-6.47,20.34-8.12,25.99-4.03c5.88,4.26,5.93,12.78,7.94,19.56C455.27,374.46,456.35,359.2,448.63,357.94z M486.33,401.79    c-15.97-0.45-24.66-9.67-30.6-8.33c7.14-6.36,4.19-6.46,12.5-11.83c5.98-3.85,15.12-4.46,19.6,2.34    c4.59,6.97,10.19,11.11,18.97,13.08C500.11,400.67,492.67,401.97,486.33,401.79z M489.6,375.49c-1.99-9.64-2.3-20.61-9.48-25.64    c13.31-5.97,24.85,1.27,21.17,15.67c-2.56,10.62,1.44,20.24,7.63,24.32C496.7,389.02,491.88,383.12,489.6,375.49z M511.69,353.69    c1.16-2.77,1.74-5.62,3.23-8.54c7.56,0.5,8.89,5.73,10.15,9.07c-12.7,10.89-13.11,25.1-5.41,35.58    C503.13,383.56,503.2,370.2,511.69,353.69z M565.68,408.67c-2.59,3.27-7.16,4.79-9.22,5.06c-4.82,1.38-5.43,1.52-9.33,3.3    c-1.34,0.61-5.96,3.35-6.11,4.99v0.08c-0.24-1.66-4.77-4.46-6.1-5.07c-3.89-1.78-4.51-1.92-9.32-3.3    c-2.06-0.27-6.63-1.79-9.22-5.06c-1.09-1.38-1.88-3.28-1.9-5.2c0.14-2.64,2.27-8.55,8.31-7.68c3.25,0.06,7.7,2.2,11.09,1.66    c2.35-0.36,5.14-1.88,7.17-1.89c2.03,0.01,4.79,1.53,7.14,1.89c3.4,0.54,7.84-1.59,11.09-1.66c6.03-0.87,8.16,5.04,8.31,7.68    C567.56,405.38,566.77,407.28,565.68,408.67z M562.39,389.8c7.7-10.48,7.29-24.7-5.41-35.58c1.26-3.33,2.59-8.57,10.15-9.07    c1.5,2.92,2.08,5.78,3.24,8.54C578.85,370.2,578.92,383.56,562.39,389.8z M580.76,365.52c-3.68-14.4,7.87-21.64,21.17-15.67    c-7.18,5.03-7.48,16-9.47,25.64c-2.28,7.63-7.1,13.53-19.33,14.35C579.32,385.76,583.32,376.14,580.76,365.52z M626.32,393.46    c-5.94-1.35-14.62,7.87-30.6,8.33c-6.34,0.18-13.78-1.11-20.47-4.74c8.79-1.97,14.39-6.11,18.97-13.08    c4.48-6.8,13.62-6.19,19.59-2.34C622.13,387,619.18,387.1,626.32,393.46z M633.43,357.94c-7.73,1.26-6.64,16.52-33.93,15.52    c2.01-6.78,2.06-15.3,7.95-19.56C613.09,349.82,623.28,351.47,633.43,357.94z M583.69,329.27c10.73-9.38,17.16-3.67,30.92-3.84    c-4,4.74-3.02,14.31-10.21,16.99c-2.51,0.24-5.57,0.2-7.69-1.06c-4.82-2.85-8.69-4.57-15.02-7.32    C581.83,331.63,582.78,330.68,583.69,329.27z M558.77,317.21c3.47-2.99,9.19-5.16,10.36-7.77c-0.2,7.18,15.63,13.16,6.47,22.4    c-5.75-1.88-12.51-3.95-18.2-5C554.38,324.95,554.58,321.12,558.77,317.21z M558.41,334.45c1.39-1.01,22.62,5.5,27.44,8.9    c-5.88,1.93-8.61,5.19-10.47,9.1c-1.31-3.29-3.7-6.29-4.08-13.57c-9.2-0.11-13.77,3.4-19.2,11.38c-2.62-2.17-4.46-4.66-4.91-5.39    C547.77,344.38,556.67,341.17,558.41,334.45z M548.88,329.53c0,0,0.01-0.01,0.01-0.01c0,0,0.01,0,0.01,0    c2.07-0.73,3.07,0.4,3.84,2.13c0.32,1.55-0.04,2.57-0.72,3.9c-2.09,2.56-5.25,3.69-8.72,4.28c-0.64,0.11-1.16-2.93-2.26-2.79    c-1.11-0.14-1.66,2.9-2.3,2.79c-3.46-0.58-6.63-1.71-8.71-4.28c-0.68-1.33-1.03-2.35-0.72-3.9c0.77-1.73,1.77-2.86,3.84-2.13    c0.08,0.01,0.16,0.03,0.25,0.05c0,0,0,0,0,0c0,0,0.01,0,0.01,0c0.52,0.13,1.04,0.37,1.55,0.67c1.95,1.16,3.98,3.29,6,3.3    C543.56,333.65,546.44,329.9,548.88,329.53z M551.1,270.04c0.63-3.87,4.07-6.44,6.91-8.03c-3.22,10.18,0.41,17.76,1.32,25.17    c0.37,12.35-6.89,13.23-14.91,18.55c-2.25,1.49-3.97,3.9-4.29,6.6c-0.61,5.16,5.06,5.49,5.77,8.25c0.45,1.78-0.94,4.5-2.68,5.04    c-2.04,0.63-4.49-0.05-5.86-1.71c-2.37-2.87-3.97-6.74-4.2-10.47c-0.25-4.05-0.09-6.23,1.56-9.93c2.11-4.74,8.37-6.97,11.28-11.17    c2.73-3.93,3.85-6.44,4.08-11.39C550.23,277.44,550.46,273.95,551.1,270.04z"/>
	</g>
	<g>
		<linearGradient id="SVGID_61_" gradientUnits="userSpaceOnUse" x1="92.6104" y1="718.8273" x2="867.6525" y2="723.3334">
			<stop offset="0" style="stop-color:#C7A255"/>
			<stop offset="0.4274" style="stop-color:#FBF5BE"/>
			<stop offset="0.986" style="stop-color:#BC9641"/>
		</linearGradient>
		<path class="st61" d="M111.91,688.31v16.51h-1.62c-0.96-3.81-2.03-6.54-3.19-8.21c-1.17-1.66-2.77-2.99-4.81-3.98    c-1.14-0.54-3.13-0.81-5.98-0.81h-4.54v47.05c0,3.12,0.17,5.07,0.52,5.85c0.34,0.78,1.02,1.46,2.03,2.05    c1,0.59,2.38,0.88,4.12,0.88h2.02v1.66H68.5v-1.66h2.02c1.77,0,3.19-0.32,4.27-0.95c0.78-0.42,1.4-1.14,1.84-2.16    c0.33-0.72,0.49-2.61,0.49-5.67v-47.05h-4.41c-4.11,0-7.09,0.87-8.95,2.61c-2.61,2.43-4.26,5.89-4.95,10.39h-1.71v-16.51H111.91z"/>
		<linearGradient id="SVGID_62_" gradientUnits="userSpaceOnUse" x1="92.6116" y1="718.6136" x2="867.6537" y2="723.1197">
			<stop offset="0" style="stop-color:#C7A255"/>
			<stop offset="0.4274" style="stop-color:#FBF5BE"/>
			<stop offset="0.986" style="stop-color:#BC9641"/>
		</linearGradient>
		<path class="st62" d="M135.52,688.31v24.34c2.31-2.43,4.42-4.15,6.35-5.15c1.92-1.01,3.91-1.51,5.98-1.51    c2.64,0,4.9,0.75,6.77,2.25c1.88,1.5,3.12,3.26,3.73,5.29c0.61,2.03,0.92,5.44,0.92,10.23v16.42c0,3.21,0.3,5.21,0.9,6.01    c0.6,0.79,1.82,1.3,3.65,1.51v1.62H142.5v-1.62c1.5-0.21,2.62-0.81,3.37-1.8c0.54-0.78,0.81-2.68,0.81-5.71v-18.76    c0-3.48-0.14-5.66-0.41-6.55c-0.27-0.88-0.73-1.57-1.37-2.07c-0.65-0.5-1.37-0.74-2.18-0.74c-1.2,0-2.37,0.41-3.51,1.24    c-1.14,0.82-2.37,2.27-3.69,4.34v22.54c0,3,0.23,4.87,0.68,5.62c0.57,1.02,1.74,1.65,3.51,1.89v1.62h-21.32v-1.62    c1.77-0.18,3.03-0.75,3.78-1.71c0.51-0.66,0.77-2.59,0.77-5.8v-42.73c0-3.18-0.29-5.16-0.88-5.94c-0.58-0.78-1.81-1.29-3.67-1.53    v-1.66H135.52z"/>
		<linearGradient id="SVGID_63_" gradientUnits="userSpaceOnUse" x1="92.5586" y1="727.723" x2="867.6008" y2="732.2291">
			<stop offset="0" style="stop-color:#C7A255"/>
			<stop offset="0.4274" style="stop-color:#FBF5BE"/>
			<stop offset="0.986" style="stop-color:#BC9641"/>
		</linearGradient>
		<path class="st63" d="M205.21,726.77h-23.08c0.27,5.58,1.76,9.99,4.46,13.23c2.07,2.49,4.56,3.73,7.47,3.73    c1.8,0,3.44-0.5,4.9-1.51c1.47-1.01,3.04-2.81,4.73-5.42l1.53,0.99c-2.28,4.65-4.8,7.94-7.56,9.87c-2.76,1.94-5.95,2.9-9.58,2.9    c-6.24,0-10.96-2.4-14.17-7.2c-2.58-3.87-3.87-8.67-3.87-14.39c0-7.02,1.9-12.6,5.69-16.76c3.79-4.15,8.24-6.23,13.34-6.23    c4.26,0,7.95,1.75,11.09,5.24S204.96,719.91,205.21,726.77z M194.14,723.76c0-4.83-0.26-8.14-0.79-9.94    c-0.53-1.8-1.34-3.16-2.45-4.09c-0.63-0.54-1.47-0.81-2.52-0.81c-1.56,0-2.83,0.76-3.82,2.3c-1.77,2.67-2.65,6.33-2.65,10.98v1.57    H194.14z"/>
		<linearGradient id="SVGID_64_" gradientUnits="userSpaceOnUse" x1="92.6166" y1="717.759" x2="867.6587" y2="722.265">
			<stop offset="0" style="stop-color:#C7A255"/>
			<stop offset="0.4274" style="stop-color:#FBF5BE"/>
			<stop offset="0.986" style="stop-color:#BC9641"/>
		</linearGradient>
		<path class="st64" d="M274.3,728.53l16.55-40.22h24.83v1.66h-1.98c-1.8,0-3.24,0.32-4.32,0.95c-0.75,0.42-1.35,1.13-1.8,2.11    c-0.33,0.72-0.5,2.59-0.5,5.62v40.22c0,3.12,0.17,5.07,0.5,5.85c0.33,0.78,1,1.46,2.02,2.05c1.02,0.59,2.38,0.88,4.09,0.88h1.98    v1.66h-31.85v-1.66h1.98c1.8,0,3.24-0.32,4.32-0.95c0.75-0.42,1.35-1.14,1.8-2.16c0.33-0.72,0.49-2.61,0.49-5.67v-45.21    l-23.39,55.65h-1.08l-23.75-55.24v42.96c0,3,0.07,4.84,0.23,5.53c0.39,1.5,1.24,2.72,2.54,3.67c1.3,0.95,3.35,1.42,6.14,1.42v1.66    h-20.87v-1.66h0.63c1.35,0.03,2.61-0.19,3.78-0.65c1.17-0.47,2.05-1.09,2.65-1.87c0.6-0.78,1.07-1.88,1.4-3.29    c0.06-0.33,0.09-1.86,0.09-4.59v-38.6c0-3.09-0.16-5.02-0.49-5.78c-0.33-0.76-1.01-1.44-2.03-2.02c-1.02-0.59-2.38-0.88-4.09-0.88    h-1.93v-1.66h24.92L274.3,728.53z"/>
		<linearGradient id="SVGID_65_" gradientUnits="userSpaceOnUse" x1="92.5656" y1="726.5311" x2="867.6077" y2="731.0372">
			<stop offset="0" style="stop-color:#C7A255"/>
			<stop offset="0.4274" style="stop-color:#FBF5BE"/>
			<stop offset="0.986" style="stop-color:#BC9641"/>
		</linearGradient>
		<path class="st65" d="M343.67,743.1c-5.13,4.53-9.73,6.79-13.81,6.79c-2.4,0-4.39-0.79-5.98-2.36c-1.59-1.57-2.38-3.54-2.38-5.91    c0-3.21,1.38-6.1,4.14-8.66c2.76-2.57,8.77-5.98,18.04-10.23v-4.23c0-3.18-0.17-5.18-0.52-6.01s-1-1.54-1.96-2.16    c-0.96-0.61-2.04-0.92-3.24-0.92c-1.95,0-3.55,0.44-4.81,1.31c-0.78,0.54-1.17,1.17-1.17,1.89c0,0.63,0.42,1.41,1.26,2.34    c1.14,1.29,1.71,2.53,1.71,3.73c0,1.47-0.55,2.72-1.64,3.76c-1.09,1.03-2.52,1.55-4.29,1.55c-1.89,0-3.47-0.57-4.75-1.71    c-1.28-1.14-1.91-2.47-1.91-4c0-2.16,0.86-4.22,2.57-6.18c1.71-1.96,4.09-3.47,7.15-4.52c3.06-1.05,6.24-1.57,9.54-1.57    c3.99,0,7.14,0.85,9.47,2.54c2.32,1.69,3.83,3.53,4.52,5.51c0.42,1.26,0.63,4.16,0.63,8.68v16.33c0,1.92,0.07,3.13,0.22,3.62    c0.15,0.49,0.38,0.86,0.68,1.1c0.3,0.24,0.65,0.36,1.04,0.36c0.78,0,1.57-0.55,2.38-1.66l1.35,1.08c-1.5,2.22-3.05,3.83-4.65,4.84    c-1.61,1.01-3.43,1.51-5.47,1.51c-2.4,0-4.27-0.56-5.62-1.69C344.79,747.09,343.97,745.38,343.67,743.1z M343.67,739.82v-14.08    c-3.63,2.13-6.33,4.41-8.1,6.84c-1.17,1.62-1.76,3.25-1.76,4.9c0,1.38,0.5,2.6,1.49,3.65c0.75,0.81,1.8,1.22,3.15,1.22    C339.95,742.34,341.69,741.5,343.67,739.82z"/>
		<linearGradient id="SVGID_66_" gradientUnits="userSpaceOnUse" x1="92.62" y1="717.1708" x2="867.6621" y2="721.6768">
			<stop offset="0" style="stop-color:#C7A255"/>
			<stop offset="0.4274" style="stop-color:#FBF5BE"/>
			<stop offset="0.986" style="stop-color:#BC9641"/>
		</linearGradient>
		<path class="st66" d="M383.7,688.31v24.34c2.31-2.43,4.42-4.15,6.35-5.15c1.92-1.01,3.91-1.51,5.98-1.51    c2.64,0,4.9,0.75,6.77,2.25c1.88,1.5,3.12,3.26,3.73,5.29c0.61,2.03,0.92,5.44,0.92,10.23v16.42c0,3.21,0.3,5.21,0.9,6.01    c0.6,0.79,1.82,1.3,3.65,1.51v1.62h-21.32v-1.62c1.5-0.21,2.62-0.81,3.37-1.8c0.54-0.78,0.81-2.68,0.81-5.71v-18.76    c0-3.48-0.14-5.66-0.41-6.55c-0.27-0.88-0.73-1.57-1.37-2.07c-0.65-0.5-1.37-0.74-2.18-0.74c-1.2,0-2.37,0.41-3.51,1.24    c-1.14,0.82-2.37,2.27-3.69,4.34v22.54c0,3,0.23,4.87,0.68,5.62c0.57,1.02,1.74,1.65,3.51,1.89v1.62h-21.32v-1.62    c1.77-0.18,3.03-0.75,3.78-1.71c0.51-0.66,0.77-2.59,0.77-5.8v-42.73c0-3.18-0.29-5.16-0.88-5.94c-0.58-0.78-1.81-1.29-3.67-1.53    v-1.66H383.7z"/>
		<linearGradient id="SVGID_67_" gradientUnits="userSpaceOnUse" x1="92.5689" y1="725.9655" x2="867.611" y2="730.4715">
			<stop offset="0" style="stop-color:#C7A255"/>
			<stop offset="0.4274" style="stop-color:#FBF5BE"/>
			<stop offset="0.986" style="stop-color:#BC9641"/>
		</linearGradient>
		<path class="st67" d="M440.97,743.1c-5.13,4.53-9.73,6.79-13.81,6.79c-2.4,0-4.39-0.79-5.98-2.36c-1.59-1.57-2.38-3.54-2.38-5.91    c0-3.21,1.38-6.1,4.14-8.66c2.76-2.57,8.77-5.98,18.04-10.23v-4.23c0-3.18-0.17-5.18-0.52-6.01s-1-1.54-1.96-2.16    c-0.96-0.61-2.04-0.92-3.24-0.92c-1.95,0-3.55,0.44-4.81,1.31c-0.78,0.54-1.17,1.17-1.17,1.89c0,0.63,0.42,1.41,1.26,2.34    c1.14,1.29,1.71,2.53,1.71,3.73c0,1.47-0.55,2.72-1.64,3.76c-1.09,1.03-2.52,1.55-4.29,1.55c-1.89,0-3.47-0.57-4.75-1.71    c-1.28-1.14-1.91-2.47-1.91-4c0-2.16,0.86-4.22,2.57-6.18c1.71-1.96,4.09-3.47,7.15-4.52c3.06-1.05,6.24-1.57,9.54-1.57    c3.99,0,7.14,0.85,9.47,2.54c2.32,1.69,3.83,3.53,4.52,5.51c0.42,1.26,0.63,4.16,0.63,8.68v16.33c0,1.92,0.07,3.13,0.22,3.62    c0.15,0.49,0.38,0.86,0.68,1.1c0.3,0.24,0.65,0.36,1.04,0.36c0.78,0,1.57-0.55,2.38-1.66l1.35,1.08c-1.5,2.22-3.05,3.83-4.65,4.84    c-1.61,1.01-3.43,1.51-5.47,1.51c-2.4,0-4.27-0.56-5.62-1.69C442.09,747.09,441.27,745.38,440.97,743.1z M440.97,739.82v-14.08    c-3.63,2.13-6.33,4.41-8.1,6.84c-1.17,1.62-1.76,3.25-1.76,4.9c0,1.38,0.5,2.6,1.49,3.65c0.75,0.81,1.8,1.22,3.15,1.22    C437.25,742.34,438.99,741.5,440.97,739.82z"/>
		<linearGradient id="SVGID_68_" gradientUnits="userSpaceOnUse" x1="92.5721" y1="725.4031" x2="867.6143" y2="729.9091">
			<stop offset="0" style="stop-color:#C7A255"/>
			<stop offset="0.4274" style="stop-color:#FBF5BE"/>
			<stop offset="0.986" style="stop-color:#BC9641"/>
		</linearGradient>
		<path class="st68" d="M481.27,707.25v9.54c2.79-4.35,5.23-7.24,7.33-8.66c2.1-1.42,4.12-2.14,6.07-2.14    c1.68,0,3.02,0.52,4.03,1.55c1,1.03,1.51,2.5,1.51,4.38c0,2.01-0.49,3.57-1.46,4.68c-0.97,1.11-2.15,1.66-3.53,1.66    c-1.59,0-2.97-0.51-4.14-1.53c-1.17-1.02-1.86-1.59-2.07-1.71c-0.3-0.18-0.65-0.27-1.03-0.27c-0.87,0-1.69,0.33-2.47,0.99    c-1.23,1.02-2.16,2.48-2.79,4.37c-0.96,2.91-1.44,6.12-1.44,9.63v9.67l0.05,2.52c0,1.71,0.11,2.8,0.32,3.28    c0.36,0.81,0.89,1.4,1.6,1.78c0.7,0.37,1.9,0.61,3.58,0.7v1.62h-22.72v-1.62c1.83-0.15,3.07-0.65,3.71-1.51    c0.65-0.86,0.97-3.11,0.97-6.77v-23.26c0-2.4-0.12-3.93-0.36-4.59c-0.3-0.84-0.74-1.45-1.31-1.84c-0.57-0.39-1.57-0.66-3.01-0.81    v-1.66H481.27z"/>
		<linearGradient id="SVGID_69_" gradientUnits="userSpaceOnUse" x1="92.5718" y1="725.46" x2="867.6139" y2="729.966">
			<stop offset="0" style="stop-color:#C7A255"/>
			<stop offset="0.4274" style="stop-color:#FBF5BE"/>
			<stop offset="0.986" style="stop-color:#BC9641"/>
		</linearGradient>
		<path class="st69" d="M527.92,743.1c-5.13,4.53-9.73,6.79-13.81,6.79c-2.4,0-4.39-0.79-5.98-2.36c-1.59-1.57-2.38-3.54-2.38-5.91    c0-3.21,1.38-6.1,4.14-8.66c2.76-2.57,8.77-5.98,18.04-10.23v-4.23c0-3.18-0.17-5.18-0.52-6.01c-0.34-0.82-1-1.54-1.96-2.16    c-0.96-0.61-2.04-0.92-3.24-0.92c-1.95,0-3.55,0.44-4.81,1.31c-0.78,0.54-1.17,1.17-1.17,1.89c0,0.63,0.42,1.41,1.26,2.34    c1.14,1.29,1.71,2.53,1.71,3.73c0,1.47-0.55,2.72-1.64,3.76c-1.09,1.03-2.52,1.55-4.29,1.55c-1.89,0-3.47-0.57-4.75-1.71    c-1.28-1.14-1.91-2.47-1.91-4c0-2.16,0.86-4.22,2.57-6.18c1.71-1.96,4.09-3.47,7.15-4.52c3.06-1.05,6.24-1.57,9.54-1.57    c3.99,0,7.14,0.85,9.47,2.54s3.83,3.53,4.52,5.51c0.42,1.26,0.63,4.16,0.63,8.68v16.33c0,1.92,0.07,3.13,0.22,3.62    c0.15,0.49,0.38,0.86,0.68,1.1c0.3,0.24,0.65,0.36,1.04,0.36c0.78,0,1.57-0.55,2.38-1.66l1.35,1.08c-1.5,2.22-3.05,3.83-4.65,4.84    c-1.61,1.01-3.43,1.51-5.47,1.51c-2.4,0-4.27-0.56-5.62-1.69C529.04,747.09,528.22,745.38,527.92,743.1z M527.92,739.82v-14.08    c-3.63,2.13-6.33,4.41-8.1,6.84c-1.17,1.62-1.76,3.25-1.76,4.9c0,1.38,0.5,2.6,1.49,3.65c0.75,0.81,1.8,1.22,3.15,1.22    C524.2,742.34,525.94,741.5,527.92,739.82z"/>
		<linearGradient id="SVGID_70_" gradientUnits="userSpaceOnUse" x1="92.5725" y1="725.3408" x2="867.6146" y2="729.8469">
			<stop offset="0" style="stop-color:#C7A255"/>
			<stop offset="0.4274" style="stop-color:#FBF5BE"/>
			<stop offset="0.986" style="stop-color:#BC9641"/>
		</linearGradient>
		<path class="st70" d="M569.98,707.25v43.54c0,4.08-0.26,7.09-0.76,9.04c-0.75,2.82-2.24,5.08-4.48,6.79    c-2.23,1.71-5.18,2.57-8.84,2.57c-3.69,0-6.41-0.75-8.17-2.25c-1.76-1.5-2.63-3.31-2.63-5.44c0-1.32,0.46-2.47,1.37-3.44    c0.91-0.97,1.98-1.46,3.21-1.46c1.14,0,2.04,0.34,2.7,1.01s0.99,1.69,0.99,3.04c0,0.36-0.02,0.78-0.05,1.26    c-0.06,0.63-0.09,1.06-0.09,1.3c0,1.05,0.24,1.83,0.72,2.34c0.48,0.51,1.09,0.77,1.84,0.77c0.69,0,1.28-0.3,1.78-0.9    c0.49-0.6,0.74-1.45,0.74-2.56c0-0.6-0.09-1.82-0.27-3.65c-0.3-3.33-0.47-5.34-0.49-6.03l-0.14-10.66v-26l0.05-2.34    c0-1.89-0.32-3.19-0.97-3.89c-0.65-0.7-2-1.16-4.07-1.37v-1.66H569.98z M563.68,686.92c1.92,0,3.54,0.67,4.88,2    c1.33,1.34,2,2.95,2,4.84c0,1.92-0.67,3.55-2.03,4.9c-1.35,1.35-2.97,2.02-4.86,2.02c-1.89,0-3.51-0.68-4.86-2.02    c-1.35-1.35-2.02-2.98-2.02-4.9c0-1.89,0.67-3.5,2-4.84C560.14,687.59,561.77,686.92,563.68,686.92z"/>
		<linearGradient id="SVGID_71_" gradientUnits="userSpaceOnUse" x1="92.5744" y1="725.0138" x2="867.6165" y2="729.5198">
			<stop offset="0" style="stop-color:#C7A255"/>
			<stop offset="0.4274" style="stop-color:#FBF5BE"/>
			<stop offset="0.986" style="stop-color:#BC9641"/>
		</linearGradient>
		<path class="st71" d="M604.66,743.1c-5.13,4.53-9.73,6.79-13.81,6.79c-2.4,0-4.39-0.79-5.98-2.36c-1.59-1.57-2.38-3.54-2.38-5.91    c0-3.21,1.38-6.1,4.14-8.66c2.76-2.57,8.77-5.98,18.04-10.23v-4.23c0-3.18-0.17-5.18-0.52-6.01c-0.34-0.82-1-1.54-1.96-2.16    c-0.96-0.61-2.04-0.92-3.24-0.92c-1.95,0-3.56,0.44-4.81,1.31c-0.78,0.54-1.17,1.17-1.17,1.89c0,0.63,0.42,1.41,1.26,2.34    c1.14,1.29,1.71,2.53,1.71,3.73c0,1.47-0.55,2.72-1.64,3.76c-1.09,1.03-2.53,1.55-4.3,1.55c-1.89,0-3.47-0.57-4.75-1.71    c-1.28-1.14-1.91-2.47-1.91-4c0-2.16,0.85-4.22,2.56-6.18c1.71-1.96,4.09-3.47,7.15-4.52c3.06-1.05,6.24-1.57,9.54-1.57    c3.99,0,7.14,0.85,9.47,2.54c2.32,1.69,3.83,3.53,4.52,5.51c0.42,1.26,0.63,4.16,0.63,8.68v16.33c0,1.92,0.07,3.13,0.22,3.62    s0.37,0.86,0.68,1.1c0.3,0.24,0.64,0.36,1.03,0.36c0.78,0,1.57-0.55,2.38-1.66l1.35,1.08c-1.5,2.22-3.05,3.83-4.66,4.84    c-1.61,1.01-3.43,1.51-5.47,1.51c-2.4,0-4.27-0.56-5.62-1.69C605.79,747.09,604.96,745.38,604.66,743.1z M604.66,739.82v-14.08    c-3.63,2.13-6.33,4.41-8.09,6.84c-1.17,1.62-1.76,3.25-1.76,4.9c0,1.38,0.49,2.6,1.49,3.65c0.75,0.81,1.8,1.22,3.15,1.22    C600.95,742.34,602.68,741.5,604.66,739.82z"/>
		<linearGradient id="SVGID_72_" gradientUnits="userSpaceOnUse" x1="92.63" y1="715.4465" x2="867.6721" y2="719.9526">
			<stop offset="0" style="stop-color:#C7A255"/>
			<stop offset="0.4274" style="stop-color:#FBF5BE"/>
			<stop offset="0.986" style="stop-color:#BC9641"/>
		</linearGradient>
		<path class="st72" d="M690.72,686.92l0.5,20.33h-1.84c-0.87-5.1-3.01-9.2-6.41-12.3c-3.4-3.11-7.09-4.66-11.04-4.66    c-3.06,0-5.48,0.82-7.26,2.45s-2.68,3.52-2.68,5.65c0,1.35,0.32,2.55,0.95,3.6c0.87,1.41,2.27,2.81,4.19,4.19    c1.41,0.99,4.66,2.74,9.76,5.26c7.14,3.51,11.95,6.82,14.44,9.94c2.46,3.12,3.69,6.69,3.69,10.71c0,5.1-1.99,9.49-5.96,13.16    c-3.97,3.67-9.02,5.51-15.14,5.51c-1.92,0-3.73-0.2-5.44-0.58c-1.71-0.39-3.85-1.13-6.43-2.21c-1.44-0.6-2.63-0.9-3.55-0.9    c-0.78,0-1.61,0.3-2.47,0.9c-0.87,0.6-1.57,1.51-2.11,2.74h-1.67v-23.03h1.67c1.32,6.48,3.86,11.42,7.62,14.82    c3.76,3.41,7.82,5.11,12.17,5.11c3.36,0,6.04-0.91,8.03-2.74c2-1.83,2.99-3.96,2.99-6.39c0-1.44-0.38-2.84-1.15-4.19    c-0.77-1.35-1.93-2.63-3.49-3.84c-1.56-1.22-4.32-2.8-8.28-4.75c-5.55-2.73-9.54-5.05-11.96-6.97c-2.43-1.92-4.3-4.06-5.6-6.43    s-1.96-4.98-1.96-7.83c0-4.86,1.78-9,5.35-12.41c3.57-3.42,8.07-5.13,13.5-5.13c1.98,0,3.9,0.24,5.76,0.72    c1.41,0.36,3.13,1.03,5.15,2c2.03,0.97,3.44,1.46,4.25,1.46c0.78,0,1.39-0.24,1.84-0.72c0.45-0.48,0.87-1.63,1.26-3.46H690.72z"/>
		<linearGradient id="SVGID_73_" gradientUnits="userSpaceOnUse" x1="92.5785" y1="724.3142" x2="867.6206" y2="728.8203">
			<stop offset="0" style="stop-color:#C7A255"/>
			<stop offset="0.4274" style="stop-color:#FBF5BE"/>
			<stop offset="0.986" style="stop-color:#BC9641"/>
		</linearGradient>
		<path class="st73" d="M725,743.1c-5.13,4.53-9.73,6.79-13.81,6.79c-2.4,0-4.39-0.79-5.98-2.36c-1.59-1.57-2.38-3.54-2.38-5.91    c0-3.21,1.38-6.1,4.14-8.66c2.76-2.57,8.77-5.98,18.04-10.23v-4.23c0-3.18-0.17-5.18-0.52-6.01s-1-1.54-1.96-2.16    c-0.96-0.61-2.04-0.92-3.24-0.92c-1.95,0-3.56,0.44-4.81,1.31c-0.78,0.54-1.17,1.17-1.17,1.89c0,0.63,0.42,1.41,1.26,2.34    c1.14,1.29,1.71,2.53,1.71,3.73c0,1.47-0.55,2.72-1.64,3.76c-1.09,1.03-2.53,1.55-4.3,1.55c-1.89,0-3.47-0.57-4.75-1.71    c-1.28-1.14-1.91-2.47-1.91-4c0-2.16,0.85-4.22,2.56-6.18c1.71-1.96,4.09-3.47,7.15-4.52c3.06-1.05,6.24-1.57,9.54-1.57    c3.99,0,7.14,0.85,9.47,2.54c2.32,1.69,3.83,3.53,4.52,5.51c0.42,1.26,0.63,4.16,0.63,8.68v16.33c0,1.92,0.07,3.13,0.22,3.62    s0.37,0.86,0.68,1.1c0.3,0.24,0.64,0.36,1.03,0.36c0.78,0,1.57-0.55,2.38-1.66l1.35,1.08c-1.5,2.22-3.05,3.83-4.66,4.84    c-1.61,1.01-3.43,1.51-5.47,1.51c-2.4,0-4.27-0.56-5.62-1.69C726.12,747.09,725.3,745.38,725,743.1z M725,739.82v-14.08    c-3.63,2.13-6.33,4.41-8.09,6.84c-1.17,1.62-1.76,3.25-1.76,4.9c0,1.38,0.49,2.6,1.49,3.65c0.75,0.81,1.8,1.22,3.15,1.22    C721.28,742.34,723.02,741.5,725,739.82z"/>
		<linearGradient id="SVGID_74_" gradientUnits="userSpaceOnUse" x1="92.5206" y1="734.2692" x2="867.5627" y2="738.7753">
			<stop offset="0" style="stop-color:#C7A255"/>
			<stop offset="0.4274" style="stop-color:#FBF5BE"/>
			<stop offset="0.986" style="stop-color:#BC9641"/>
		</linearGradient>
		<path class="st74" d="M767.15,751.02l-13.58-31.17c-2.04-4.71-3.55-7.6-4.52-8.68c-0.98-1.08-2.15-1.83-3.53-2.25v-1.66h22.36    v1.66c-1.47,0.06-2.5,0.34-3.11,0.86c-0.6,0.51-0.9,1.12-0.9,1.84c0,1.14,0.75,3.39,2.25,6.75l7.2,16.46l4.9-12.73    c1.77-4.53,2.65-7.68,2.65-9.45c0-1.11-0.37-1.99-1.1-2.65c-0.74-0.66-2.03-1.02-3.89-1.08v-1.66h14.08v1.66    c-1.38,0.15-2.5,0.68-3.38,1.6c-0.87,0.92-2.32,4.03-4.36,9.34l-12.01,31.17c-3.03,7.8-5.28,12.6-6.75,14.39    c-2.07,2.52-4.66,3.78-7.78,3.78c-2.49,0-4.51-0.71-6.05-2.14c-1.54-1.42-2.32-3.14-2.32-5.15c0-1.74,0.53-3.18,1.6-4.32    c1.06-1.14,2.38-1.71,3.94-1.71c1.5,0,2.71,0.48,3.62,1.44c0.91,0.96,1.39,2.44,1.42,4.45c0.03,1.14,0.16,1.87,0.41,2.2    c0.24,0.33,0.59,0.49,1.03,0.49c0.72,0,1.49-0.43,2.3-1.3c1.2-1.26,2.61-4.14,4.23-8.63L767.15,751.02z"/>
		<linearGradient id="SVGID_75_" gradientUnits="userSpaceOnUse" x1="92.5816" y1="723.7786" x2="867.6237" y2="728.2847">
			<stop offset="0" style="stop-color:#C7A255"/>
			<stop offset="0.4274" style="stop-color:#FBF5BE"/>
			<stop offset="0.986" style="stop-color:#BC9641"/>
		</linearGradient>
		<path class="st75" d="M817.12,743.1c-5.13,4.53-9.73,6.79-13.81,6.79c-2.4,0-4.39-0.79-5.98-2.36c-1.59-1.57-2.38-3.54-2.38-5.91    c0-3.21,1.38-6.1,4.14-8.66c2.76-2.57,8.77-5.98,18.04-10.23v-4.23c0-3.18-0.17-5.18-0.52-6.01c-0.34-0.82-1-1.54-1.96-2.16    c-0.96-0.61-2.04-0.92-3.24-0.92c-1.95,0-3.56,0.44-4.81,1.31c-0.78,0.54-1.17,1.17-1.17,1.89c0,0.63,0.42,1.41,1.26,2.34    c1.14,1.29,1.71,2.53,1.71,3.73c0,1.47-0.55,2.72-1.64,3.76c-1.09,1.03-2.53,1.55-4.3,1.55c-1.89,0-3.47-0.57-4.75-1.71    c-1.28-1.14-1.91-2.47-1.91-4c0-2.16,0.85-4.22,2.56-6.18c1.71-1.96,4.09-3.47,7.15-4.52c3.06-1.05,6.24-1.57,9.54-1.57    c3.99,0,7.14,0.85,9.47,2.54c2.32,1.69,3.83,3.53,4.52,5.51c0.42,1.26,0.63,4.16,0.63,8.68v16.33c0,1.92,0.07,3.13,0.22,3.62    c0.15,0.49,0.37,0.86,0.68,1.1c0.3,0.24,0.64,0.36,1.03,0.36c0.78,0,1.57-0.55,2.38-1.66l1.35,1.08c-1.5,2.22-3.05,3.83-4.66,4.84    c-1.61,1.01-3.43,1.51-5.47,1.51c-2.4,0-4.27-0.56-5.62-1.69C818.25,747.09,817.42,745.38,817.12,743.1z M817.12,739.82v-14.08    c-3.63,2.13-6.33,4.41-8.09,6.84c-1.17,1.62-1.76,3.25-1.76,4.9c0,1.38,0.49,2.6,1.49,3.65c0.75,0.81,1.8,1.22,3.15,1.22    C813.41,742.34,815.14,741.5,817.12,739.82z"/>
		<linearGradient id="SVGID_76_" gradientUnits="userSpaceOnUse" x1="92.5823" y1="723.6595" x2="867.6244" y2="728.1655">
			<stop offset="0" style="stop-color:#C7A255"/>
			<stop offset="0.4274" style="stop-color:#FBF5BE"/>
			<stop offset="0.986" style="stop-color:#BC9641"/>
		</linearGradient>
		<path class="st76" d="M859.19,707.25v43.54c0,4.08-0.26,7.09-0.77,9.04c-0.75,2.82-2.24,5.08-4.48,6.79s-5.18,2.57-8.84,2.57    c-3.69,0-6.41-0.75-8.16-2.25c-1.76-1.5-2.63-3.31-2.63-5.44c0-1.32,0.46-2.47,1.37-3.44c0.92-0.97,1.99-1.46,3.22-1.46    c1.14,0,2.04,0.34,2.7,1.01c0.66,0.68,0.99,1.69,0.99,3.04c0,0.36-0.01,0.78-0.05,1.26c-0.06,0.63-0.09,1.06-0.09,1.3    c0,1.05,0.24,1.83,0.72,2.34c0.48,0.51,1.09,0.77,1.84,0.77c0.69,0,1.28-0.3,1.78-0.9c0.5-0.6,0.74-1.45,0.74-2.56    c0-0.6-0.09-1.82-0.27-3.65c-0.3-3.33-0.47-5.34-0.5-6.03l-0.13-10.66v-26l0.04-2.34c0-1.89-0.32-3.19-0.97-3.89    c-0.64-0.7-2-1.16-4.07-1.37v-1.66H859.19z M852.89,686.92c1.92,0,3.55,0.67,4.88,2c1.34,1.34,2,2.95,2,4.84    c0,1.92-0.67,3.55-2.02,4.9c-1.35,1.35-2.97,2.02-4.86,2.02c-1.89,0-3.51-0.68-4.86-2.02c-1.35-1.35-2.03-2.98-2.03-4.9    c0-1.89,0.67-3.5,2-4.84C849.34,687.59,850.97,686.92,852.89,686.92z"/>
		<linearGradient id="SVGID_77_" gradientUnits="userSpaceOnUse" x1="92.6411" y1="713.5444" x2="867.6832" y2="718.0505">
			<stop offset="0" style="stop-color:#C7A255"/>
			<stop offset="0.4274" style="stop-color:#FBF5BE"/>
			<stop offset="0.986" style="stop-color:#BC9641"/>
		</linearGradient>
		<path class="st77" d="M887.07,707.25v33.33c0,2.97,0.34,4.87,1.03,5.69c0.69,0.82,2.04,1.3,4.05,1.42v1.62h-22.72v-1.62    c1.86-0.06,3.24-0.6,4.14-1.62c0.6-0.69,0.9-2.52,0.9-5.49v-24.56c0-2.97-0.34-4.86-1.03-5.69c-0.69-0.82-2.02-1.3-4-1.42v-1.66    H887.07z M880.78,686.88c1.95,0,3.6,0.68,4.95,2.05c1.35,1.36,2.03,3.01,2.03,4.93c0,1.92-0.68,3.55-2.05,4.9    c-1.37,1.35-3.01,2.03-4.93,2.03c-1.92,0-3.55-0.68-4.9-2.03c-1.35-1.35-2.03-2.98-2.03-4.9c0-1.92,0.68-3.56,2.03-4.93    C877.22,687.56,878.86,686.88,880.78,686.88z"/>
		<linearGradient id="SVGID_78_" gradientUnits="userSpaceOnUse" x1="92.5867" y1="722.889" x2="867.6288" y2="727.395">
			<stop offset="0" style="stop-color:#C7A255"/>
			<stop offset="0.4274" style="stop-color:#FBF5BE"/>
			<stop offset="0.986" style="stop-color:#BC9641"/>
		</linearGradient>
		<path class="st78" d="M913.71,707.25v9.54c2.79-4.35,5.23-7.24,7.33-8.66c2.1-1.42,4.12-2.14,6.07-2.14    c1.68,0,3.02,0.52,4.02,1.55c1.01,1.03,1.51,2.5,1.51,4.38c0,2.01-0.49,3.57-1.46,4.68c-0.97,1.11-2.15,1.66-3.53,1.66    c-1.59,0-2.97-0.51-4.14-1.53c-1.17-1.02-1.86-1.59-2.07-1.71c-0.3-0.18-0.65-0.27-1.04-0.27c-0.87,0-1.69,0.33-2.47,0.99    c-1.23,1.02-2.16,2.48-2.79,4.37c-0.96,2.91-1.44,6.12-1.44,9.63v9.67l0.05,2.52c0,1.71,0.1,2.8,0.31,3.28    c0.36,0.81,0.89,1.4,1.6,1.78c0.7,0.37,1.9,0.61,3.58,0.7v1.62h-22.72v-1.62c1.83-0.15,3.07-0.65,3.71-1.51    c0.64-0.86,0.97-3.11,0.97-6.77v-23.26c0-2.4-0.12-3.93-0.36-4.59c-0.3-0.84-0.74-1.45-1.3-1.84c-0.57-0.39-1.57-0.66-3.01-0.81    v-1.66H913.71z"/>
		<linearGradient id="SVGID_79_" gradientUnits="userSpaceOnUse" x1="92.5864" y1="722.9459" x2="867.6285" y2="727.452">
			<stop offset="0" style="stop-color:#C7A255"/>
			<stop offset="0.4274" style="stop-color:#FBF5BE"/>
			<stop offset="0.986" style="stop-color:#BC9641"/>
		</linearGradient>
		<path class="st79" d="M960.35,743.1c-5.13,4.53-9.73,6.79-13.81,6.79c-2.4,0-4.39-0.79-5.98-2.36c-1.59-1.57-2.38-3.54-2.38-5.91    c0-3.21,1.38-6.1,4.14-8.66c2.76-2.57,8.77-5.98,18.04-10.23v-4.23c0-3.18-0.17-5.18-0.52-6.01s-1-1.54-1.96-2.16    c-0.96-0.61-2.04-0.92-3.24-0.92c-1.95,0-3.56,0.44-4.81,1.31c-0.78,0.54-1.17,1.17-1.17,1.89c0,0.63,0.42,1.41,1.26,2.34    c1.14,1.29,1.71,2.53,1.71,3.73c0,1.47-0.55,2.72-1.64,3.76c-1.09,1.03-2.53,1.55-4.3,1.55c-1.89,0-3.47-0.57-4.75-1.71    c-1.28-1.14-1.91-2.47-1.91-4c0-2.16,0.85-4.22,2.56-6.18c1.71-1.96,4.09-3.47,7.15-4.52c3.06-1.05,6.24-1.57,9.54-1.57    c3.99,0,7.14,0.85,9.47,2.54c2.32,1.69,3.83,3.53,4.52,5.51c0.42,1.26,0.63,4.16,0.63,8.68v16.33c0,1.92,0.07,3.13,0.22,3.62    s0.37,0.86,0.68,1.1c0.3,0.24,0.64,0.36,1.03,0.36c0.78,0,1.57-0.55,2.38-1.66l1.35,1.08c-1.5,2.22-3.05,3.83-4.66,4.84    c-1.61,1.01-3.43,1.51-5.47,1.51c-2.4,0-4.27-0.56-5.62-1.69C961.48,747.09,960.65,745.38,960.35,743.1z M960.35,739.82v-14.08    c-3.63,2.13-6.33,4.41-8.09,6.84c-1.17,1.62-1.76,3.25-1.76,4.9c0,1.38,0.49,2.6,1.49,3.65c0.75,0.81,1.8,1.22,3.15,1.22    C956.64,742.34,958.37,741.5,960.35,739.82z"/>
		<linearGradient id="SVGID_80_" gradientUnits="userSpaceOnUse" x1="92.5862" y1="722.9874" x2="867.6283" y2="727.4935">
			<stop offset="0" style="stop-color:#C7A255"/>
			<stop offset="0.4274" style="stop-color:#FBF5BE"/>
			<stop offset="0.986" style="stop-color:#BC9641"/>
		</linearGradient>
		<path class="st80" d="M1003.04,705.99c3.66,0,7.06,0.95,10.21,2.84c3.15,1.89,5.54,4.57,7.18,8.05c1.63,3.48,2.45,7.29,2.45,11.43    c0,5.97-1.51,10.96-4.54,14.98c-3.66,4.86-8.71,7.28-15.16,7.28c-6.33,0-11.2-2.22-14.62-6.66c-3.42-4.44-5.13-9.58-5.13-15.43    c0-6.03,1.75-11.28,5.24-15.77C992.17,708.24,996.95,705.99,1003.04,705.99z M1003.22,709.19c-1.53,0-2.84,0.58-3.94,1.73    c-1.09,1.15-1.81,3.44-2.16,6.84c-0.35,3.4-0.52,8.13-0.52,14.19c0,3.21,0.21,6.21,0.63,9c0.33,2.13,1.03,3.75,2.11,4.86    c1.08,1.11,2.31,1.66,3.69,1.66c1.35,0,2.47-0.37,3.37-1.13c1.17-1.02,1.95-2.44,2.34-4.27c0.6-2.85,0.9-8.61,0.9-17.28    c0-5.1-0.28-8.6-0.86-10.5c-0.57-1.9-1.41-3.29-2.52-4.16C1005.5,709.5,1004.48,709.19,1003.22,709.19z"/>
		<linearGradient id="SVGID_81_" gradientUnits="userSpaceOnUse" x1="91.9664" y1="829.5858" x2="867.0085" y2="834.0918">
			<stop offset="0" style="stop-color:#C7A255"/>
			<stop offset="0.4274" style="stop-color:#FBF5BE"/>
			<stop offset="0.986" style="stop-color:#BC9641"/>
		</linearGradient>
		<path class="st81" d="M130.98,798.87h31.49v1.66h-1.57c-2.37,0-4,0.25-4.88,0.74c-0.88,0.49-1.51,1.17-1.89,2.05    s-0.56,3.04-0.56,6.52v29.87c0,5.46,0.41,9.07,1.24,10.84c0.82,1.77,2.18,3.24,4.07,4.41c1.89,1.17,4.27,1.76,7.15,1.76    c3.3,0,6.11-0.74,8.44-2.23c2.32-1.49,4.06-3.53,5.22-6.14c1.15-2.61,1.73-7.15,1.73-13.63v-24.88c0-2.73-0.28-4.68-0.86-5.85    c-0.57-1.17-1.29-1.98-2.16-2.43c-1.35-0.69-3.25-1.03-5.71-1.03v-1.66h21.1v1.66h-1.26c-1.71,0-3.13,0.34-4.27,1.03    c-1.14,0.69-1.96,1.73-2.47,3.11c-0.39,0.96-0.59,2.68-0.59,5.17v23.17c0,7.17-0.47,12.34-1.42,15.52    c-0.95,3.18-3.25,6.1-6.91,8.77c-3.66,2.67-8.65,4-14.98,4c-5.28,0-9.36-0.7-12.23-2.11c-3.93-1.92-6.7-4.38-8.32-7.38    c-1.62-3-2.43-7.03-2.43-12.1v-29.87c0-3.51-0.2-5.69-0.58-6.55c-0.39-0.85-1.07-1.54-2.03-2.05c-0.96-0.51-2.73-0.75-5.31-0.72    V798.87z"/>
		<linearGradient id="SVGID_82_" gradientUnits="userSpaceOnUse" x1="91.9204" y1="837.4974" x2="866.9625" y2="842.0035">
			<stop offset="0" style="stop-color:#C7A255"/>
			<stop offset="0.4274" style="stop-color:#FBF5BE"/>
			<stop offset="0.986" style="stop-color:#BC9641"/>
		</linearGradient>
		<path class="st82" d="M215.64,817.8v5.44c2.16-2.34,4.23-4.04,6.21-5.11c1.98-1.06,4.11-1.6,6.39-1.6c2.73,0,5,0.76,6.79,2.27    c1.8,1.51,3,3.4,3.6,5.64c0.48,1.71,0.72,5,0.72,9.85v16.37c0,3.24,0.29,5.26,0.88,6.05c0.58,0.79,1.81,1.3,3.67,1.51v1.62h-21.28    v-1.62c1.59-0.21,2.73-0.87,3.42-1.98c0.48-0.75,0.72-2.61,0.72-5.58v-18.71c0-3.45-0.14-5.62-0.41-6.52s-0.73-1.6-1.37-2.09    c-0.65-0.5-1.36-0.74-2.14-0.74c-2.58,0-4.98,1.84-7.2,5.54v22.53c0,3.15,0.29,5.14,0.88,5.98c0.58,0.84,1.67,1.36,3.26,1.57v1.62    H198.5v-1.62c1.77-0.18,3.03-0.75,3.78-1.71c0.51-0.66,0.77-2.61,0.77-5.85v-23.75c0-3.18-0.29-5.16-0.88-5.94    c-0.58-0.78-1.81-1.29-3.67-1.53v-1.66H215.64z"/>
		<linearGradient id="SVGID_83_" gradientUnits="userSpaceOnUse" x1="91.9774" y1="827.7024" x2="867.0195" y2="832.2084">
			<stop offset="0" style="stop-color:#C7A255"/>
			<stop offset="0.4274" style="stop-color:#FBF5BE"/>
			<stop offset="0.986" style="stop-color:#BC9641"/>
		</linearGradient>
		<path class="st83" d="M266.11,817.8v33.33c0,2.97,0.34,4.87,1.03,5.69c0.69,0.82,2.04,1.3,4.05,1.42v1.62h-22.72v-1.62    c1.86-0.06,3.24-0.6,4.14-1.62c0.6-0.69,0.9-2.52,0.9-5.49v-24.56c0-2.97-0.34-4.86-1.03-5.69c-0.69-0.82-2.02-1.3-4-1.42v-1.66    H266.11z M259.82,797.43c1.95,0,3.6,0.68,4.95,2.05c1.35,1.36,2.03,3.01,2.03,4.93s-0.68,3.55-2.05,4.9    c-1.37,1.35-3.01,2.03-4.93,2.03c-1.92,0-3.55-0.68-4.9-2.03c-1.35-1.35-2.03-2.98-2.03-4.9s0.68-3.56,2.03-4.93    C256.26,798.11,257.9,797.43,259.82,797.43z"/>
		<linearGradient id="SVGID_84_" gradientUnits="userSpaceOnUse" x1="91.9162" y1="838.2194" x2="866.9583" y2="842.7255">
			<stop offset="0" style="stop-color:#C7A255"/>
			<stop offset="0.4274" style="stop-color:#FBF5BE"/>
			<stop offset="0.986" style="stop-color:#BC9641"/>
		</linearGradient>
		<path class="st84" d="M294.27,861.12l-14.17-32.61c-1.71-3.93-3.04-6.42-4-7.47c-0.69-0.78-1.71-1.3-3.06-1.57v-1.66h22.36v1.66    c-1.41,0-2.37,0.26-2.88,0.76c-0.72,0.66-1.08,1.44-1.08,2.34c0,1.11,0.66,3.19,1.98,6.25l6.93,15.79l5.53-13.63    c1.59-3.9,2.38-6.66,2.38-8.28c0-0.93-0.34-1.69-1.01-2.27c-0.68-0.59-1.87-0.91-3.58-0.97v-1.66h13.77v1.66    c-1.32,0.18-2.4,0.68-3.24,1.49c-0.84,0.81-2.1,3.19-3.78,7.15l-14.04,33.02H294.27z"/>
		<linearGradient id="SVGID_85_" gradientUnits="userSpaceOnUse" x1="91.9211" y1="837.3885" x2="866.99" y2="841.8947">
			<stop offset="0" style="stop-color:#C7A255"/>
			<stop offset="0.4274" style="stop-color:#FBF5BE"/>
			<stop offset="0.986" style="stop-color:#BC9641"/>
		</linearGradient>
		<path class="st85" d="M356.98,837.33h-23.08c0.27,5.58,1.76,9.99,4.45,13.23c2.07,2.49,4.56,3.73,7.47,3.73    c1.8,0,3.43-0.5,4.9-1.51c1.47-1.01,3.04-2.81,4.72-5.42l1.53,0.99c-2.28,4.65-4.8,7.94-7.56,9.87c-2.76,1.94-5.95,2.9-9.58,2.9    c-6.24,0-10.96-2.4-14.17-7.2c-2.58-3.87-3.87-8.67-3.87-14.39c0-7.02,1.9-12.6,5.69-16.76c3.79-4.15,8.24-6.23,13.34-6.23    c4.26,0,7.95,1.75,11.09,5.24S356.74,830.46,356.98,837.33z M345.92,834.31c0-4.83-0.26-8.14-0.79-9.94    c-0.53-1.8-1.34-3.16-2.45-4.09c-0.63-0.54-1.47-0.81-2.52-0.81c-1.56,0-2.84,0.76-3.82,2.3c-1.77,2.67-2.65,6.33-2.65,10.98v1.57    H345.92z"/>
		<linearGradient id="SVGID_86_" gradientUnits="userSpaceOnUse" x1="91.926" y1="836.5414" x2="866.9681" y2="841.0475">
			<stop offset="0" style="stop-color:#C7A255"/>
			<stop offset="0.4274" style="stop-color:#FBF5BE"/>
			<stop offset="0.986" style="stop-color:#BC9641"/>
		</linearGradient>
		<path class="st86" d="M379.7,817.8v9.54c2.79-4.35,5.23-7.24,7.33-8.66c2.1-1.42,4.12-2.14,6.07-2.14c1.68,0,3.02,0.52,4.02,1.55    c1.01,1.03,1.51,2.5,1.51,4.38c0,2.01-0.49,3.57-1.46,4.68c-0.97,1.11-2.15,1.66-3.53,1.66c-1.59,0-2.97-0.51-4.14-1.53    c-1.17-1.02-1.86-1.59-2.07-1.71c-0.3-0.18-0.65-0.27-1.04-0.27c-0.87,0-1.69,0.33-2.47,0.99c-1.23,1.02-2.16,2.48-2.79,4.37    c-0.96,2.91-1.44,6.12-1.44,9.63v9.67l0.05,2.52c0,1.71,0.1,2.8,0.31,3.28c0.36,0.81,0.89,1.4,1.6,1.78    c0.7,0.37,1.9,0.61,3.58,0.7v1.62h-22.72v-1.62c1.83-0.15,3.06-0.65,3.71-1.51c0.64-0.86,0.97-3.11,0.97-6.77v-23.26    c0-2.4-0.12-3.93-0.36-4.59c-0.3-0.84-0.74-1.45-1.3-1.84c-0.57-0.39-1.57-0.66-3.01-0.81v-1.66H379.7z"/>
		<linearGradient id="SVGID_87_" gradientUnits="userSpaceOnUse" x1="91.9237" y1="836.9382" x2="866.9658" y2="841.4442">
			<stop offset="0" style="stop-color:#C7A255"/>
			<stop offset="0.4274" style="stop-color:#FBF5BE"/>
			<stop offset="0.986" style="stop-color:#BC9641"/>
		</linearGradient>
		<path class="st87" d="M429.72,816.64l0.68,14.35h-1.53c-1.83-4.26-3.73-7.17-5.69-8.73c-1.96-1.56-3.92-2.34-5.87-2.34    c-1.23,0-2.28,0.41-3.15,1.24c-0.87,0.83-1.3,1.78-1.3,2.86c0,0.81,0.3,1.59,0.9,2.34c0.96,1.23,3.65,3.34,8.05,6.32    c4.41,2.98,7.31,5.52,8.71,7.6c1.39,2.09,2.09,4.42,2.09,6.99c0,2.34-0.59,4.63-1.76,6.88c-1.17,2.25-2.82,3.98-4.95,5.17    c-2.13,1.2-4.48,1.8-7.06,1.8c-2.01,0-4.69-0.63-8.05-1.89c-0.9-0.33-1.52-0.5-1.85-0.5c-0.99,0-1.81,0.75-2.47,2.25h-1.49    l-0.72-15.12h1.53c1.35,3.96,3.2,6.93,5.56,8.9c2.36,1.98,4.58,2.97,6.68,2.97c1.44,0,2.62-0.44,3.53-1.33    c0.91-0.88,1.37-1.96,1.37-3.22c0-1.44-0.45-2.68-1.35-3.73c-0.9-1.05-2.91-2.64-6.03-4.77c-4.59-3.18-7.56-5.61-8.91-7.29    c-1.98-2.46-2.97-5.17-2.97-8.14c0-3.24,1.12-6.17,3.35-8.79c2.23-2.63,5.47-3.94,9.69-3.94c2.28,0,4.48,0.56,6.61,1.67    c0.81,0.45,1.47,0.68,1.98,0.68c0.54,0,0.97-0.11,1.3-0.34c0.33-0.22,0.85-0.86,1.57-1.91H429.72z"/>
		<linearGradient id="SVGID_88_" gradientUnits="userSpaceOnUse" x1="91.9838" y1="826.6019" x2="867.0259" y2="831.108">
			<stop offset="0" style="stop-color:#C7A255"/>
			<stop offset="0.4274" style="stop-color:#FBF5BE"/>
			<stop offset="0.986" style="stop-color:#BC9641"/>
		</linearGradient>
		<path class="st88" d="M455.41,817.8v33.33c0,2.97,0.34,4.87,1.03,5.69c0.69,0.82,2.04,1.3,4.05,1.42v1.62h-22.72v-1.62    c1.86-0.06,3.24-0.6,4.14-1.62c0.6-0.69,0.9-2.52,0.9-5.49v-24.56c0-2.97-0.34-4.86-1.03-5.69c-0.69-0.82-2.02-1.3-4-1.42v-1.66    H455.41z M449.11,797.43c1.95,0,3.6,0.68,4.95,2.05c1.35,1.36,2.03,3.01,2.03,4.93s-0.68,3.55-2.05,4.9    c-1.37,1.35-3.01,2.03-4.93,2.03c-1.92,0-3.55-0.68-4.9-2.03c-1.35-1.35-2.03-2.98-2.03-4.9s0.68-3.56,2.03-4.93    C445.56,798.11,447.19,797.43,449.11,797.43z"/>
		<linearGradient id="SVGID_89_" gradientUnits="userSpaceOnUse" x1="91.9688" y1="829.1766" x2="867.0109" y2="833.6827">
			<stop offset="0" style="stop-color:#C7A255"/>
			<stop offset="0.4274" style="stop-color:#FBF5BE"/>
			<stop offset="0.986" style="stop-color:#BC9641"/>
		</linearGradient>
		<path class="st89" d="M481.27,802.42v15.39h9.98v4.45h-9.98v25.96c0,2.43,0.11,4,0.34,4.7c0.22,0.7,0.62,1.27,1.19,1.71    c0.57,0.43,1.09,0.65,1.57,0.65c1.95,0,3.79-1.49,5.53-4.46l1.35,0.99c-2.43,5.76-6.37,8.64-11.83,8.64    c-2.67,0-4.93-0.74-6.77-2.23c-1.84-1.48-3.02-3.14-3.53-4.97c-0.3-1.02-0.45-3.78-0.45-8.28v-22.72h-5.49v-1.57    c3.78-2.67,6.99-5.47,9.65-8.41c2.65-2.94,4.97-6.22,6.95-9.85H481.27z"/>
		<linearGradient id="SVGID_90_" gradientUnits="userSpaceOnUse" x1="91.8693" y1="846.2856" x2="866.9114" y2="850.7916">
			<stop offset="0" style="stop-color:#C7A255"/>
			<stop offset="0.4274" style="stop-color:#FBF5BE"/>
			<stop offset="0.986" style="stop-color:#BC9641"/>
		</linearGradient>
		<path class="st90" d="M514.56,861.57l-13.59-31.17c-2.04-4.71-3.55-7.6-4.52-8.68c-0.97-1.08-2.15-1.83-3.53-2.25v-1.66h22.36    v1.66c-1.47,0.06-2.5,0.34-3.1,0.86c-0.6,0.51-0.9,1.12-0.9,1.84c0,1.14,0.75,3.39,2.25,6.75l7.2,16.46l4.9-12.73    c1.77-4.53,2.65-7.68,2.65-9.45c0-1.11-0.37-1.99-1.1-2.65c-0.74-0.66-2.03-1.02-3.89-1.08v-1.66h14.08v1.66    c-1.38,0.15-2.5,0.68-3.37,1.6c-0.87,0.92-2.32,4.03-4.36,9.34l-12.01,31.17c-3.03,7.8-5.28,12.6-6.75,14.39    c-2.07,2.52-4.66,3.78-7.78,3.78c-2.49,0-4.51-0.71-6.05-2.14c-1.55-1.42-2.32-3.14-2.32-5.15c0-1.74,0.53-3.18,1.6-4.32    c1.07-1.14,2.38-1.71,3.94-1.71c1.5,0,2.71,0.48,3.62,1.44c0.92,0.96,1.39,2.44,1.42,4.45c0.03,1.14,0.16,1.87,0.4,2.2    c0.24,0.33,0.59,0.49,1.04,0.49c0.72,0,1.48-0.43,2.29-1.3c1.2-1.26,2.61-4.14,4.23-8.63L514.56,861.57z"/>
		<linearGradient id="SVGID_91_" gradientUnits="userSpaceOnUse" x1="91.9293" y1="835.9703" x2="866.9714" y2="840.4764">
			<stop offset="0" style="stop-color:#C7A255"/>
			<stop offset="0.4274" style="stop-color:#FBF5BE"/>
			<stop offset="0.986" style="stop-color:#BC9641"/>
		</linearGradient>
		<path class="st91" d="M584.2,816.54c3.66,0,7.06,0.95,10.21,2.84c3.15,1.89,5.54,4.57,7.18,8.05c1.63,3.48,2.45,7.29,2.45,11.43    c0,5.97-1.52,10.96-4.54,14.98c-3.66,4.86-8.71,7.28-15.16,7.28c-6.33,0-11.2-2.22-14.62-6.66c-3.42-4.44-5.13-9.58-5.13-15.43    c0-6.03,1.75-11.28,5.24-15.77C573.32,818.79,578.11,816.54,584.2,816.54z M584.38,819.74c-1.53,0-2.84,0.58-3.94,1.73    c-1.09,1.15-1.82,3.44-2.16,6.84c-0.34,3.4-0.52,8.13-0.52,14.19c0,3.21,0.21,6.21,0.63,9c0.33,2.13,1.03,3.75,2.11,4.86    c1.08,1.11,2.31,1.66,3.69,1.66c1.35,0,2.48-0.37,3.38-1.13c1.17-1.02,1.95-2.44,2.34-4.27c0.6-2.85,0.9-8.61,0.9-17.28    c0-5.1-0.28-8.6-0.85-10.5c-0.57-1.9-1.41-3.29-2.52-4.16C586.66,820.05,585.64,819.74,584.38,819.74z"/>
		<linearGradient id="SVGID_92_" gradientUnits="userSpaceOnUse" x1="91.9897" y1="825.5845" x2="867.0318" y2="830.0905">
			<stop offset="0" style="stop-color:#C7A255"/>
			<stop offset="0.4274" style="stop-color:#FBF5BE"/>
			<stop offset="0.986" style="stop-color:#BC9641"/>
		</linearGradient>
		<path class="st92" d="M628.87,822.21v29.2c0,2.82,0.3,4.59,0.9,5.31c0.96,1.11,2.73,1.62,5.31,1.53v1.62h-24.79v-1.62    c1.89-0.03,3.23-0.25,4.03-0.65c0.79-0.41,1.34-0.97,1.64-1.69c0.3-0.72,0.45-2.22,0.45-4.5v-29.2h-6.12v-4.41h6.12v-3.11    l-0.05-2.11c0-4.32,1.58-7.92,4.75-10.79c3.16-2.88,7.44-4.32,12.84-4.32c3.69,0,6.42,0.69,8.21,2.07    c1.78,1.38,2.67,2.91,2.67,4.59c0,1.35-0.55,2.52-1.66,3.51c-1.11,0.99-2.58,1.48-4.41,1.48c-1.56,0-2.79-0.41-3.71-1.22    c-0.91-0.81-1.37-1.71-1.37-2.7c0-0.27,0.09-0.82,0.27-1.67c0.12-0.51,0.18-0.99,0.18-1.44c0-0.63-0.18-1.09-0.54-1.39    c-0.48-0.45-1.06-0.68-1.75-0.68c-0.87,0-1.6,0.36-2.18,1.08c-0.59,0.72-0.88,1.87-0.88,3.46l0.09,7.87v5.35h6.21v4.41H628.87z"/>
		<linearGradient id="SVGID_93_" gradientUnits="userSpaceOnUse" x1="91.9875" y1="825.9593" x2="867.0296" y2="830.4653">
			<stop offset="0" style="stop-color:#C7A255"/>
			<stop offset="0.4274" style="stop-color:#FBF5BE"/>
			<stop offset="0.986" style="stop-color:#BC9641"/>
		</linearGradient>
		<path class="st93" d="M702.01,827.52c5.79,1.35,9.85,2.98,12.19,4.9c3.36,2.73,5.04,6.27,5.04,10.62c0,4.59-1.84,8.38-5.53,11.38    c-4.53,3.63-11.11,5.44-19.75,5.44h-30.99v-1.66c2.82,0,4.73-0.26,5.74-0.79c1-0.53,1.71-1.21,2.11-2.05    c0.41-0.84,0.61-2.91,0.61-6.21v-39.59c0-3.3-0.2-5.37-0.61-6.23s-1.12-1.54-2.14-2.05c-1.02-0.51-2.92-0.76-5.71-0.76v-1.66    h29.24c6.99,0,11.94,0.62,14.85,1.87c2.91,1.24,5.2,3.1,6.88,5.58c1.68,2.47,2.52,5.1,2.52,7.89c0,2.94-1.07,5.56-3.19,7.85    C711.13,824.35,707.38,826.17,702.01,827.52z M685.64,829.81v19.57l-0.05,2.25c0,1.62,0.41,2.84,1.24,3.67    c0.82,0.83,2.05,1.24,3.67,1.24c2.4,0,4.61-0.53,6.64-1.6c2.03-1.06,3.58-2.61,4.66-4.63c1.08-2.02,1.62-4.28,1.62-6.77    c0-2.85-0.66-5.4-1.98-7.67c-1.32-2.26-3.13-3.85-5.44-4.75C693.67,830.22,690.22,829.79,685.64,829.81z M685.64,826.3    c4.26,0,7.4-0.48,9.42-1.44c2.02-0.96,3.58-2.31,4.66-4.05c1.08-1.74,1.62-3.96,1.62-6.66c0-2.7-0.53-4.91-1.6-6.64    c-1.06-1.72-2.59-3.04-4.56-3.94c-1.98-0.9-5.16-1.33-9.54-1.3V826.3z"/>
		<linearGradient id="SVGID_94_" gradientUnits="userSpaceOnUse" x1="91.9365" y1="834.7237" x2="866.9786" y2="839.2297">
			<stop offset="0" style="stop-color:#C7A255"/>
			<stop offset="0.4274" style="stop-color:#FBF5BE"/>
			<stop offset="0.986" style="stop-color:#BC9641"/>
		</linearGradient>
		<path class="st94" d="M748.79,853.66c-5.13,4.53-9.73,6.79-13.81,6.79c-2.4,0-4.39-0.79-5.98-2.36c-1.59-1.57-2.38-3.54-2.38-5.91    c0-3.21,1.38-6.1,4.14-8.66c2.76-2.57,8.77-5.98,18.04-10.23v-4.23c0-3.18-0.17-5.18-0.52-6.01c-0.34-0.82-1-1.54-1.96-2.16    c-0.96-0.61-2.04-0.92-3.24-0.92c-1.95,0-3.55,0.44-4.81,1.31c-0.78,0.54-1.17,1.17-1.17,1.89c0,0.63,0.42,1.41,1.26,2.34    c1.14,1.29,1.71,2.53,1.71,3.73c0,1.47-0.55,2.72-1.64,3.76s-2.52,1.55-4.29,1.55c-1.89,0-3.47-0.57-4.75-1.71    c-1.28-1.14-1.91-2.47-1.91-4c0-2.16,0.86-4.22,2.57-6.18c1.71-1.96,4.09-3.47,7.15-4.52c3.06-1.05,6.24-1.57,9.54-1.57    c3.99,0,7.14,0.85,9.47,2.54c2.32,1.69,3.83,3.53,4.52,5.51c0.42,1.26,0.63,4.16,0.63,8.68v16.33c0,1.92,0.07,3.13,0.22,3.62    c0.15,0.49,0.38,0.86,0.68,1.1c0.3,0.24,0.65,0.36,1.04,0.36c0.78,0,1.57-0.55,2.38-1.66l1.35,1.08c-1.5,2.22-3.05,3.83-4.65,4.84    c-1.61,1.01-3.43,1.51-5.47,1.51c-2.4,0-4.27-0.56-5.62-1.69C749.92,857.64,749.09,855.93,748.79,853.66z M748.79,850.37v-14.08    c-3.63,2.13-6.33,4.41-8.1,6.84c-1.17,1.62-1.76,3.25-1.76,4.9c0,1.38,0.5,2.6,1.49,3.65c0.75,0.81,1.8,1.22,3.15,1.22    C745.07,852.89,746.82,852.05,748.79,850.37z"/>
		<linearGradient id="SVGID_95_" gradientUnits="userSpaceOnUse" x1="91.9398" y1="834.1613" x2="866.9819" y2="838.6674">
			<stop offset="0" style="stop-color:#C7A255"/>
			<stop offset="0.4274" style="stop-color:#FBF5BE"/>
			<stop offset="0.986" style="stop-color:#BC9641"/>
		</linearGradient>
		<path class="st95" d="M789.1,817.8v9.54c2.79-4.35,5.23-7.24,7.33-8.66c2.1-1.42,4.12-2.14,6.07-2.14c1.68,0,3.02,0.52,4.03,1.55    c1,1.03,1.51,2.5,1.51,4.38c0,2.01-0.49,3.57-1.46,4.68c-0.97,1.11-2.15,1.66-3.53,1.66c-1.59,0-2.97-0.51-4.14-1.53    c-1.17-1.02-1.86-1.59-2.07-1.71c-0.3-0.18-0.65-0.27-1.03-0.27c-0.87,0-1.69,0.33-2.47,0.99c-1.23,1.02-2.16,2.48-2.79,4.37    c-0.96,2.91-1.44,6.12-1.44,9.63v9.67l0.05,2.52c0,1.71,0.11,2.8,0.32,3.28c0.36,0.81,0.89,1.4,1.6,1.78    c0.7,0.37,1.9,0.61,3.58,0.7v1.62h-22.72v-1.62c1.83-0.15,3.07-0.65,3.71-1.51c0.65-0.86,0.97-3.11,0.97-6.77v-23.26    c0-2.4-0.12-3.93-0.36-4.59c-0.3-0.84-0.74-1.45-1.31-1.84c-0.57-0.39-1.57-0.66-3.01-0.81v-1.66H789.1z"/>
		<linearGradient id="SVGID_96_" gradientUnits="userSpaceOnUse" x1="91.9376" y1="834.5372" x2="866.9797" y2="839.0432">
			<stop offset="0" style="stop-color:#C7A255"/>
			<stop offset="0.4274" style="stop-color:#FBF5BE"/>
			<stop offset="0.986" style="stop-color:#BC9641"/>
		</linearGradient>
		<path class="st96" d="M830.71,816.54c3.66,0,7.06,0.95,10.21,2.84c3.15,1.89,5.54,4.57,7.18,8.05c1.63,3.48,2.45,7.29,2.45,11.43    c0,5.97-1.51,10.96-4.54,14.98c-3.66,4.86-8.71,7.28-15.16,7.28c-6.33,0-11.2-2.22-14.62-6.66c-3.42-4.44-5.13-9.58-5.13-15.43    c0-6.03,1.75-11.28,5.24-15.77C819.83,818.79,824.62,816.54,830.71,816.54z M830.89,819.74c-1.53,0-2.84,0.58-3.94,1.73    c-1.09,1.15-1.81,3.44-2.16,6.84c-0.35,3.4-0.52,8.13-0.52,14.19c0,3.21,0.21,6.21,0.63,9c0.33,2.13,1.03,3.75,2.11,4.86    c1.08,1.11,2.31,1.66,3.69,1.66c1.35,0,2.47-0.37,3.37-1.13c1.17-1.02,1.95-2.44,2.34-4.27c0.6-2.85,0.9-8.61,0.9-17.28    c0-5.1-0.28-8.6-0.86-10.5c-0.57-1.9-1.41-3.29-2.52-4.16C833.17,820.05,832.15,819.74,830.89,819.74z"/>
		<linearGradient id="SVGID_97_" gradientUnits="userSpaceOnUse" x1="91.9909" y1="825.3786" x2="867.033" y2="829.8846">
			<stop offset="0" style="stop-color:#C7A255"/>
			<stop offset="0.4274" style="stop-color:#FBF5BE"/>
			<stop offset="0.986" style="stop-color:#BC9641"/>
		</linearGradient>
		<path class="st97" d="M897.83,798.87v48.4c0,3.27,0.09,5.21,0.27,5.8c0.24,0.99,0.7,1.73,1.37,2.21c0.67,0.48,1.85,0.78,3.53,0.9    v1.49l-17.77,3.46v-6.66c-2.13,2.58-4.03,4.33-5.69,5.26c-1.66,0.93-3.55,1.39-5.64,1.39c-5.37,0-9.61-2.4-12.73-7.2    c-2.52-3.9-3.78-8.68-3.78-14.35c0-4.53,0.78-8.58,2.34-12.17c1.56-3.58,3.69-6.29,6.41-8.12c2.71-1.83,5.63-2.75,8.75-2.75    c2.01,0,3.79,0.39,5.35,1.17c1.56,0.78,3.22,2.15,4.99,4.09v-12.68c0-3.21-0.14-5.14-0.41-5.8c-0.36-0.87-0.9-1.51-1.62-1.93    c-0.72-0.42-2.07-0.63-4.05-0.63v-1.89H897.83z M885.23,827.38c-2.22-4.26-4.93-6.39-8.14-6.39c-1.11,0-2.03,0.3-2.75,0.9    c-1.11,0.93-2.02,2.56-2.72,4.9c-0.71,2.34-1.06,5.92-1.06,10.75c0,5.31,0.39,9.24,1.17,11.79c0.78,2.55,1.84,4.39,3.19,5.53    c0.69,0.57,1.63,0.85,2.83,0.85c2.64,0,5.13-2.07,7.47-6.21V827.38z"/>
		<linearGradient id="SVGID_98_" gradientUnits="userSpaceOnUse" x1="91.9427" y1="833.6622" x2="866.9849" y2="838.1682">
			<stop offset="0" style="stop-color:#C7A255"/>
			<stop offset="0.4274" style="stop-color:#FBF5BE"/>
			<stop offset="0.986" style="stop-color:#BC9641"/>
		</linearGradient>
		<path class="st98" d="M931.38,853.66c-5.13,4.53-9.73,6.79-13.81,6.79c-2.4,0-4.39-0.79-5.98-2.36c-1.59-1.57-2.38-3.54-2.38-5.91    c0-3.21,1.38-6.1,4.14-8.66c2.76-2.57,8.77-5.98,18.04-10.23v-4.23c0-3.18-0.17-5.18-0.52-6.01c-0.34-0.82-1-1.54-1.96-2.16    c-0.96-0.61-2.04-0.92-3.24-0.92c-1.95,0-3.56,0.44-4.81,1.31c-0.78,0.54-1.17,1.17-1.17,1.89c0,0.63,0.42,1.41,1.26,2.34    c1.14,1.29,1.71,2.53,1.71,3.73c0,1.47-0.55,2.72-1.64,3.76s-2.53,1.55-4.3,1.55c-1.89,0-3.47-0.57-4.75-1.71    c-1.28-1.14-1.91-2.47-1.91-4c0-2.16,0.85-4.22,2.56-6.18c1.71-1.96,4.09-3.47,7.15-4.52c3.06-1.05,6.24-1.57,9.54-1.57    c3.99,0,7.14,0.85,9.47,2.54c2.32,1.69,3.83,3.53,4.52,5.51c0.42,1.26,0.63,4.16,0.63,8.68v16.33c0,1.92,0.07,3.13,0.22,3.62    c0.15,0.49,0.37,0.86,0.68,1.1c0.3,0.24,0.64,0.36,1.03,0.36c0.78,0,1.57-0.55,2.38-1.66l1.35,1.08c-1.5,2.22-3.05,3.83-4.66,4.84    c-1.61,1.01-3.43,1.51-5.47,1.51c-2.4,0-4.27-0.56-5.62-1.69C932.51,857.64,931.68,855.93,931.38,853.66z M931.38,850.37v-14.08    c-3.63,2.13-6.33,4.41-8.09,6.84c-1.17,1.62-1.76,3.25-1.76,4.9c0,1.38,0.49,2.6,1.49,3.65c0.75,0.81,1.8,1.22,3.15,1.22    C927.67,852.89,929.4,852.05,931.38,850.37z"/>
	</g>
</g>
</svg>